<svg width="18" height="12" viewBox="0 0 18 12" fill="none" xmlns="http://www.w3.org/2000/svg">
<g clip-path="url(#clip0_43_811)">
<path d="M2.28064 11.5382H9.91117C10.6264 11.5382 11.1853 11.3416 11.5879 10.9485C11.9905 10.5554 12.1918 10.0012 12.1918 9.286V2.24512C12.1918 1.53464 12.0024 0.982829 11.6235 0.589699C11.2445 0.196566 10.6975 0 9.98224 0H2.28064C1.59858 0 1.04796 0.196566 0.628775 0.589699C0.209592 0.982829 0 1.53464 0 2.24512V9.286C0 10.0012 0.201303 10.5554 0.603908 10.9485C1.00652 11.3416 1.56543 11.5382 2.28064 11.5382ZM13.1581 7.86498L15.7442 10.103C15.8674 10.2072 15.9965 10.2913 16.1315 10.3553C16.2665 10.4192 16.3979 10.4511 16.5257 10.4511C16.8005 10.4511 17.0219 10.36 17.19 10.1777C17.3582 9.99529 17.4423 9.75727 17.4423 9.46359V2.0746C17.4423 1.78093 17.3582 1.54293 17.19 1.36057C17.0219 1.17821 16.8005 1.08703 16.5257 1.08703C16.3979 1.08703 16.2665 1.11782 16.1315 1.17939C15.9965 1.24097 15.8674 1.32623 15.7442 1.43517L13.1581 3.66608V7.86498ZM5.90409 7.18296C5.54885 7.18296 5.37123 7.00534 5.37123 6.65009C5.37123 6.64062 5.37123 6.62759 5.37123 6.61102C5.37123 6.59444 5.37123 6.57905 5.37123 6.56484C5.37123 6.24276 5.45057 5.98225 5.60924 5.78331C5.76792 5.58437 5.96567 5.39965 6.20249 5.22913C6.49142 5.0302 6.70693 4.8585 6.84903 4.71403C6.99112 4.56957 7.06217 4.38366 7.06217 4.15631C7.06217 3.90527 6.97218 3.70279 6.79219 3.54885C6.6122 3.39491 6.37064 3.31795 6.0675 3.31795C5.84962 3.31795 5.66016 3.36886 5.49911 3.4707C5.33807 3.57253 5.20308 3.71108 5.09414 3.88633C4.9852 4.01421 4.89521 4.12316 4.82416 4.21315C4.75312 4.30314 4.62286 4.34814 4.4334 4.34814C4.32446 4.34814 4.22025 4.30906 4.12078 4.23091C4.02132 4.15276 3.97158 4.0379 3.97158 3.88633C3.97158 3.82949 3.9775 3.77265 3.98935 3.71581C4.00119 3.65897 4.01658 3.6045 4.03553 3.5524C4.13026 3.24926 4.35643 2.98283 4.71403 2.75311C5.07165 2.52339 5.53701 2.40853 6.11013 2.40853C6.48905 2.40853 6.83956 2.47366 7.16164 2.60391C7.48372 2.73417 7.74186 2.92481 7.93606 3.17584C8.13026 3.42688 8.22737 3.73712 8.22737 4.10657C8.22737 4.50444 8.12435 4.81942 7.91831 5.05151C7.71227 5.28361 7.44821 5.50622 7.12611 5.71937C6.89403 5.87094 6.72233 6.01303 6.61102 6.14566C6.49971 6.27828 6.44405 6.43932 6.44405 6.62878C6.44405 6.64299 6.44405 6.6572 6.44405 6.67141C6.44405 6.68562 6.44405 6.69746 6.44405 6.70693C6.44405 6.83956 6.39669 6.95205 6.30196 7.04441C6.20723 7.13678 6.07461 7.18296 5.90409 7.18296ZM5.88988 9.16523C5.69568 9.16523 5.52753 9.09771 5.38544 8.96268C5.24335 8.8277 5.1723 8.66549 5.1723 8.47604C5.1723 8.28183 5.24216 8.11724 5.38189 7.98226C5.52162 7.84728 5.69095 7.77979 5.88988 7.77979C6.08408 7.77979 6.25104 7.84728 6.39077 7.98226C6.5305 8.11724 6.60036 8.28183 6.60036 8.47604C6.60036 8.67024 6.52932 8.83364 6.38722 8.96625C6.24512 9.0989 6.07934 9.16523 5.88988 9.16523Z" fill="black" fill-opacity="0.85"/>
<rect x="3.46729" y="1.56152" width="5.82025" height="8.73038" fill="#242526"/>
</g>
<defs>
<clipPath id="clip0_43_811">
<rect width="17.4423" height="11.5453" fill="white"/>
</clipPath>
</defs>
</svg>
