<svg width="40" height="40" viewBox="0 0 40 40" fill="none" xmlns="http://www.w3.org/2000/svg">
<path d="M11.3633 36.6667V31.9051C10.8667 26.9434 5 24.2867 5 16.6667C5 9.05005 9.545 3.24005 18.6367 3.33338C25.1817 3.40338 31.3633 7.14338 31.3633 14.7634L35 20.4767C35 24.2867 31.3633 24.2867 31.3633 24.2867C31.3633 24.2867 32.2733 33.81 24.09 33.81V36.6667" stroke="#E7E7E7" stroke-width="1.875" stroke-linecap="round" stroke-linejoin="round"/>
<path d="M18.3333 20.0002C19.2174 20.0002 20.0652 19.649 20.6904 19.0239C21.3155 18.3987 21.6667 17.5509 21.6667 16.6668C21.6667 15.7828 21.3155 14.9349 20.6904 14.3098C20.0652 13.6847 19.2174 13.3335 18.3333 13.3335C17.4493 13.3335 16.6014 13.6847 15.9763 14.3098C15.3512 14.9349 15 15.7828 15 16.6668C15 17.5509 15.3512 18.3987 15.9763 19.0239C16.6014 19.649 17.4493 20.0002 18.3333 20.0002Z" stroke="#E7E7E7" stroke-width="1.875" stroke-linecap="round" stroke-linejoin="round"/>
<path d="M18.3335 21.6667C19.6596 21.6667 20.9313 21.14 21.869 20.2023C22.8067 19.2646 23.3335 17.9928 23.3335 16.6667C23.3335 15.3407 22.8067 14.0689 21.869 13.1312C20.9313 12.1935 19.6596 11.6667 18.3335 11.6667C17.0074 11.6667 15.7356 12.1935 14.798 13.1312C13.8603 14.0689 13.3335 15.3407 13.3335 16.6667C13.3335 17.9928 13.8603 19.2646 14.798 20.2023C15.7356 21.14 17.0074 21.6667 18.3335 21.6667Z" stroke="#E7E7E7" stroke-width="1.875" stroke-linecap="round" stroke-linejoin="round"/>
<circle cx="18" cy="19" r="5" fill="#FF6240" stroke="#1C1729" stroke-width="2"/>
</svg>
