<svg width="13" height="16" viewBox="0 0 13 16" fill="none" xmlns="http://www.w3.org/2000/svg">
<g clip-path="url(#clip0_43_819)">
<path d="M0.917113 7.40256C0.917113 8.32643 1.12219 9.14657 1.53234 9.86298C1.94249 10.5794 2.51441 11.1533 3.24809 11.5846C3.98178 12.0159 4.8352 12.2693 5.80836 12.3447V13.9921H2.97296C2.80992 13.9921 2.67235 14.0439 2.56026 14.1476C2.44817 14.2513 2.39213 14.3786 2.39213 14.5294C2.39213 14.6755 2.44817 14.8004 2.56026 14.9041C2.67235 15.0078 2.80992 15.0597 2.97296 15.0597H9.79776C9.9608 15.0597 10.0984 15.0078 10.2105 14.9041C10.3226 14.8004 10.3786 14.6755 10.3786 14.5294C10.3786 14.3786 10.3226 14.2513 10.2105 14.1476C10.0984 14.0439 9.9608 13.9921 9.79776 13.9921H6.96238V12.3447C7.39546 12.3164 7.80435 12.2492 8.18905 12.1432C8.57372 12.0371 8.93163 11.8969 9.26277 11.7225L8.44503 10.9589C8.14952 11.0909 7.82981 11.1922 7.4859 11.2629C7.14199 11.3336 6.77642 11.369 6.38919 11.369C5.51794 11.369 4.75878 11.2028 4.11171 10.8705C3.46463 10.5382 2.96277 10.0704 2.60612 9.4671C2.24946 8.86377 2.07113 8.16145 2.07113 7.36013V5.9673C2.07113 5.82118 2.01509 5.69627 1.903 5.59258C1.79091 5.48888 1.65335 5.43704 1.4903 5.43704C1.33236 5.43704 1.19734 5.48888 1.08525 5.59258C0.973158 5.69627 0.917113 5.82118 0.917113 5.9673V7.40256ZM10.4321 8.85902L11.3263 9.68626C11.6779 9.00281 11.8536 8.24157 11.8536 7.40256V5.9673C11.8536 5.82118 11.7976 5.69627 11.6855 5.59258C11.5734 5.48888 11.4384 5.43704 11.2805 5.43704C11.1174 5.43704 10.9798 5.48888 10.8677 5.59258C10.7557 5.69627 10.6996 5.82118 10.6996 5.9673V7.36013C10.6996 7.89748 10.6105 8.39711 10.4321 8.85902ZM6.38919 9.84887C6.65923 9.84887 6.90379 9.81117 7.12288 9.73578L3.83657 6.69554V7.28947C3.83657 7.79381 3.94357 8.23805 4.15756 8.6222C4.37156 9.00635 4.66962 9.30684 5.05174 9.52365C5.43387 9.74046 5.87969 9.84887 6.38919 9.84887ZM6.38919 0C6.8936 0 7.33815 0.108411 7.72282 0.325232C8.10752 0.542054 8.40557 0.842541 8.61697 1.22669C8.82843 1.61084 8.93416 2.05509 8.93416 2.55944V7.28947C8.93416 7.31776 8.93288 7.3472 8.93032 7.3778C8.92777 7.40845 8.9214 7.43555 8.91123 7.4591L3.83657 2.76447V2.48166C3.84677 1.99146 3.96013 1.56017 4.17666 1.1878C4.3932 0.815436 4.68999 0.524378 5.06703 0.314627C5.44406 0.104876 5.88479 0 6.38919 0ZM11.9988 13.0447C12.1109 13.1483 12.2498 13.2002 12.4154 13.2002C12.5809 13.2002 12.7198 13.1483 12.8319 13.0447C12.944 12.9362 13 12.8066 13 12.6558C13 12.505 12.944 12.3777 12.8319 12.274L1.00882 1.34335C0.891632 1.23965 0.751518 1.1878 0.588478 1.1878C0.425437 1.1878 0.285323 1.23965 0.168137 1.34335C0.0560456 1.44705 0 1.57667 0 1.73222C0 1.88776 0.0560456 2.01502 0.168137 2.11401L11.9988 13.0447Z" fill="white" fill-opacity="0.85"/>
</g>
<defs>
<clipPath id="clip0_43_819">
<rect width="13" height="16" fill="white"/>
</clipPath>
</defs>
</svg>
