<svg width="40" height="40" viewBox="0 0 40 40" fill="none" xmlns="http://www.w3.org/2000/svg">
<path d="M34.65 10.8845L20.9 3.35634C20.6241 3.20536 20.3146 3.12622 20 3.12622C19.6854 3.12622 19.3759 3.20536 19.1 3.35634L5.35 10.8845C5.05503 11.0459 4.80889 11.2836 4.63735 11.5728C4.46582 11.862 4.3752 12.192 4.375 12.5282V27.472C4.3752 27.8082 4.46582 28.1382 4.63735 28.4274C4.80889 28.7166 5.05503 28.9543 5.35 29.1157L19.1 36.6438C19.3757 36.7955 19.6853 36.8751 20 36.8751C20.3147 36.8751 20.6243 36.7955 20.9 36.6438L34.65 29.1157C34.945 28.9543 35.1911 28.7166 35.3626 28.4274C35.5342 28.1382 35.6248 27.8082 35.625 27.472V12.5282C35.6248 12.192 35.5342 11.862 35.3626 11.5728C35.1911 11.2836 34.945 11.0459 34.65 10.8845ZM19.7 4.45322C19.7917 4.40204 19.895 4.37517 20 4.37517C20.105 4.37517 20.2083 4.40204 20.3 4.45322L33.8547 11.8751L20 19.4563L6.14531 11.8751L19.7 4.45322ZM5.95 28.0204C5.8516 27.9666 5.7695 27.8872 5.71232 27.7907C5.65513 27.6942 5.62497 27.5841 5.625 27.472V13.0142L19.375 20.5392V35.3688L5.95 28.0204ZM34.05 28.0204L20.625 35.3642V20.5392L34.375 13.0142V27.472C34.3747 27.5839 34.3445 27.6937 34.2873 27.7898C34.2301 27.886 34.1482 27.9651 34.05 28.0188V28.0204Z" fill="#E7E7E7"/>
<circle cx="20" cy="20" r="5" fill="#FF6240" stroke="#1C1729" stroke-width="2"/>
</svg>
