<svg width="11" height="12" viewBox="0 0 11 12" fill="none" xmlns="http://www.w3.org/2000/svg">
<g clip-path="url(#clip0_43_825)">
<path d="M0.181217 11.8024C0.264438 11.8881 0.359218 11.946 0.465556 11.9763C0.571894 12.0065 0.678232 12.0065 0.784571 11.9763C0.890909 11.946 0.983376 11.8881 1.06197 11.8024L5.50043 6.96386L9.93889 11.8024C10.0175 11.8881 10.1099 11.946 10.2163 11.9763C10.3226 12.0065 10.4301 12.0078 10.5388 11.98C10.6474 11.9523 10.741 11.8931 10.8196 11.8024C10.8983 11.7167 10.9503 11.6159 10.9757 11.5C11.0011 11.3841 11.0011 11.2682 10.9757 11.1522C10.9503 11.0363 10.8983 10.9355 10.8196 10.8498L6.38119 6.00372L10.8196 1.1652C10.8983 1.07951 10.9514 0.978714 10.9792 0.862796C11.0069 0.74687 11.0069 0.630946 10.9792 0.515023C10.9514 0.3991 10.8983 0.298297 10.8196 0.212615C10.7364 0.121893 10.6417 0.0626714 10.5353 0.0349507C10.429 0.00722998 10.3226 0.00722998 10.2163 0.0349507C10.1099 0.0626714 10.0175 0.121893 9.93889 0.212615L5.50043 5.05114L1.06197 0.212615C0.983376 0.121893 0.889754 0.0626714 0.781105 0.0349507C0.672454 0.00722998 0.564959 0.00722998 0.458621 0.0349507C0.352283 0.0626714 0.259815 0.121893 0.181217 0.212615C0.102619 0.298297 0.0506061 0.3991 0.0251774 0.515023C-0.000251278 0.630946 -0.000251278 0.74687 0.0251774 0.862796C0.0506061 0.978714 0.102619 1.07951 0.181217 1.1652L4.61968 6.00372L0.181217 10.8498C0.102619 10.9355 0.0494503 11.0363 0.0217099 11.1522C-0.00603051 11.2682 -0.00718638 11.3841 0.0182423 11.5C0.043671 11.6159 0.0979959 11.7167 0.181217 11.8024Z" fill="white"/>
</g>
<defs>
<clipPath id="clip0_43_825">
<rect width="11" height="12" fill="white"/>
</clipPath>
</defs>
</svg>
