<svg width="149" height="36" viewBox="0 0 149 36" fill="none" xmlns="http://www.w3.org/2000/svg">
<path d="M15.1279 27.6163H13V10.8721H15.9836L26.1026 22.3721V10.8721H28.2189V27.6163H25.2352L15.1279 16.1279V27.6163Z" fill="#9CA8BB"/>
<path d="M35.7011 10.9419C35.7011 11.2364 35.6433 11.5155 35.5276 11.7791C35.4197 12.0426 35.2694 12.2713 35.0766 12.4651C34.8839 12.6589 34.6565 12.814 34.3943 12.9302C34.1322 13.0388 33.8546 13.093 33.5617 13.093C33.2687 13.093 32.9912 13.0388 32.729 12.9302C32.4746 12.814 32.251 12.6589 32.0583 12.4651C31.8656 12.2713 31.7114 12.0426 31.5957 11.7791C31.4878 11.5155 31.4338 11.2364 31.4338 10.9419C31.4338 10.6473 31.4878 10.3721 31.5957 10.1163C31.7114 9.85271 31.8656 9.62403 32.0583 9.43023C32.251 9.23643 32.4746 9.08527 32.729 8.97674C32.9912 8.86047 33.2687 8.80233 33.5617 8.80233C33.8546 8.80233 34.1322 8.86047 34.3943 8.97674C34.6565 9.08527 34.8839 9.23643 35.0766 9.43023C35.2694 9.62403 35.4197 9.85271 35.5276 10.1163C35.6433 10.3721 35.7011 10.6473 35.7011 10.9419ZM35.5276 27.6163H31.6073V14.1977H35.5276V27.6163Z" fill="#9CA8BB"/>
<path d="M50.3071 23.3256C50.3071 23.9147 50.2223 24.438 50.0527 24.8953C49.883 25.3527 49.6517 25.7519 49.3588 26.093C49.0658 26.4264 48.7189 26.7093 48.318 26.9419C47.9171 27.1667 47.4853 27.3488 47.0228 27.4884C46.5679 27.6279 46.0899 27.7287 45.5888 27.7907C45.0876 27.8527 44.5904 27.8837 44.0969 27.8837C43.4339 27.8837 42.848 27.8411 42.3391 27.7558C41.8303 27.6705 41.3446 27.5349 40.882 27.3488C40.4194 27.155 39.9568 26.907 39.4943 26.6047C39.0394 26.3023 38.5306 25.9341 37.9678 25.5L40.246 23.6279C40.4541 24.0233 40.7278 24.3837 41.067 24.7093C41.414 25.0271 41.7725 25.3023 42.1425 25.5349C42.5126 25.7674 42.8711 25.9457 43.218 26.0698C43.565 26.1938 43.8464 26.2558 44.0622 26.2558C44.2396 26.2558 44.44 26.2519 44.6636 26.2442C44.8872 26.2287 45.1146 26.2054 45.3459 26.1744C45.5772 26.1357 45.8046 26.0814 46.0282 26.0116C46.2518 25.9419 46.4484 25.8488 46.618 25.7326C46.7953 25.6085 46.9341 25.4574 47.0343 25.2791C47.1423 25.093 47.1962 24.8721 47.1962 24.6163C47.1962 24.3527 47.1268 24.124 46.9881 23.9302C46.857 23.7287 46.6835 23.5543 46.4677 23.407C46.2518 23.2597 46.0051 23.1357 45.7275 23.0349C45.45 22.9341 45.1686 22.845 44.8833 22.7674C44.6058 22.6899 44.3359 22.624 44.0738 22.5698C43.8117 22.5078 43.5842 22.4496 43.3915 22.3953C43.0369 22.2946 42.6629 22.1938 42.2697 22.093C41.8766 21.9845 41.4872 21.8643 41.1017 21.7326C40.7162 21.593 40.3462 21.4302 39.9915 21.2442C39.6446 21.0581 39.3362 20.8372 39.0664 20.5814C38.8042 20.3178 38.5922 20.0116 38.4303 19.6628C38.2761 19.3062 38.199 18.8915 38.199 18.4186C38.199 17.5504 38.3687 16.8256 38.7079 16.2442C39.0548 15.655 39.5097 15.186 40.0725 14.8372C40.6353 14.4806 41.2752 14.2287 41.9922 14.0814C42.7092 13.9341 43.4378 13.8605 44.1779 13.8605C44.6867 13.8605 45.2225 13.9147 45.7854 14.0233C46.3482 14.124 46.8955 14.2791 47.4275 14.4884C47.9595 14.6899 48.4567 14.938 48.9193 15.2326C49.3819 15.5271 49.7674 15.8643 50.0758 16.2442L47.7976 18.1279C47.628 17.6628 47.4044 17.2636 47.1268 16.9302C46.857 16.5969 46.5602 16.3256 46.2364 16.1163C45.9203 15.8992 45.5926 15.7403 45.2534 15.6395C44.9219 15.5388 44.6135 15.4884 44.3282 15.4884C44.0507 15.4884 43.7384 15.5 43.3915 15.5233C43.0446 15.5465 42.7169 15.6124 42.4085 15.7209C42.1078 15.8295 41.8496 15.9961 41.6337 16.2209C41.4255 16.438 41.3215 16.7403 41.3215 17.1279C41.3215 17.407 41.3831 17.6473 41.5065 17.8488C41.6376 18.0426 41.8072 18.2132 42.0153 18.3605C42.2235 18.5 42.4586 18.6202 42.7208 18.7209C42.9906 18.814 43.2643 18.8992 43.5418 18.9767C43.8194 19.0465 44.0892 19.1085 44.3514 19.1628C44.6135 19.2171 44.8486 19.2752 45.0568 19.3372C45.4114 19.438 45.7854 19.5426 46.1785 19.6512C46.5794 19.7519 46.9726 19.8721 47.3581 20.0116C47.7436 20.1434 48.1137 20.3023 48.4683 20.4884C48.8307 20.6667 49.1468 20.8876 49.4166 21.1512C49.6864 21.4147 49.9023 21.7248 50.0642 22.0814C50.2261 22.4302 50.3071 22.845 50.3071 23.3256Z" fill="#9CA8BB"/>
<path d="M65.1096 17.5116L63.4212 18.186C63.1514 17.3333 62.7004 16.6783 62.0682 16.2209C61.436 15.7636 60.6766 15.5349 59.79 15.5349C59.312 15.5349 58.8841 15.6124 58.5063 15.7674C58.1362 15.9147 57.8086 16.1202 57.5233 16.3837C57.2458 16.6473 57.0068 16.9535 56.8063 17.3023C56.6136 17.6512 56.4555 18.0233 56.3322 18.4186C56.2088 18.814 56.1202 19.2248 56.0662 19.6512C56.0122 20.0698 55.9852 20.4767 55.9852 20.8721C55.9852 21.2984 56.0084 21.7287 56.0546 22.1628C56.1009 22.5969 56.178 23.0155 56.2859 23.4186C56.4016 23.814 56.5519 24.186 56.7369 24.5349C56.922 24.876 57.1533 25.1744 57.4308 25.4302C57.7161 25.686 58.0514 25.8876 58.4369 26.0349C58.8301 26.1822 59.2811 26.2558 59.79 26.2558C60.1986 26.2558 60.5879 26.1938 60.958 26.0698C61.328 25.9457 61.6673 25.7713 61.9756 25.5465C62.284 25.3217 62.5577 25.0543 62.7967 24.7442C63.0357 24.4341 63.2246 24.0891 63.3634 23.7093L65.0634 24.3372C64.809 24.9496 64.4697 25.4806 64.0457 25.9302C63.6294 26.3721 63.1552 26.7403 62.6233 27.0349C62.0913 27.3217 61.5208 27.5349 60.9117 27.6744C60.3027 27.814 59.6859 27.8837 59.0614 27.8837C58.0514 27.8837 57.1147 27.7132 56.2512 27.3721C55.3877 27.0233 54.6399 26.5388 54.0077 25.9186C53.3832 25.2907 52.8937 24.5504 52.539 23.6977C52.1844 22.8372 52.0071 21.8953 52.0071 20.8721C52.0071 19.8411 52.1805 18.8953 52.5275 18.0349C52.8821 17.1744 53.3717 16.4341 53.9961 15.814C54.6206 15.1938 55.3646 14.7132 56.2281 14.3721C57.0916 14.031 58.036 13.8605 59.0614 13.8605C59.709 13.8605 60.3412 13.9341 60.958 14.0814C61.5747 14.2209 62.1453 14.4419 62.6695 14.7442C63.2015 15.0388 63.6756 15.4147 64.092 15.8721C64.516 16.3295 64.8552 16.876 65.1096 17.5116Z" fill="#9CA8BB"/>
<path d="M80.872 27.6163H76.9632V26.0116C76.5007 26.6473 75.9417 27.1202 75.2864 27.4302C74.6388 27.7326 73.9256 27.8837 73.147 27.8837C72.1293 27.8837 71.2195 27.7015 70.4177 27.3372C69.6159 26.9729 68.9375 26.4767 68.3824 25.8488C67.8273 25.2132 67.4033 24.469 67.1103 23.6163C66.8173 22.7636 66.6708 21.8488 66.6708 20.8721C66.6708 19.8953 66.8173 18.9806 67.1103 18.1279C67.4033 17.2752 67.8273 16.5349 68.3824 15.907C68.9375 15.2713 69.6159 14.7713 70.4177 14.407C71.2195 14.0426 72.1293 13.8605 73.147 13.8605C73.6635 13.8605 74.1531 13.938 74.6156 14.093C75.0859 14.2481 75.5138 14.469 75.8993 14.7558C76.2925 15.0349 76.6356 15.376 76.9285 15.7791C77.2292 16.1744 77.4644 16.6163 77.634 17.1047L79.3687 14.186H80.872V27.6163ZM76.9401 20.8721C76.9401 20.5233 76.9208 20.155 76.8823 19.7674C76.8514 19.3798 76.7936 18.9961 76.7088 18.6163C76.624 18.2364 76.5045 17.876 76.3503 17.5349C76.2038 17.186 76.0111 16.8798 75.7721 16.6163C75.5408 16.345 75.2594 16.1318 74.9279 15.9767C74.5964 15.8217 74.2109 15.7442 73.7714 15.7442C73.332 15.7442 72.9504 15.8256 72.6266 15.9884C72.3027 16.1434 72.0252 16.3566 71.7939 16.6279C71.5626 16.8915 71.3699 17.1977 71.2157 17.5465C71.0692 17.8953 70.9536 18.2597 70.8687 18.6395C70.7839 19.0194 70.7223 19.4031 70.6837 19.7907C70.6529 20.1705 70.6375 20.531 70.6375 20.8721C70.6375 21.2132 70.6529 21.5775 70.6837 21.9651C70.7223 22.3527 70.7839 22.7364 70.8687 23.1163C70.9536 23.4961 71.0692 23.8605 71.2157 24.2093C71.3699 24.5581 71.5626 24.8682 71.7939 25.1395C72.0252 25.4031 72.3027 25.6163 72.6266 25.7791C72.9504 25.9341 73.332 26.0116 73.7714 26.0116C74.1723 26.0116 74.527 25.9302 74.8354 25.7674C75.1515 25.5969 75.4252 25.3721 75.6564 25.093C75.8955 24.814 76.0959 24.4961 76.2578 24.1395C76.4197 23.7829 76.5508 23.4147 76.651 23.0349C76.7512 22.655 76.8245 22.2791 76.8707 21.907C76.917 21.5271 76.9401 21.1822 76.9401 20.8721Z" fill="#9CA8BB"/>
<path d="M88.0536 27.6163H84.1448V8H85.6482L88.0536 12.0814V27.6163Z" fill="#9CA8BB"/>
<path d="M104.764 27.6163H100.855V26.0116C100.393 26.6473 99.834 27.1202 99.1786 27.4302C98.531 27.7326 97.8179 27.8837 97.0392 27.8837C96.0215 27.8837 95.1118 27.7015 94.31 27.3372C93.5082 26.9729 92.8297 26.4767 92.2746 25.8488C91.7195 25.2132 91.2955 24.469 91.0025 23.6163C90.7096 22.7636 90.5631 21.8488 90.5631 20.8721C90.5631 19.8953 90.7096 18.9806 91.0025 18.1279C91.2955 17.2752 91.7195 16.5349 92.2746 15.907C92.8297 15.2713 93.5082 14.7713 94.31 14.407C95.1118 14.0426 96.0215 13.8605 97.0392 13.8605C97.5558 13.8605 98.0453 13.938 98.5079 14.093C98.9782 14.2481 99.4061 14.469 99.7916 14.7558C100.185 15.0349 100.528 15.376 100.821 15.7791C101.121 16.1744 101.357 16.6163 101.526 17.1047L103.261 14.186H104.764V27.6163ZM100.832 20.8721C100.832 20.5233 100.813 20.155 100.775 19.7674C100.744 19.3798 100.686 18.9961 100.601 18.6163C100.516 18.2364 100.397 17.876 100.243 17.5349C100.096 17.186 99.9034 16.8798 99.6643 16.6163C99.4331 16.345 99.1517 16.1318 98.8201 15.9767C98.4886 15.8217 98.1031 15.7442 97.6637 15.7442C97.2242 15.7442 96.8426 15.8256 96.5188 15.9884C96.195 16.1434 95.9174 16.3566 95.6862 16.6279C95.4549 16.8915 95.2621 17.1977 95.1079 17.5465C94.9614 17.8953 94.8458 18.2597 94.761 18.6395C94.6762 19.0194 94.6145 19.4031 94.576 19.7907C94.5451 20.1705 94.5297 20.531 94.5297 20.8721C94.5297 21.2132 94.5451 21.5775 94.576 21.9651C94.6145 22.3527 94.6762 22.7364 94.761 23.1163C94.8458 23.4961 94.9614 23.8605 95.1079 24.2093C95.2621 24.5581 95.4549 24.8682 95.6862 25.1395C95.9174 25.4031 96.195 25.6163 96.5188 25.7791C96.8426 25.9341 97.2242 26.0116 97.6637 26.0116C98.0646 26.0116 98.4192 25.9302 98.7276 25.7674C99.0437 25.5969 99.3174 25.3721 99.5487 25.093C99.7877 24.814 99.9882 24.4961 100.15 24.1395C100.312 23.7829 100.443 23.4147 100.543 23.0349C100.643 22.655 100.717 22.2791 100.763 21.907C100.809 21.5271 100.832 21.1822 100.832 20.8721Z" fill="#9CA8BB"/>
<path d="M111.83 25.8721C111.83 26.1667 111.776 26.4457 111.668 26.7093C111.56 26.9651 111.41 27.1899 111.217 27.3837C111.025 27.5698 110.801 27.7171 110.547 27.8256C110.292 27.9419 110.018 28 109.725 28C109.432 28 109.159 27.9419 108.904 27.8256C108.65 27.7171 108.426 27.5698 108.234 27.3837C108.041 27.1899 107.891 26.9651 107.783 26.7093C107.675 26.4457 107.621 26.1667 107.621 25.8721C107.621 25.5853 107.675 25.314 107.783 25.0581C107.891 24.7946 108.041 24.5698 108.234 24.3837C108.426 24.1899 108.65 24.0388 108.904 23.9302C109.159 23.814 109.432 23.7558 109.725 23.7558C110.018 23.7558 110.292 23.814 110.547 23.9302C110.801 24.0388 111.025 24.1899 111.217 24.3837C111.41 24.5698 111.56 24.7946 111.668 25.0581C111.776 25.314 111.83 25.5853 111.83 25.8721Z" fill="#9CA8BB"/>
<path d="M118.78 10.9419C118.78 11.2364 118.723 11.5155 118.607 11.7791C118.499 12.0426 118.349 12.2713 118.156 12.4651C117.963 12.6589 117.736 12.814 117.474 12.9302C117.212 13.0388 116.934 13.093 116.641 13.093C116.348 13.093 116.071 13.0388 115.808 12.9302C115.554 12.814 115.33 12.6589 115.138 12.4651C114.945 12.2713 114.791 12.0426 114.675 11.7791C114.567 11.5155 114.513 11.2364 114.513 10.9419C114.513 10.6473 114.567 10.3721 114.675 10.1163C114.791 9.85271 114.945 9.62403 115.138 9.43023C115.33 9.23643 115.554 9.08527 115.808 8.97674C116.071 8.86047 116.348 8.80233 116.641 8.80233C116.934 8.80233 117.212 8.86047 117.474 8.97674C117.736 9.08527 117.963 9.23643 118.156 9.43023C118.349 9.62403 118.499 9.85271 118.607 10.1163C118.723 10.3721 118.78 10.6473 118.78 10.9419ZM118.607 27.6163H114.687V14.1977H118.607V27.6163Z" fill="#9CA8BB"/>
<path d="M136 20.8721C136 21.5698 135.907 22.2248 135.722 22.8372C135.537 23.4496 135.279 24.0155 134.948 24.5349C134.624 25.0543 134.231 25.5233 133.768 25.9419C133.305 26.3527 132.797 26.7015 132.242 26.9884C131.694 27.2752 131.104 27.4961 130.472 27.6512C129.848 27.8062 129.204 27.8837 128.541 27.8837C127.878 27.8837 127.234 27.8062 126.61 27.6512C125.985 27.4961 125.395 27.2752 124.84 26.9884C124.293 26.7015 123.788 26.3527 123.325 25.9419C122.863 25.5233 122.466 25.0543 122.134 24.5349C121.81 24.0155 121.556 23.4496 121.371 22.8372C121.186 22.2171 121.093 21.562 121.093 20.8721C121.093 20.1822 121.186 19.531 121.371 18.9186C121.556 18.2984 121.81 17.7287 122.134 17.2093C122.466 16.6899 122.863 16.2248 123.325 15.814C123.788 15.3953 124.293 15.0426 124.84 14.7558C125.395 14.469 125.985 14.2481 126.61 14.093C127.234 13.938 127.878 13.8605 128.541 13.8605C129.204 13.8605 129.848 13.938 130.472 14.093C131.104 14.2481 131.694 14.469 132.242 14.7558C132.797 15.0426 133.305 15.3953 133.768 15.814C134.231 16.2248 134.624 16.6899 134.948 17.2093C135.279 17.7287 135.537 18.2984 135.722 18.9186C135.907 19.531 136 20.1822 136 20.8721ZM132.022 20.8721C132.022 20.5 131.999 20.1085 131.952 19.6977C131.914 19.2791 131.844 18.8721 131.744 18.4767C131.644 18.0736 131.505 17.6899 131.328 17.3256C131.158 16.9535 130.946 16.6318 130.692 16.3605C130.437 16.0814 130.133 15.8605 129.778 15.6977C129.424 15.5271 129.011 15.4419 128.541 15.4419C128.094 15.4419 127.697 15.5271 127.35 15.6977C127.003 15.8682 126.698 16.0969 126.436 16.3837C126.182 16.6628 125.966 16.9884 125.789 17.3605C125.619 17.7326 125.48 18.1202 125.372 18.5233C125.264 18.9186 125.187 19.3217 125.141 19.7326C125.095 20.1357 125.072 20.5155 125.072 20.8721C125.072 21.2287 125.095 21.6124 125.141 22.0233C125.187 22.4264 125.264 22.8295 125.372 23.2326C125.48 23.6357 125.619 24.0233 125.789 24.3953C125.966 24.7597 126.182 25.0853 126.436 25.3721C126.698 25.6512 127.003 25.876 127.35 26.0465C127.697 26.2171 128.094 26.3023 128.541 26.3023C129.003 26.3023 129.412 26.2209 129.767 26.0581C130.121 25.8876 130.426 25.6628 130.68 25.3837C130.942 25.1047 131.158 24.7829 131.328 24.4186C131.498 24.0543 131.632 23.6705 131.733 23.2674C131.841 22.8643 131.914 22.4574 131.952 22.0465C131.999 21.6357 132.022 21.2442 132.022 20.8721Z" fill="#9CA8BB"/>
</svg>
