<svg width="150" height="36" viewBox="0 0 150 36" fill="none" xmlns="http://www.w3.org/2000/svg">
<path d="M23.3149 26C16.8903 26 13.2001 24.5377 13 20.5536H18.4242C18.4242 21.6556 19.6246 22.3974 23.0926 22.3974C26.6272 22.3974 27.2941 21.9311 27.2941 21.1258C27.2941 20.1934 26.6939 20.0026 22.8258 19.7695L22.0477 19.7272C15.9344 19.3881 13.2445 17.947 13.2445 14.6834C13.2445 11.5682 16.7347 10 22.2256 10C28.4945 10 31.8513 11.8225 32.0514 15.1921H26.6272C26.6272 14.0265 25.1822 13.6026 22.1811 13.6026C19.3579 13.6026 18.6687 14.0265 18.6687 14.6834C18.6687 15.4675 19.2689 15.7642 22.848 15.9974L23.7595 16.0609C29.2059 16.4636 32.7183 17.0146 32.7183 20.9351C32.7183 24.7709 29.2059 26 23.3149 26Z" fill="#9CA8BB"/>
<path d="M33.1245 25.5762L41.3053 10.3603H47.9744L56.1329 25.5762H50.5531L49.1526 22.7576H40.1048L38.6821 25.5762H33.1245ZM41.8833 19.1762H47.3519L44.6176 13.7298L41.8833 19.1762Z" fill="#9CA8BB"/>
<path d="M57.9 25.5762V10.3603H66.0585L70.7936 19.8331L75.5064 10.3603H83.6427V25.5762H78.4186V15.0861L73.2167 25.5762H68.3483L63.1241 15.0861V25.5762H57.9Z" fill="#9CA8BB"/>
<path d="M85.8564 14.5563V10.3603H104.841V14.5563H97.9719V25.5762H92.7478V14.5563H85.8564Z" fill="#9CA8BB"/>
<path d="M107.028 25.5762V10.3603H112.252V25.5762H107.028Z" fill="#9CA8BB"/>
<path d="M121.75 25.5762L113.992 10.3603H119.549L125.485 22.2066L131.42 10.3603H137L129.197 25.5762H121.75Z" fill="#9CA8BB"/>
</svg>
