<svg width="112" height="36" viewBox="0 0 112 36" fill="none" xmlns="http://www.w3.org/2000/svg">
<path d="M42 14.787H29.213L37.3137 6.68631L35.0419 4.41427L26.0001 13.4563V2H22.787V14.787L14.6863 6.68631L12.4143 8.95808L21.4563 18.0001H10V21.213H22.787L14.6863 29.3137L16.9581 31.5857L26.0001 22.5439V34H29.213V21.213L37.3137 29.3137L39.5857 27.0419L30.5439 18.0001H42V14.787Z" fill="#9CA8BB"/>
<path d="M50 26V10H52.9489V26H50Z" fill="#9CA8BB"/>
<path d="M56.6406 26V10H72.0012V12.3244H59.5895V16.9055H71.561V19.0719H59.5895V23.653H72.0012V26H56.6406Z" fill="#9CA8BB"/>
<path d="M74.7092 26L83.3577 10H87.0988L95.7034 26H92.5565L90.6419 22.3441H79.7927L77.8781 26H74.7092ZM80.981 20.0874H89.4535L85.2283 11.9859L80.981 20.0874Z" fill="#9CA8BB"/>
<path d="M98.545 26V23.2243H102V26H98.545Z" fill="#9CA8BB"/>
</svg>
