<svg width="124" height="36" viewBox="0 0 124 36" fill="none" xmlns="http://www.w3.org/2000/svg">
<path d="M20 17.9999C20 16.0374 21.6963 14.4044 24.3086 13.562C25.1042 10.7961 26.6464 9 28.5001 9C30.3538 9 31.8958 10.7961 32.6914 13.562C35.3037 14.4044 37 16.0376 37 17.9999C37 19.9622 35.3037 21.5956 32.6914 22.438C31.8958 25.2041 30.3536 27 28.5001 27C26.6466 27 25.1044 25.2039 24.3086 22.438C21.6961 21.5956 20 19.9626 20 17.9999ZM28.5001 11.2163C27.9383 11.2163 27.2654 11.867 26.7341 13.046C27.3007 12.9802 27.8908 12.9459 28.5001 12.9459C29.1094 12.9459 29.6995 12.9802 30.2659 13.046C29.7349 11.8668 29.0617 11.2163 28.5001 11.2163ZM25.8198 17.9999C25.8198 18.9564 25.9012 19.8279 26.0394 20.6051C26.7735 20.7514 27.5965 20.8376 28.4999 20.8376C29.4033 20.8376 30.2263 20.7514 30.9604 20.6051C31.0986 19.8279 31.18 18.9564 31.18 17.9999C31.18 17.0433 31.0986 16.1719 30.9604 15.3946C30.2263 15.2484 29.4033 15.1622 28.4999 15.1622C27.5965 15.1622 26.7735 15.2484 26.0394 15.3946C25.9012 16.1719 25.8198 17.0433 25.8198 17.9999ZM34.9068 17.9999C34.9068 17.405 34.2923 16.6925 33.1787 16.1302C33.2409 16.7302 33.2733 17.355 33.2733 17.9999C33.2733 18.6448 33.2409 19.2698 33.1787 19.8698C34.2925 19.3075 34.9068 18.5947 34.9068 17.9999ZM28.5001 24.7837C29.0619 24.7837 29.7349 24.1332 30.2659 22.9539C29.6993 23.0198 29.1092 23.0541 28.5001 23.0541C27.891 23.0541 27.3007 23.0198 26.7341 22.9539C27.2651 24.1332 27.9383 24.7837 28.5001 24.7837ZM23.8213 19.8698C23.7591 19.2698 23.7267 18.6451 23.7267 17.9999C23.7267 17.3547 23.7591 16.7302 23.8213 16.1302C22.7075 16.6925 22.0932 17.405 22.0932 17.9999C22.0932 18.5947 22.7075 19.3073 23.8213 19.8698Z" fill="#9CA8BB"/>
<path d="M53.2135 10.2394V19.9519C53.2135 20.7846 53.1737 21.4995 53.0941 22.0963C53.0217 22.6931 52.8878 23.224 52.6924 23.689C52.497 24.147 52.2509 24.5218 51.9542 24.8133C51.6647 25.0978 51.2811 25.3338 50.8034 25.5211C50.3329 25.7016 49.8046 25.8265 49.2183 25.8959C48.6321 25.9653 47.9228 26 47.0905 26C46.2871 26 45.6031 25.9688 45.0386 25.9063C44.4741 25.8439 43.953 25.7293 43.4753 25.5628C42.9976 25.3893 42.6104 25.1637 42.3136 24.8861C42.0241 24.6016 41.7744 24.2338 41.5645 23.7827C41.3546 23.3247 41.2063 22.7868 41.1194 22.1692C41.0398 21.5515 41 20.8124 41 19.9519V10.2394H43.2039V20.2225C43.2039 20.7985 43.2039 21.2149 43.2039 21.4717C43.2111 21.7285 43.2328 22.0442 43.269 22.419C43.3052 22.7868 43.3522 23.0401 43.4101 23.1789C43.468 23.3108 43.5621 23.4773 43.6924 23.6786C43.8299 23.8799 43.9819 24.0082 44.1484 24.0638C44.3221 24.1123 44.5573 24.1748 44.854 24.2511C45.1508 24.3275 45.4692 24.3726 45.8094 24.3865C46.1568 24.3934 46.5875 24.3969 47.1013 24.3969C47.7093 24.3969 48.2159 24.3795 48.6212 24.3448C49.0338 24.3101 49.392 24.2407 49.696 24.1366C50 24.0325 50.2316 23.9146 50.3908 23.7827C50.5573 23.6439 50.6876 23.4426 50.7817 23.1789C50.883 22.9152 50.9481 22.6411 50.9771 22.3565C51.006 22.072 51.0205 21.6938 51.0205 21.2219L51.0097 10.2394H53.2135Z" fill="#9CA8BB"/>
<path d="M68.608 25.7502H66.3172L58.6092 13.4977V25.7502H56.6767V10.2394H58.9023L66.6755 22.6584V10.2394H68.608V25.7502Z" fill="#9CA8BB"/>
<path d="M74.4922 25.7502H72.2883V10.2394H74.4922V25.7502Z" fill="#9CA8BB"/>
<path d="M87.6828 20.9408L89.5718 21.2115C89.5356 21.8777 89.4741 22.4468 89.3872 22.9187C89.3004 23.3836 89.1701 23.8 88.9964 24.1679C88.8299 24.5357 88.6236 24.8341 88.3776 25.0631C88.1315 25.2852 87.813 25.4691 87.4222 25.6148C87.0386 25.7606 86.6043 25.8612 86.1194 25.9167C85.6417 25.9722 85.0627 26 84.3824 26C83.731 26 83.1484 25.9826 82.6345 25.948C82.1206 25.9202 81.6502 25.8543 81.2232 25.7502C80.8034 25.6391 80.4343 25.535 80.1158 25.4379C79.8046 25.3338 79.5259 25.1637 79.2799 24.9278C79.041 24.6918 78.8384 24.4802 78.6719 24.2928C78.5127 24.1054 78.3752 23.8209 78.2593 23.4392C78.1508 23.0505 78.0676 22.7105 78.0097 22.419C77.9518 22.1275 77.9047 21.7042 77.8685 21.149C77.8396 20.5938 77.8215 20.108 77.8142 19.6916C77.807 19.2752 77.8034 18.6992 77.8034 17.9636C77.8034 17.1863 77.807 16.5617 77.8142 16.0898C77.8215 15.6179 77.8432 15.1043 77.8794 14.5491C77.9156 13.9939 77.959 13.5637 78.0097 13.2583C78.0676 12.9529 78.1544 12.6198 78.2702 12.2589C78.3932 11.8911 78.5308 11.6205 78.6828 11.447C78.8347 11.2665 79.0338 11.0722 79.2799 10.864C79.5259 10.6558 79.7937 10.5136 80.0832 10.4372C80.38 10.3539 80.7382 10.2707 81.158 10.1874C81.5778 10.1041 82.0265 10.052 82.5042 10.0312C82.9891 10.0104 83.5501 10 84.187 10C84.8456 10 85.4065 10.0243 85.8697 10.0729C86.3329 10.1145 86.7672 10.2013 87.1725 10.3331C87.5778 10.458 87.9107 10.6281 88.1713 10.8432C88.4318 11.0514 88.6598 11.3255 88.8552 11.6656C89.0579 12.0056 89.2135 12.4082 89.3221 12.8731C89.4306 13.3312 89.5103 13.8829 89.5609 14.5283L87.661 14.8822C87.6249 14.5283 87.5923 14.2334 87.5633 13.9974C87.5344 13.7614 87.491 13.529 87.4331 13.2999C87.3824 13.0709 87.339 12.887 87.3028 12.7482C87.2738 12.6025 87.2087 12.4637 87.1074 12.3318C87.006 12.193 86.9228 12.0889 86.8577 12.0195C86.7998 11.9501 86.6876 11.8842 86.5211 11.8217C86.3546 11.7593 86.2135 11.7176 86.0977 11.6968C85.9891 11.6691 85.8046 11.6448 85.544 11.6239C85.2907 11.6031 85.07 11.5927 84.8818 11.5927C84.6936 11.5927 84.4186 11.5927 84.0567 11.5927C83.5501 11.5927 83.1339 11.5997 82.8082 11.6135C82.4897 11.6205 82.1677 11.6448 81.842 11.6864C81.5235 11.7211 81.2702 11.7766 81.082 11.853C80.9011 11.9224 80.731 12.0195 80.5718 12.1444C80.4125 12.2624 80.2967 12.4116 80.2244 12.5921C80.1592 12.7656 80.1194 12.9772 80.1049 13.2271C80.0398 15.0592 80.0072 16.9295 80.0072 18.838C80.0072 20.1705 80.0398 21.4717 80.1049 22.7417C80.1411 23.1373 80.2569 23.4461 80.4524 23.6682C80.655 23.8903 81.0422 24.0672 81.614 24.1991C82.193 24.3309 83.0109 24.3969 84.0676 24.3969C84.6321 24.3969 85.1062 24.383 85.4897 24.3552C85.8733 24.3205 86.1954 24.2477 86.456 24.1366C86.7165 24.0187 86.9156 23.9146 87.0531 23.8243C87.1906 23.7272 87.2992 23.5433 87.3788 23.2726C87.4656 23.002 87.5199 22.7764 87.5416 22.596C87.5706 22.4086 87.5995 22.0928 87.6285 21.6487C87.6357 21.5515 87.6393 21.4752 87.6393 21.4196C87.6466 21.3641 87.6538 21.2913 87.661 21.201C87.6683 21.1039 87.6755 21.0171 87.6828 20.9408Z" fill="#9CA8BB"/>
<path d="M104 25.7502H101.764L100.537 21.784H94.5549L93.3715 25.7502H91.2545L96.2159 10.2394H99.158L104 25.7502ZM100.081 20.285L98.7129 15.6318L97.5838 11.8217C97.1641 13.2583 96.7949 14.4936 96.4765 15.5277L95.0217 20.285H100.081Z" fill="#9CA8BB"/>
</svg>
