<svg width="141" height="36" viewBox="0 0 141 36" fill="none" xmlns="http://www.w3.org/2000/svg">
<path d="M15 8H21.7789V28H15V8Z" fill="#9CA8BB"/>
<path d="M25.1684 8H28.5579V28H25.1684V8Z" fill="#9CA8BB"/>
<path d="M47.816 18.65C50.392 18.65 51.68 19.4556 51.68 21.0667C51.68 21.8222 51.5049 22.4667 51.1546 23C50.8044 23.5222 50.1773 23.9333 49.2735 24.2333C48.3696 24.5222 47.1155 24.6667 45.5112 24.6667H37.8849C37.9752 22.5111 38.0204 20.4944 38.0204 18.6167C38.0204 16.7389 37.9752 14.7222 37.8849 12.5667H41.8675V12.5833H45.4773C46.8782 12.5833 47.9798 12.7 48.782 12.9333C49.5955 13.1556 50.166 13.4833 50.4937 13.9167C50.8326 14.35 51.0021 14.9 51.0021 15.5667C51.0021 16.2444 50.7592 16.85 50.2734 17.3833C49.7988 17.9056 48.9797 18.3278 47.816 18.65ZM41.8675 15.6167V17.1667H45.1214C45.8219 17.1667 46.3077 17.1056 46.5788 16.9833C46.8613 16.8611 47.0025 16.6389 47.0025 16.3167C47.0025 16.0611 46.8556 15.8833 46.5619 15.7833C46.2794 15.6722 45.7993 15.6167 45.1214 15.6167H41.8675ZM45.1214 21.6167C45.7089 21.6167 46.1552 21.5944 46.4602 21.55C46.7766 21.4944 47.0025 21.4056 47.1381 21.2833C47.2737 21.15 47.3415 20.9722 47.3415 20.75C47.3415 20.4611 47.1776 20.2556 46.85 20.1333C46.5336 20 45.9574 19.9333 45.1214 19.9333H41.8675V21.6167H45.1214Z" fill="#9CA8BB"/>
<path d="M60.5698 24.8333C57.9825 24.8333 56.0787 24.2833 54.8585 23.1833C53.6383 22.0722 53.0282 20.5167 53.0282 18.5167C53.0282 16.5389 53.6327 14.9944 54.8416 13.8833C56.0618 12.7722 57.9712 12.2167 60.5698 12.2167C63.1797 12.2167 65.0891 12.7722 66.298 13.8833C67.5182 14.9944 68.1283 16.5389 68.1283 18.5167C68.1283 20.5278 67.5238 22.0833 66.3149 23.1833C65.106 24.2833 63.191 24.8333 60.5698 24.8333ZM60.5698 21.4333C61.8239 21.4333 62.7277 21.2 63.2814 20.7333C63.835 20.2556 64.1118 19.5167 64.1118 18.5167C64.1118 17.5389 63.835 16.8111 63.2814 16.3333C62.7277 15.8556 61.8239 15.6167 60.5698 15.6167C59.327 15.6167 58.4288 15.8556 57.8752 16.3333C57.3215 16.8111 57.0447 17.5389 57.0447 18.5167C57.0447 19.5056 57.3215 20.2389 57.8752 20.7167C58.4288 21.1944 59.327 21.4333 60.5698 21.4333Z" fill="#9CA8BB"/>
<path d="M78.3256 24.6667C77.7946 23.7222 76.9133 22.2778 75.6818 20.3333L73.6989 22.2667V24.6667H69.4791C69.5694 22.5111 69.6146 20.4944 69.6146 18.6167C69.6146 16.7389 69.5694 14.7222 69.4791 12.5667H73.6989V17.45C75.7778 15.4278 77.2579 13.8 78.1391 12.5667H83.6301L78.2917 17.7667C79.0825 18.8556 79.9695 20.0389 80.9524 21.3167C81.9466 22.5944 82.8449 23.7111 83.647 24.6667H78.3256Z" fill="#9CA8BB"/>
<path d="M94.8495 15.8833C93.505 15.8167 92.5107 15.7778 91.8667 15.7667V21.4667C92.522 21.4556 93.5163 21.4167 94.8495 21.35V24.6667H85.0031V21.35C86.3024 21.4167 87.291 21.4556 87.9689 21.4667V15.7667C87.291 15.7778 86.3024 15.8167 85.0031 15.8833V12.5667H94.8495V15.8833Z" fill="#9CA8BB"/>
<path d="M110.426 12.5833C110.347 14.4611 110.308 16.4722 110.308 18.6167C110.308 20.7722 110.347 22.7889 110.426 24.6667H104.359L100.258 15.5667L100.563 24.6667H96.2075C96.2979 22.5111 96.3431 20.4944 96.3431 18.6167C96.3431 16.75 96.2979 14.7389 96.2075 12.5833H102.444L106.562 21.9333L106.274 12.5833H110.426Z" fill="#9CA8BB"/>
<path d="M118.763 17.7667H126V24.6667H123.017L122.661 21.7167C122.322 22.7722 121.718 23.5556 120.848 24.0667C119.978 24.5778 118.916 24.8333 117.662 24.8333C116.521 24.8333 115.504 24.5833 114.611 24.0833C113.73 23.5833 113.035 22.8667 112.527 21.9333C112.03 21 111.781 19.9111 111.781 18.6667C111.781 16.6778 112.386 15.1056 113.595 13.95C114.803 12.7944 116.685 12.2167 119.238 12.2167C120.695 12.2167 121.978 12.45 123.085 12.9167C124.204 13.3833 125.153 14.1056 125.932 15.0833C125.424 15.3389 124.43 15.85 122.949 16.6167L122.526 16.85C122.085 16.4167 121.571 16.0944 120.984 15.8833C120.396 15.6611 119.775 15.55 119.119 15.55C118.035 15.55 117.227 15.8333 116.696 16.4C116.165 16.9556 115.899 17.6444 115.899 18.4667C115.899 19.3556 116.182 20.0722 116.747 20.6167C117.323 21.1611 118.199 21.4333 119.374 21.4333C119.882 21.4333 120.373 21.3611 120.848 21.2167C121.334 21.0722 121.741 20.8222 122.068 20.4667H118.763V17.7667Z" fill="#9CA8BB"/>
</svg>
