<svg width="32" height="28" viewBox="0 0 32 28" fill="none" xmlns="http://www.w3.org/2000/svg">
<g id="Group 2916">
<g id="Group">
<path id="Vector" d="M27.4603 24.1151L4.41338 24.277C3.45104 24.2869 2.66769 23.4795 2.67682 22.4918L2.77085 5.6914C2.77348 4.7048 3.57111 3.89128 4.53438 3.88803L27.5813 3.72609C28.5437 3.71618 29.327 4.52363 29.3244 5.51023L29.2304 22.3107C29.2138 23.2927 28.4227 24.1052 27.4603 24.1151Z" fill="#E8B972"/>
</g>
<g id="Group_2">
<path id="Vector_2" d="M29.1842 20.6095L29.1927 12.3219C22.9257 18.6614 11.4693 21.7801 4.44762 23.1616C5.07189 23.8617 5.95484 24.2974 6.92425 24.293L25.7411 24.2548C27.6422 24.2519 29.187 22.613 29.1842 20.6095Z" fill="#D78100" fill-opacity="0.4"/>
</g>
<g id="Group_3">
<path id="Vector_3" d="M29.308 7.74055L29.3132 7.01264L16.4 7.10423L16.4211 3.81203L15.7109 3.81597L15.6898 7.10818L2.77651 7.19978L2.77131 7.92768L15.6846 7.83609L15.6682 10.9712L2.75497 11.0628L2.74977 11.7908L15.663 11.6992L15.6602 11.7268L16.0409 11.6936C16.1727 11.6863 19.2104 11.4626 19.4657 13.8751C19.4666 13.8818 19.5366 14.5773 19.0181 15.1964C18.4653 15.8549 17.4643 16.204 16.0392 16.2262L2.71472 16.3219L2.70952 17.0498L15.6831 16.9622L15.6621 20.1593L2.68849 20.2469L2.68329 20.9748L15.6708 20.8918L15.6497 24.184L16.3599 24.18L16.381 20.8878L29.2283 20.7999L29.2335 20.072L16.3862 20.1599L16.4063 16.9562C17.8629 16.8746 18.9188 16.4421 19.5636 15.6807C20.031 15.1241 20.154 14.527 20.1822 14.1556L29.2734 14.0927L29.2786 13.3648L20.1214 13.4313C19.6978 11.4804 17.6939 10.9693 16.3849 10.9663L16.4031 7.84441L29.308 7.74055Z" fill="#595959"/>
</g>
</g>
</svg>
