<svg width="67" height="66" viewBox="0 0 67 66" fill="none" xmlns="http://www.w3.org/2000/svg">
<circle cx="33" cy="33" r="33" fill="#F447C5"/>
<path d="M63.1451 46.018C62.9236 46.4417 62.5987 46.7358 62.2311 46.8462C61.9111 46.9422 61.5667 46.8984 61.2363 46.719C60.3796 46.2538 60.4568 45.3818 60.8146 44.7211C61.975 42.5809 62.755 40.3118 63.1329 37.9772C63.5029 35.6906 63.4803 33.3884 63.0654 31.1349C62.6498 28.8759 61.8508 26.7195 60.6893 24.7258C59.4997 22.6829 57.9536 20.8525 56.0941 19.2855C51.1095 15.0844 45.2852 13.5384 38.783 14.6895C34.5231 15.4439 30.6757 17.4496 27.6559 20.4888C24.6458 23.5189 22.6786 27.3521 21.9673 31.5748C21.517 34.2502 21.6229 36.9545 22.283 39.6114C22.9183 42.1692 24.0342 44.565 25.5998 46.7334C27.1648 48.9011 29.0931 50.7214 31.331 52.1425C33.6554 53.6195 36.2025 54.5917 38.9017 55.0329C41.5181 55.4602 44.0828 55.4416 46.5246 54.9764C48.9658 54.5119 51.3522 53.5883 53.6164 52.2313C54.0843 51.9511 54.5972 51.9055 55.0244 52.1059C55.4205 52.292 55.6761 52.6575 55.7424 53.1352C55.8197 53.6945 55.6164 54.1038 55.1017 54.4243C52.4037 56.1041 49.4538 57.2036 46.3342 57.6921C45.8231 57.7719 45.2961 57.8422 44.7862 57.91C44.5623 57.9394 44.339 57.9694 44.1151 58H41.0934C40.7971 57.9592 40.4989 57.9214 40.2099 57.8854C39.5339 57.8002 38.895 57.7197 38.2585 57.5985C31.6949 56.3532 26.5284 52.9707 22.9031 47.5442C20.0719 43.3059 18.7369 38.4351 19.0429 33.458C19.3484 28.4948 21.2596 23.8106 24.5703 19.912C24.6293 19.843 24.6823 19.7764 24.7565 19.684C24.796 19.6342 24.8429 19.5759 24.9007 19.5039L25.379 18.9128L24.8131 18.4021C24.6743 18.2766 24.5344 18.1524 24.3945 18.0288C24.092 17.7611 23.8061 17.5084 23.5341 17.242C22.841 16.5608 22.7783 15.8046 23.3655 15.2189C23.6259 14.959 23.9344 14.8216 24.2588 14.821H24.2624C24.6488 14.821 25.0571 15.0136 25.4118 15.3635C25.7063 15.654 25.9887 15.9528 26.2874 16.2685C26.4243 16.4138 26.5618 16.559 26.7012 16.7042L27.2165 17.2426L27.8062 16.784C31.5659 13.8601 35.6938 12.2199 40.4259 11.7686L41.1688 11.6978V7.64915H40.3474C39.9963 7.64915 39.6458 7.65095 39.2954 7.65275C38.5335 7.65755 37.7456 7.66175 36.9777 7.64435C36.4964 7.63295 36.082 7.40189 35.8392 7.00939C35.6031 6.62769 35.5837 6.17398 35.7851 5.76468C36.037 5.25395 36.4039 5.01509 36.9406 5.01269C41.0946 4.99528 44.7704 4.99588 48.1791 5.01389C48.8782 5.01749 49.4313 5.58823 49.4374 6.31261C49.4441 7.0544 48.8916 7.62634 48.1535 7.64315C47.3814 7.66055 46.6202 7.65635 45.8145 7.65215C45.4604 7.65035 45.1044 7.64855 44.7448 7.64855H43.9234V11.6984L44.6676 11.768C47.0881 11.9948 49.4039 12.5548 51.5506 13.4316C53.7004 14.3102 55.7558 15.5369 57.6603 17.0787L58.2475 17.554L58.7738 17.0139C58.9515 16.8315 59.1255 16.6508 59.2977 16.4726C59.6731 16.0825 60.0279 15.714 60.3954 15.3533C60.7446 15.01 61.1505 14.821 61.5387 14.821C61.5417 14.821 61.5442 14.821 61.5472 14.8216C61.8758 14.8234 62.1855 14.962 62.4429 15.2219C63.0039 15.7878 62.9449 16.5728 62.2938 17.2222C61.9202 17.5942 61.5405 17.9669 61.173 18.3282C61.0069 18.4915 60.842 18.6529 60.6789 18.8132L60.1946 19.2903L60.5828 19.846C60.8171 20.1815 61.0568 20.5098 61.2886 20.8267C61.7815 21.5006 62.247 22.1374 62.6394 22.8096C64.8591 26.6121 66.0256 30.4927 66.1065 34.3421C66.1874 38.1812 65.1908 42.1098 63.1451 46.018Z" fill="white"/>
<path d="M48.0644 32.1023C47.4705 33.5703 46.3235 34.7136 44.8334 35.3215C44.1671 35.5934 43.8556 36.0615 43.8817 36.7529C43.8915 37.0026 43.8945 37.3699 43.813 37.6753C43.6444 38.3055 43.0542 38.6722 42.3447 38.59C41.7411 38.5197 41.2452 37.9826 41.216 37.3674C41.2002 37.0374 41.2038 36.7043 41.2081 36.3514C41.2105 36.1876 41.2123 36.0237 41.2123 35.8599V35.0497H41.2075C41.2075 34.8954 41.2081 34.7406 41.2093 34.5876C41.2172 33.6927 41.6857 33.2084 42.6027 33.1484C44.0837 33.0506 45.1187 32.3166 45.5952 31.0257C46.0509 29.7899 45.7862 28.5986 44.8492 27.6714C43.914 26.7448 42.708 26.4765 41.4539 26.9152C40.2467 27.3377 39.4916 28.274 39.3285 29.5511C39.3176 29.6351 39.3084 29.7197 39.2993 29.8043C39.2774 30.0102 39.2567 30.2052 39.2093 30.3547C39.0151 30.9674 38.3817 31.3353 37.7039 31.2297C37.0656 31.1295 36.6007 30.5545 36.6226 29.892C36.7029 27.4752 37.8317 25.7167 39.979 24.6671C41.4107 23.9667 43.0359 23.8779 44.5547 24.4174C46.0917 24.9629 47.3013 26.0678 47.9615 27.5286C48.626 28.9989 48.6625 30.623 48.0644 32.1023Z" fill="white"/>
<path d="M43.8876 44.2614C43.887 44.9882 43.2767 45.6027 42.5545 45.6045C42.2015 45.6045 41.8675 45.4671 41.6119 45.2156C41.3552 44.9624 41.2134 44.6287 41.214 44.2764C41.214 43.9295 41.3527 43.603 41.604 43.357C41.8578 43.1085 42.1949 42.9717 42.5539 42.9717H42.5642C43.2822 42.9771 43.8888 43.5676 43.8876 44.2614Z" fill="white"/>
</svg>
