<svg width="74" height="66" viewBox="0 0 74 66" fill="none" xmlns="http://www.w3.org/2000/svg">
<circle cx="33" cy="33" r="33" fill="#9767F3"/>
<path d="M41.6967 47.3089H41.6956H41.694H41.6925H41.691H41.6894H41.6879H41.6863H41.6848H41.6833H41.6817H41.6802H41.6786H41.6771H41.6756H41.674H41.6725H41.6709H41.6694H41.6679H41.6663H41.6648H41.6632H41.6617H41.6602H41.6586H41.6571H41.6555H41.654H41.6525H41.6509H41.6494H41.6478H41.6463H41.6448H41.6432H41.6417H41.6401H41.6386H41.6371H41.6355H41.634H41.6324H41.6309H41.6294H41.6278H41.6263H41.6247H41.6232H41.6217H41.6201H41.6186H41.617H41.6155H41.6139H41.6124H41.6109H41.6093H41.6078H41.6062H41.6047H41.6031H41.6016H41.6001H41.5985H41.597H41.5954H41.5939H41.5923H41.5908H41.5893H41.5877H41.5862H41.5846H41.5831H41.5815H41.58H41.5785H41.5769H41.5754H41.5738H41.5723H41.5707H41.5692H41.5676H41.5661H41.5646H41.563H41.5615H41.5599H41.5584H41.5568H41.5553H41.5537H41.5522H41.5506H41.5491H41.5476H41.546H41.5445H41.5429H41.5414H41.5398H41.5383H41.5367H41.5352H41.5336H41.5321H41.5305H41.529H41.5274H41.5259H41.5243H41.5228H41.5212H41.5197H41.5181H41.5166H41.515H41.5135H41.5119H41.5104H41.5088H41.5073H41.5057H41.5042H41.5026H41.5011H41.4995H41.498H41.4964H41.4949H41.4933H41.4918H41.4902H41.4887H41.4871H41.4856H41.484H41.4825H41.4809H41.4794H41.4778H41.4762H41.4747H41.4731H41.4716H41.47H41.4685H41.4669H41.4654H41.4638H41.4623H41.4607H41.4591H41.4576H41.456H41.4545H41.4529H41.4514H41.4498H41.4482H41.4467H41.4451H41.4436H41.442H41.4405H41.4389H41.4373H41.4358H41.4342H41.4327H41.4311H41.4295H41.428H41.4264H41.4249H41.4233H41.4217H41.4202H41.4186H41.4171H41.4155H41.4139H41.4124H41.4108H41.4092H41.4077H41.4061H41.4045H41.403H41.4014H41.3999H41.3983H41.3967H41.3952H41.3936H41.392H41.3905H41.3889H41.3873H41.3858H41.3842H41.3826H41.3811H41.3795H41.3779H41.3764H41.3748H41.3732H41.3717H41.3701H41.3685H41.3669H41.3654H41.3638H41.3622H41.3607H41.3591H41.3575H41.3559H41.3544H41.3528H41.3512H41.3497H41.3481H41.3465H41.3449H41.3434H41.3418H41.3402H41.3386H41.3371H41.3355H41.3339H41.3323H41.3308H41.3292H41.3276H41.326H41.3245H41.3229H41.3213H41.3197H41.3181H41.3166H41.315H41.3134H41.3118H41.3102H41.3087H41.3071H41.3055H41.3039H41.3023H41.3008H41.2992H41.2976H41.296H41.2944H41.2928H41.2913H41.2897H41.2881H41.2865H41.2849H41.2833H41.2817H41.2802H41.2786H41.277H41.2754H41.2738H41.2722H41.2706H41.269H41.2674H41.2659H41.2643H41.2627H41.2611H41.2595H41.2579H41.2563H41.2547H41.2531H41.2515H41.2499H41.2484H41.2468H41.2452H41.2436H41.242H41.2404H41.2388H41.2372H41.2356H41.234H41.2324H41.2308H41.2292H41.2276H41.226H41.2244H41.2228H41.2212H41.2196H41.218H41.2164H41.2148H41.2132H41.2116H41.21H41.2084H41.2068H41.2052H41.2036H41.202H41.2004H41.1988H41.1972H41.1956H41.194H41.1924H41.1907H41.1891H41.1875H41.1859H41.1843H41.1827H41.1811H41.1795H41.1779H41.1763H41.1747H41.173H41.1714H41.1698H41.1682H41.1666H41.165H41.1634H41.1618H41.1601H41.1585H41.1569H41.1553H41.1537H41.1521H41.1504H41.1488H41.1472H41.1456H41.144H41.1423H41.1407H41.1391H41.1375H41.1359H41.1342H41.1326H41.131H41.1294H41.1278H41.1261H41.1245H41.1229H41.1213H41.1196H41.118H41.1164H41.1148H41.1131H41.1115H41.1099H41.1082H41.1066H41.105H41.1034H41.1017H41.1001H41.0985H41.0968H41.0952H41.0936H41.0919H41.0903H41.0887H41.087H41.0854H41.0838H41.0821H41.0805H41.0788H41.0772H41.0756H41.0739H41.0723H41.0707H41.069H41.0674H41.0657H41.0641H41.0624H41.0608H41.0592H41.0575H41.0559H41.0542H41.0526H41.0509H41.0493H41.0476H41.046H41.0443H41.0427H41.0411H41.0394H41.0378H41.0361H41.0345H41.0328H41.0312H41.0295H41.0278H41.0262H41.0245H41.0229H41.0212H41.0196H41.0179H41.0163H41.0146H41.0129H41.0113H41.0096H41.008H41.0063H41.0047H41.003H41.0013H40.9997H40.998H40.9963H40.9947H40.993H40.9914H40.9897H40.988H40.9864H40.9847H40.983H40.9814H40.9797H40.978H40.9764H40.9747H40.973H40.9713H40.9697H40.968H40.9663H40.9647H40.963H40.9613H40.9596H40.958H40.9563H40.9546H40.9529H40.9513H40.9496H40.9479H40.9462H40.9445H40.9429H40.9412H40.9395H40.9378H40.9361H40.9344H40.9328H40.9311H40.9294H40.9277H40.926H40.9243H40.9226H40.921H40.9193H40.9176H40.9159H40.9142H40.9125H40.9108H40.9091H40.9074H40.9057H40.904H40.9024H40.9007H40.899H40.8973H40.8956H40.8939H40.8922H40.8905H40.8888H40.8871H40.8854H40.8837H40.882H40.8803V46.8946L40.3811 46.8543C40.3536 46.5254 40.3353 46.2218 40.318 45.9343C40.2833 45.3578 40.2525 44.8466 40.1591 44.3283L40.1591 44.3283C39.8513 42.6192 38.7061 41.5046 37.2744 40.325L37.2744 40.325C34.7691 38.2603 32.9956 35.876 32.0381 33.1928C31.0801 30.508 30.9499 27.5545 31.6844 24.3708C33.6763 15.7379 41.9525 10.7107 50.5967 12.6078L41.6967 47.3089ZM41.6967 47.3089C43.1078 47.3102 44.5188 47.3112 45.9296 47.3122C48.7496 47.3143 51.5693 47.3164 54.3895 47.3201M41.6967 47.3089L54.3895 47.3201M54.3895 47.3201C56.5369 47.3235 58.1259 48.8832 58.1226 50.8835C58.1194 52.8869 56.5395 54.4408 54.3804 54.4475H54.3803C51.7077 54.4562 49.036 54.4577 46.3632 54.4592C45.295 54.4598 44.2266 54.4604 43.158 54.4615C43.1189 54.4615 43.076 54.461 43.0305 54.4606C42.8973 54.4592 42.7418 54.4576 42.5953 54.466M54.3895 47.3201L55.6002 50.8432L56.1002 50.8486C56.0959 51.2481 55.9774 51.6092 55.7233 51.8911C55.4738 52.1679 55.1363 52.3211 54.7782 52.3922L54.7779 52.3922C54.5677 52.4338 54.3359 52.4294 54.177 52.4263C54.1413 52.4257 54.1093 52.4251 54.082 52.4251V51.9251L54.0827 52.4251C52.8671 52.4267 51.6515 52.4274 50.436 52.4281C49.625 52.4285 48.814 52.429 48.0032 52.4297C47.415 52.4303 46.8294 52.4279 46.2453 52.4255C44.9601 52.4202 43.6824 52.4149 42.4015 52.4418C39.939 52.4935 38.3011 54.8339 39.0715 57.1795L39.0715 57.1796C39.5478 58.6305 40.9029 59.5907 42.6781 59.6085M42.5953 54.466C42.5959 54.466 42.5965 54.466 42.597 54.4659L42.6239 54.9652L42.595 54.4661C42.5951 54.4661 42.5952 54.466 42.5953 54.466ZM42.5953 54.466C42.1398 54.4908 41.7198 54.6317 41.4055 54.9077C41.0823 55.1915 40.908 55.5873 40.9093 56.0318L40.9093 56.0326C40.9113 56.4743 41.079 56.8747 41.4096 57.1591C41.7316 57.4361 42.1615 57.5639 42.6274 57.5701C45.8125 57.6131 48.9967 57.6496 52.1818 57.6804C54.3334 57.7013 55.8945 59.2434 55.8863 61.2659C55.8782 63.2579 54.3103 64.8159 52.2097 64.8283C49.9492 64.8419 47.6883 64.8402 45.4259 64.8386C44.8826 64.8382 44.3392 64.8378 43.7957 64.8377H43.7956C43.4809 64.8377 43.2307 64.7929 43.0406 64.7006C42.8641 64.6149 42.7151 64.4771 42.6084 64.2313L42.6083 64.2311C42.4075 63.7692 42.4819 63.4374 42.6855 63.277L42.6858 63.2768C43.0164 63.0159 43.4933 62.8274 43.8732 62.8189C43.8734 62.8189 43.8735 62.8189 43.8737 62.8189L43.8626 62.319M43.8626 62.319C45.8171 62.2776 47.773 62.2805 49.7289 62.2835C50.4678 62.2846 51.2066 62.2857 51.9454 62.2844V62.7844C51.9694 62.7844 51.9983 62.785 52.0311 62.7857C52.1903 62.7892 52.4408 62.7946 52.6627 62.7401L52.6633 62.7399C53.0047 62.6555 53.3107 62.485 53.5316 62.2168C53.7543 61.9463 53.8623 61.6106 53.863 61.2493C53.863 61.2492 53.863 61.2492 53.863 61.2492L53.363 61.2483M43.8626 62.319C43.3569 62.3302 42.7775 62.5675 42.3761 62.8842L43.8626 62.319ZM53.363 61.2483C53.3639 60.7681 53.1189 60.3831 52.6179 60.2598M53.363 61.2483C53.362 61.7687 53.0575 62.1275 52.5433 62.2545L53.363 61.2483ZM52.6179 60.2598L52.7386 59.7746C52.7384 59.7746 52.7382 59.7745 52.738 59.7745C52.4241 59.6964 52.1043 59.6824 51.8305 59.6795L51.8297 59.6795C50.4489 59.6672 49.0707 59.6576 47.6931 59.6481C46.0219 59.6365 44.3515 59.6249 42.6781 59.6085M52.6179 60.2598C52.3626 60.1963 52.0907 60.1823 51.8252 60.1795L52.6179 60.2598ZM42.6781 59.6085C42.6782 59.6085 42.6782 59.6085 42.6782 59.6085L42.6732 60.1085L42.6781 59.6085ZM59.5208 15.3293C53.1733 9.20607 44.0119 8.44111 36.7589 13.426C29.8422 18.18 27.2653 27.7125 30.8276 35.3105L30.8277 35.3105C32.1198 38.0669 33.9388 40.3747 36.3758 42.1653L36.376 42.1653C37.6839 43.1269 38.4207 44.3834 38.2874 46.0883L38.2874 46.0886C38.2797 46.1856 38.2817 46.2688 38.2841 46.3741C38.2855 46.4347 38.2871 46.5027 38.2871 46.585M59.5208 15.3293L38.2871 46.585M59.5208 15.3293C65.8802 21.4651 66.5591 32.1659 60.9663 39.0108C60.0816 40.0934 59.0183 41.0392 57.9296 42.0077C57.8002 42.1228 57.6705 42.2382 57.5407 42.3542L57.5405 42.3543C57.1899 42.6678 56.8616 42.7718 56.606 42.7623C56.3569 42.7529 56.1171 42.6347 55.9248 42.38C55.7076 42.0923 55.6595 41.829 55.7138 41.5898C55.7715 41.3357 55.963 41.0309 56.3746 40.7187L56.3747 40.7186C59.729 38.1737 61.7724 34.8121 62.5427 30.6757C64.0374 22.6504 58.5569 14.3542 50.5968 12.6078L59.5208 15.3293ZM38.2871 46.585C38.2871 46.5852 38.2871 46.5854 38.2871 46.5856H37.7871L38.2871 46.5841C38.2871 46.5844 38.2871 46.5847 38.2871 46.585ZM54.5738 49.8201L54.5997 49.3208C54.176 49.2989 53.742 49.3036 53.327 49.3081C53.1599 49.3099 52.996 49.3117 52.837 49.3117L54.5738 49.8201ZM52.8367 49.3117V49.8117V49.3117Z" fill="white" stroke="white"/>
<path d="M68.13 28.7928L68.1296 28.7928C67.7795 28.7869 67.5381 28.687 67.392 28.5624C67.253 28.444 67.1681 28.2776 67.1653 28.0522L67.1652 28.0521C67.1624 27.8302 67.2434 27.6581 67.3807 27.5347C67.5228 27.407 67.7586 27.3033 68.1015 27.2982L68.1018 27.2982C69.6067 27.2749 71.1112 27.2702 72.6124 27.3009L72.6125 27.3009C72.9563 27.3078 73.1778 27.4131 73.306 27.5368C73.4301 27.6564 73.5088 27.8326 73.4987 28.0772C73.4891 28.3075 73.4045 28.4639 73.2765 28.5722C73.1413 28.6867 72.9154 28.7818 72.5739 28.7956H72.5739H72.5738H72.5736H72.5735H72.5734H72.5732H72.5731H72.573H72.5728H72.5727H72.5726H72.5724H72.5723H72.5722H72.5721H72.5719H72.5718H72.5717H72.5715H72.5714H72.5713H72.5711H72.571H72.5709H72.5707H72.5706H72.5705H72.5704H72.5702H72.5701H72.57H72.5698H72.5697H72.5696H72.5694H72.5693H72.5692H72.569H72.5689H72.5688H72.5687H72.5685H72.5684H72.5683H72.5681H72.568H72.5679H72.5677H72.5676H72.5675H72.5673H72.5672H72.5671H72.5669H72.5668H72.5667H72.5666H72.5664H72.5663H72.5662H72.566H72.5659H72.5658H72.5656H72.5655H72.5654H72.5652H72.5651H72.565H72.5649H72.5647H72.5646H72.5645H72.5643H72.5642H72.5641H72.5639H72.5638H72.5637H72.5635H72.5634H72.5633H72.5631H72.563H72.5629H72.5628H72.5626H72.5625H72.5624H72.5622H72.5621H72.562H72.5618H72.5617H72.5616H72.5614H72.5613H72.5612H72.5611H72.5609H72.5608H72.5607H72.5605H72.5604H72.5603H72.5601H72.56H72.5599H72.5597H72.5596H72.5595H72.5594H72.5592H72.5591H72.559H72.5588H72.5587H72.5586H72.5584H72.5583H72.5582H72.558H72.5579H72.5578H72.5576H72.5575H72.5574H72.5573H72.5571H72.557H72.5569H72.5567H72.5566H72.5565H72.5563H72.5562H72.5561H72.5559H72.5558H72.5557H72.5556H72.5554H72.5553H72.5552H72.555H72.5549H72.5548H72.5546H72.5545H72.5544H72.5542H72.5541H72.554H72.5539H72.5537H72.5536H72.5535H72.5533H72.5532H72.5531H72.5529H72.5528H72.5527H72.5525H72.5524H72.5523H72.5521H72.552H72.5519H72.5518H72.5516H72.5515H72.5514H72.5512H72.5511H72.551H72.5508H72.5507H72.5506H72.5504H72.5503H72.5502H72.5501H72.5499H72.5498H72.5497H72.5495H72.5494H72.5493H72.5491H72.549H72.5489H72.5487H72.5486H72.5485H72.5483H72.5482H72.5481H72.548H72.5478H72.5477H72.5476H72.5474H72.5473H72.5472H72.547H72.5469H72.5468H72.5466H72.5465H72.5464H72.5463H72.5461H72.546H72.5459H72.5457H72.5456H72.5455H72.5453H72.5452H72.5451H72.5449H72.5448H72.5447H72.5446H72.5444H72.5443H72.5442H72.544H72.5439H72.5438H72.5436H72.5435H72.5434H72.5432H72.5431H72.543H72.5428H72.5427H72.5426H72.5425H72.5423H72.5422H72.5421H72.5419H72.5418H72.5417H72.5415H72.5414H72.5413H72.5411H72.541H72.5409H72.5408H72.5406H72.5405H72.5404H72.5402H72.5401H72.54H72.5398H72.5397H72.5396H72.5394H72.5393H72.5392H72.5391H72.5389H72.5388H72.5387H72.5385H72.5384H72.5383H72.5381H72.538H72.5379H72.5377H72.5376H72.5375H72.5373H72.5372H72.5371H72.537H72.5368H72.5367H72.5366H72.5364H72.5363H72.5362H72.536H72.5359H72.5358H72.5356H72.5355H72.5354H72.5353H72.5351H72.535H72.5349H72.5347H72.5346H72.5345H72.5343H72.5342H72.5341H72.5339H72.5338H72.5337H72.5335H72.5334H72.5333H72.5332H72.533H72.5329H72.5328H72.5326H72.5325H72.5324H72.5322H72.5321H72.532H72.5318H72.5317H72.5316H72.5315H72.5313H72.5312H72.5311H72.5309H72.5308H72.5307H72.5305H72.5304H72.5303H72.5301H72.53H72.5299H72.5298H72.5296H72.5295H72.5294H72.5292H72.5291H72.529H72.5288H72.5287H72.5286H72.5284H72.5283H72.5282H72.528H72.5279H72.5278H72.5277H72.5275H72.5274H72.5273H72.5271H72.527H72.5269H72.5267H72.5266H72.5265H72.5263H72.5262H72.5261H72.526H72.5258H72.5257H72.5256H72.5254H72.5253H72.5252H72.525H72.5249H72.5248H72.5246H72.5245H72.5244H72.5243H72.5241H72.524H72.5239H72.5237H72.5236H72.5235H72.5233H72.5232H72.5231H72.5229H72.5228H72.5227H72.5225H72.5224H72.5223H72.5222H72.522H72.5219H72.5218H72.5216H72.5215H72.5214H72.5212H72.5211H72.521H72.5208H72.5207H72.5206H72.5205H72.5203H72.5202H72.5201H72.5199H72.5198H72.5197H72.5195H72.5194H72.5193H72.5191H72.519H72.5189H72.5187H72.5186H72.5185H72.5184H72.5182H72.5181H72.518H72.5178H72.5177H72.5176H72.5174H72.5173H72.5172H72.517H72.5169H72.5168H72.5167H72.5165H72.5164H72.5121H72.5078H72.5035H72.4992H72.4949H72.4906H72.4863H72.482H72.4777H72.4734H72.4691H72.4649H72.4606H72.4563H72.452H72.4477H72.4434H72.4391H72.4348H72.4305H72.4262H72.4219H72.4176H72.4133H72.409H72.4047H72.4004H72.3961H72.3918H72.3876H72.3833H72.379H72.3747H72.3704H72.3661H72.3618H72.3575H72.3532H72.3489H72.3446H72.3403H72.336H72.3317H72.3274H72.3231H72.3188H72.3145H72.3103H72.306H72.3017H72.2974H72.2931H72.2888H72.2845H72.2802H72.2759H72.2716H72.2673H72.263H72.2587H72.2544H72.2501H72.2458H72.2416H72.2373H72.233H72.2287H72.2244H72.2201H72.2158H72.2115H72.2072H72.2029H72.1986H72.1943H72.19H72.1857H72.1814H72.1771H72.1729H72.1686H72.1643H72.16H72.1557H72.1514H72.1471H72.1428H72.1385H72.1342H72.1299H72.1256H72.1213H72.117H72.1127H72.1084H72.1042H72.0999H72.0956H72.0913H72.087H72.0827H72.0784H72.0741H72.0698H72.0655H72.0612H72.0569H72.0526H72.0483H72.044H72.0398H72.0355H72.0312H72.0269H72.0226H72.0183H72.014H72.0097H72.0054H72.0011H71.9968H71.9925H71.9882H71.9839H71.9797H71.9754H71.9711H71.9668H71.9625H71.9582H71.9539H71.9496H71.9453H71.941H71.9367H71.9324H71.9281H71.9238H71.9196H71.9153H71.911H71.9067H71.9024H71.8981H71.8938H71.8895H71.8852H71.8809H71.8766H71.8723H71.868H71.8637H71.8595H71.8552H71.8509H71.8466H71.8423H71.838H71.8337H71.8294H71.8251H71.8208H71.8165H71.8122H71.8079H71.8036H71.7994H71.7951H71.7908H71.7865H71.7822H71.7779H71.7736H71.7693H71.765H71.7607H71.7564H71.7521H71.7478H71.7436H71.7393H71.735H71.7307H71.7264H71.7221H71.7178H71.7135H71.7092H71.7049H71.7006H71.6963H71.692H71.6877H71.6835H71.6792H71.6749H71.6706H71.6663H71.662H71.6577H71.6534H71.6491H71.6448H71.6405H71.6362H71.6319H71.6277H71.6234H71.6191H71.6148H71.6105H71.6062H71.6019H71.5976H71.5933H71.589H71.5847H71.5804H71.5761H71.5719H71.5676H71.5633H71.559H71.5547H71.5504H71.5461H71.5418H71.5375H71.5332H71.5289H71.5246H71.5203H71.5161H71.5118H71.5075H71.5032H71.4989H71.4946H71.4903H71.486H71.4817H71.4774H71.4731H71.4688H71.4645H71.4603H71.456H71.4517H71.4474H71.4431H71.4388H71.4345H71.4302H71.4259H71.4216H71.4173H71.413H71.4087H71.4045H71.4002H71.3959H71.3916H71.3873H71.383H71.3787H71.3744H71.3701H71.3658H71.3615H71.3572H71.3529H71.3487H71.3444H71.3401H71.3358H71.3315H71.3272H71.3229H71.3186H71.3143H71.31H71.3057H71.3014H71.2971H71.2929H71.2886H71.2843H71.28H71.2757H71.2714H71.2671H71.2628H71.2585H71.2542H71.2499H71.2456H71.2413H71.2371H71.2328H71.2285H71.2242H71.2199H71.2156H71.2113H71.207H71.2027H71.1984H71.1941H71.1898H71.1855H71.1813H71.177H71.1727H71.1684H71.1641H71.1598H71.1555H71.1512H71.1469H71.1426H71.1383H71.134H71.1297H71.1254H71.1212H71.1169H71.1126H71.1083H71.104H71.0997H71.0954H71.0911H71.0868H71.0825H71.0782H71.0739H71.0696H71.0654H71.0611H71.0568H71.0525H71.0482H71.0439H71.0396H71.0353H71.031H71.0267H71.0224H71.0181H71.0138H71.0095H71.0053H71.001H70.9967H70.9924H70.9881H70.9838H70.9795H70.9752H70.9709H70.9666H70.9623H70.958H70.9537H70.9495H70.9452H70.9409H70.9366H70.9323H70.928H70.9237H70.9194H70.9151H70.9108H70.9065H70.9022H70.8979H70.8936H70.8894H70.8851H70.8808H70.8765H70.8722H70.8679H70.8636H70.8593H70.855H70.8507H70.8464H70.8421H70.8378H70.8335H70.8292H70.825H70.8207H70.8164H70.8121H70.8078H70.8035H70.7992H70.7949H70.7906H70.7863H70.782H70.7777H70.7734H70.7691H70.7649H70.7606H70.7563H70.752H70.7477H70.7434H70.7391H70.7348H70.7305H70.7262H70.7219H70.7176H70.7133H70.709H70.7047H70.7005H70.6962H70.6919H70.6876H70.6833H70.679H70.6747H70.6704H70.6661H70.6618H70.6575H70.6532H70.6489H70.6446H70.6403H70.636H70.6318H70.6275H70.6232H70.6189H70.6146H70.6103H70.606H70.6017H70.5974H70.5931H70.5888H70.5845H70.5802H70.5759H70.5716H70.5673H70.5631H70.5588H70.5545H70.5502H70.5459H70.5416H70.5373H70.533H70.5287H70.5244H70.5201H70.5158H70.5115H70.5072H70.5029H70.4986H70.4943H70.4901H70.4858H70.4815H70.4772H70.4729H70.4686H70.4643H70.46H70.4557H70.4514H70.4471H70.4428H70.4385H70.4342H70.4299H70.4256H70.4213H70.417H70.4128H70.4085H70.4042H70.3999H70.3956H70.3913H70.387H70.3827H70.3784H70.3741H70.3698H70.3655H70.3612H70.3569H70.3526H70.3483H70.344H70.3397H70.3354H70.3312H70.3269H70.3226H70.3192C70.3189 28.7956 70.3186 28.7956 70.3183 28.7956C70.0899 28.7956 69.8637 28.7965 69.6388 28.7975C69.1328 28.7997 68.6333 28.8018 68.13 28.7928Z" fill="white" stroke="white"/>
<path d="M47.7025 4.13795H47.7047C47.7051 4.05635 47.7056 3.97502 47.7061 3.89391C47.7091 3.38375 47.712 2.88236 47.699 2.37608L47.7025 4.13795ZM47.7025 4.13795V4.63795C47.7025 4.87303 47.7038 5.10532 47.7051 5.33598C47.7079 5.8396 47.7106 6.33546 47.6999 6.83572L47.7025 4.13795ZM46.2211 6.91108L46.2211 6.91129C46.2282 7.23178 46.33 7.43958 46.4507 7.56206C46.5694 7.68251 46.7441 7.75963 46.9802 7.7529L46.2211 6.91108ZM46.2211 6.91108C46.1868 5.37912 46.1841 3.84676 46.2248 2.31836L46.2248 2.31821M46.2211 6.91108L46.2248 2.31821M46.2248 2.31821C46.2332 1.99943 46.3366 1.79768 46.457 1.68053C46.576 1.56459 46.7541 1.4896 46.9978 1.50116L46.9981 1.50117M46.2248 2.31821L46.9981 1.50117M46.9981 1.50117C47.2228 1.51171 47.3797 1.59469 47.4868 1.71735M46.9981 1.50117L47.4868 1.71735M47.4868 1.71735C47.5985 1.8452 47.6906 2.05684 47.699 2.37587L47.4868 1.71735ZM47.6999 6.83585C47.6924 7.17805 47.5968 7.40275 47.4817 7.53606C47.3726 7.66237 47.213 7.74626 46.9803 7.7529L47.6999 6.83585Z" fill="white" stroke="white"/>
<path d="M21.3437 27.3046L21.3434 27.3046C21.0221 27.3117 20.8144 27.4132 20.6921 27.5334C20.5719 27.6515 20.4942 27.8262 20.5003 28.0643L21.3437 27.3046ZM21.3437 27.3046C22.8696 27.2702 24.3963 27.2684 25.9193 27.3083L21.3437 27.3046ZM26.7298 28.0847L26.7298 28.0846C26.7424 27.845 26.6681 27.6649 26.5504 27.543C26.432 27.4203 26.2307 27.3166 25.9195 27.3083L26.7298 28.0847ZM26.7298 28.0847C26.7182 28.3074 26.6341 28.4665 26.5087 28.5761C26.3786 28.6897 26.1664 28.7818 25.8523 28.7901L25.852 28.7901M26.7298 28.0847L25.852 28.7901M25.852 28.7901C25.3345 28.8042 24.8217 28.8009 24.2994 28.7976C24.068 28.7961 23.8348 28.7946 23.5985 28.7946C23.3692 28.7946 23.1426 28.7958 22.9176 28.7971M25.852 28.7901L22.9176 28.7971M22.9176 28.7971C22.4109 28.7998 21.9124 28.8025 21.4092 28.791L22.9176 28.7971ZM21.4091 28.791C21.073 28.7832 20.8503 28.6872 20.7172 28.5706C20.5904 28.4596 20.5064 28.2973 20.5003 28.0643L21.4091 28.791Z" fill="white" stroke="white"/>
<path d="M65.9775 9.65737C65.9452 9.61628 65.9135 9.5753 65.8834 9.53646C65.8347 9.47359 65.7904 9.41633 65.7553 9.37334C65.6279 9.21724 65.5229 9.1135 65.4192 9.05085C65.2137 8.92737 64.9491 8.95437 64.6412 9.26675C63.5484 10.3769 62.4622 11.4889 61.3933 12.616L61.3928 12.6166C61.2787 12.7365 61.1824 12.9154 61.1467 13.0729C61.1082 13.2458 61.1259 13.3799 61.1718 13.4861C61.2186 13.5943 61.3092 13.7066 61.4678 13.8088C61.7929 14.018 62.0365 13.9811 62.2064 13.8141L65.9775 9.65737ZM65.9775 9.65737C65.9584 9.71772 65.9414 9.77402 65.9265 9.8234C65.9133 9.8672 65.9017 9.90556 65.8917 9.93648C65.8461 10.0783 65.8241 10.1032 65.8241 10.1032L65.8241 10.1031L66.1877 10.4464L65.8246 10.1026L65.9775 9.65737Z" fill="white" stroke="white"/>
<path d="M31.1991 13.2737L31.1993 13.2739C31.2533 13.329 31.3072 13.3882 31.3542 13.4399C31.3611 13.4475 31.3679 13.455 31.3746 13.4622C31.4293 13.5222 31.4762 13.5728 31.5218 13.6173C31.6205 13.7135 31.6684 13.7349 31.6799 13.7382C31.8394 13.7837 32.0153 13.817 32.1749 13.8237C32.3419 13.8307 32.4451 13.8067 32.495 13.7814C32.5467 13.7547 32.6206 13.687 32.7392 13.5157C32.7683 13.4737 32.8063 13.4152 32.8494 13.3488C32.8796 13.3023 32.9123 13.2519 32.9462 13.2007C32.9149 13.1446 32.8853 13.0905 32.8575 13.0399C32.8253 12.9813 32.7957 12.9273 32.7691 12.8802C32.6737 12.7116 32.5998 12.5992 32.519 12.5129L31.1991 13.2737ZM31.1991 13.2737C30.264 12.3208 29.3321 11.3683 28.4137 10.4042L28.4137 10.4041M31.1991 13.2737L28.4137 10.4041M28.4137 10.4041C28.1742 10.1529 28.0791 9.91176 28.0675 9.72123C28.0565 9.53904 28.118 9.36173 28.2779 9.20387C28.4391 9.04516 28.617 8.98701 28.796 9.00106C28.9832 9.01574 29.2192 9.1144 29.4618 9.35884L29.4618 9.35884M28.4137 10.4041L29.4618 9.35884M29.4618 9.35884C30.4953 10.4001 31.5197 11.4464 32.5189 12.5129L29.4618 9.35884Z" fill="white" stroke="white"/>
</svg>
