<svg width="80" height="66" viewBox="0 0 80 66" fill="none" xmlns="http://www.w3.org/2000/svg">
<circle cx="33" cy="33" r="33" fill="#EDC766"/>
<mask id="path-2-inside-1_2016_258" fill="white">
<path d="M79.0437 43.4335C78.8555 44.5242 78.717 45.6276 78.4712 46.7056C76.7561 54.2459 70.288 60.3331 62.6657 61.6524C58.2013 62.4257 53.9608 61.7909 49.9304 59.7387C49.6292 59.5852 49.4191 59.6221 49.1421 59.763C41.0928 63.8557 31.5442 62.2595 25.4236 55.5744C20.3047 49.9824 18.75 43.3562 21.0123 36.116C23.2652 28.9069 28.2848 24.3802 35.6335 22.6004C40.3207 21.4647 44.852 22.1307 49.1629 24.3017C49.3614 24.4021 49.6915 24.4194 49.8843 24.3236C55.6552 21.4693 61.4873 21.332 67.3875 23.8943C67.4729 23.9312 67.5618 23.9589 67.8169 24.0535C67.7384 22.7747 67.7592 21.572 67.5791 20.4005C66.3914 12.6756 60.9748 6.88038 53.3699 5.13409C43.6782 2.90766 33.5871 9.49231 31.7093 19.2764C31.5788 19.9539 31.5107 20.6418 31.4023 21.3227C31.3065 21.9194 30.944 22.2484 30.4627 22.2011C29.9468 22.1503 29.6479 21.7267 29.6975 21.1161C30.4477 12.0788 37.6176 4.48429 46.5879 3.22507C47.0784 3.15582 47.5666 3.07502 48.056 3C49.0544 3 50.0528 3 51.0511 3C51.9733 3.15466 52.9036 3.27008 53.8166 3.4686C63.4033 5.54268 70.1149 14.4449 69.4489 24.2232C69.4108 24.7795 69.5505 25.0588 70.0121 25.3658C74.2399 28.1775 77.0596 32.0313 78.365 36.947C78.6778 38.1265 78.8221 39.35 79.0448 40.5538V43.4335H79.0437ZM69.1373 26.894C67.6795 33.1428 64.2054 37.8865 58.4541 40.7673C52.7005 43.6505 46.8245 43.5593 40.937 40.967C40.9208 41.1447 40.9024 41.2763 40.8989 41.4079C40.7766 45.2421 41.7403 48.7889 43.8675 51.9745C44.6396 53.131 45.6207 54.149 46.5325 55.2085C46.9653 55.7118 47.0577 56.2046 46.701 56.5785C46.3386 56.9594 45.8146 56.9144 45.3344 56.462C45.2929 56.4227 45.2513 56.3823 45.211 56.3419C40.8527 51.978 38.8675 46.7091 39.2092 40.5607C39.2311 40.1729 39.148 39.9432 38.8052 39.7205C34.8867 37.1767 32.1455 33.7037 30.6463 29.2705C30.3843 28.4949 30.188 27.6962 29.9549 26.8871C29.8649 26.9367 29.7956 26.9656 29.7356 27.0083C23.8354 31.3099 21.0838 37.112 21.976 44.3603C23.0367 52.9809 29.8164 59.3486 38.4197 60.1681C45.9081 60.8825 53.2372 56.7009 56.4562 49.8854C57.3749 47.9418 57.9186 45.8988 58.1632 43.7671C58.2325 43.1623 58.6041 42.8772 59.1212 42.9349C59.6279 42.9915 59.9199 43.3943 59.8611 43.9748C59.4836 47.7294 58.1563 51.1123 55.8756 54.1178C54.6026 55.796 53.086 57.2249 51.3547 58.4483C58.2048 62.0055 69.0865 60.5997 74.6554 51.4643C80.1101 42.5182 76.7099 31.7185 69.1373 26.8917V26.894ZM47.7802 25.599C47.6428 25.5217 47.569 25.4697 47.4882 25.4339C42.2539 23.1648 37.0635 23.2698 31.9124 25.7133C31.6354 25.8448 31.5846 25.9926 31.6423 26.2927C32.0267 28.3286 32.7296 30.2434 33.7672 32.0324C35.1949 34.4955 37.0947 36.5153 39.5173 38.1335C40.66 32.8831 43.4116 28.7338 47.7802 25.5967V25.599ZM59.584 38.0954C59.6798 38.0573 59.7191 38.0492 59.7491 38.0284C63.8268 35.1961 66.3868 31.3607 67.4302 26.4993C67.5399 25.9891 67.3921 25.7952 66.9685 25.6001C62.0113 23.3229 57.0114 23.2156 51.9618 25.2701C51.7575 25.3532 51.5671 25.4697 51.3235 25.5955C55.6944 28.7338 58.4403 32.8704 59.584 38.0942V38.0954ZM52.1765 28.4337C48.535 32.074 44.9674 35.6427 41.386 39.223C41.6226 39.3361 41.925 39.4573 42.2031 39.6178C42.6233 39.8613 42.913 39.8036 43.2777 39.4342C46.4182 36.2568 49.5853 33.1058 52.7432 29.9468C52.8886 29.8014 53.026 29.6467 53.1321 29.5348C52.7778 29.1262 52.4535 28.7522 52.1765 28.4325V28.4337ZM54.4271 30.8979C51.2035 34.1215 48.0075 37.3175 44.7989 40.5261C45.1152 40.6034 45.488 40.6669 45.8411 40.787C46.3201 40.9508 46.6364 40.8043 46.9907 40.4465C49.6073 37.7965 52.2492 35.1707 54.8819 32.5368C55.0158 32.4029 55.1427 32.2621 55.2951 32.1017C54.9811 31.6654 54.6811 31.2499 54.4283 30.899L54.4271 30.8979ZM41.8765 35.8297C41.9007 35.832 41.925 35.8343 41.9492 35.8366C44.8174 32.9685 47.6855 30.1003 50.5525 27.2345C49.9593 26.6828 49.3233 26.6447 48.6447 27.1202C46.5798 28.5756 44.8578 30.3635 43.5697 32.5368C42.9418 33.5964 42.4374 34.7298 41.8765 35.8297ZM56.2888 33.8434C53.8397 36.2949 51.3974 38.7383 49.0128 41.124C49.5195 41.124 50.152 41.1367 50.7822 41.1147C50.9334 41.109 51.1158 41.0178 51.2254 40.9081C53.0513 39.0972 54.8703 37.2794 56.6801 35.4534C56.7759 35.3565 56.8532 35.1407 56.8117 35.0276C56.6478 34.5832 56.432 34.1585 56.2877 33.8434H56.2888ZM57.5919 37.2309C56.4597 38.3689 55.3563 39.4793 54.1698 40.6727C55.399 40.1718 56.5635 39.7078 57.7143 39.2126C57.8308 39.163 57.9486 38.9126 57.9266 38.7775C57.8401 38.2374 57.6993 37.7064 57.5919 37.2321V37.2309Z"/>
</mask>
<path d="M79.0437 43.4335C78.8555 44.5242 78.717 45.6276 78.4712 46.7056C76.7561 54.2459 70.288 60.3331 62.6657 61.6524C58.2013 62.4257 53.9608 61.7909 49.9304 59.7387C49.6292 59.5852 49.4191 59.6221 49.1421 59.763C41.0928 63.8557 31.5442 62.2595 25.4236 55.5744C20.3047 49.9824 18.75 43.3562 21.0123 36.116C23.2652 28.9069 28.2848 24.3802 35.6335 22.6004C40.3207 21.4647 44.852 22.1307 49.1629 24.3017C49.3614 24.4021 49.6915 24.4194 49.8843 24.3236C55.6552 21.4693 61.4873 21.332 67.3875 23.8943C67.4729 23.9312 67.5618 23.9589 67.8169 24.0535C67.7384 22.7747 67.7592 21.572 67.5791 20.4005C66.3914 12.6756 60.9748 6.88038 53.3699 5.13409C43.6782 2.90766 33.5871 9.49231 31.7093 19.2764C31.5788 19.9539 31.5107 20.6418 31.4023 21.3227C31.3065 21.9194 30.944 22.2484 30.4627 22.2011C29.9468 22.1503 29.6479 21.7267 29.6975 21.1161C30.4477 12.0788 37.6176 4.48429 46.5879 3.22507C47.0784 3.15582 47.5666 3.07502 48.056 3C49.0544 3 50.0528 3 51.0511 3C51.9733 3.15466 52.9036 3.27008 53.8166 3.4686C63.4033 5.54268 70.1149 14.4449 69.4489 24.2232C69.4108 24.7795 69.5505 25.0588 70.0121 25.3658C74.2399 28.1775 77.0596 32.0313 78.365 36.947C78.6778 38.1265 78.8221 39.35 79.0448 40.5538V43.4335H79.0437ZM69.1373 26.894C67.6795 33.1428 64.2054 37.8865 58.4541 40.7673C52.7005 43.6505 46.8245 43.5593 40.937 40.967C40.9208 41.1447 40.9024 41.2763 40.8989 41.4079C40.7766 45.2421 41.7403 48.7889 43.8675 51.9745C44.6396 53.131 45.6207 54.149 46.5325 55.2085C46.9653 55.7118 47.0577 56.2046 46.701 56.5785C46.3386 56.9594 45.8146 56.9144 45.3344 56.462C45.2929 56.4227 45.2513 56.3823 45.211 56.3419C40.8527 51.978 38.8675 46.7091 39.2092 40.5607C39.2311 40.1729 39.148 39.9432 38.8052 39.7205C34.8867 37.1767 32.1455 33.7037 30.6463 29.2705C30.3843 28.4949 30.188 27.6962 29.9549 26.8871C29.8649 26.9367 29.7956 26.9656 29.7356 27.0083C23.8354 31.3099 21.0838 37.112 21.976 44.3603C23.0367 52.9809 29.8164 59.3486 38.4197 60.1681C45.9081 60.8825 53.2372 56.7009 56.4562 49.8854C57.3749 47.9418 57.9186 45.8988 58.1632 43.7671C58.2325 43.1623 58.6041 42.8772 59.1212 42.9349C59.6279 42.9915 59.9199 43.3943 59.8611 43.9748C59.4836 47.7294 58.1563 51.1123 55.8756 54.1178C54.6026 55.796 53.086 57.2249 51.3547 58.4483C58.2048 62.0055 69.0865 60.5997 74.6554 51.4643C80.1101 42.5182 76.7099 31.7185 69.1373 26.8917V26.894ZM47.7802 25.599C47.6428 25.5217 47.569 25.4697 47.4882 25.4339C42.2539 23.1648 37.0635 23.2698 31.9124 25.7133C31.6354 25.8448 31.5846 25.9926 31.6423 26.2927C32.0267 28.3286 32.7296 30.2434 33.7672 32.0324C35.1949 34.4955 37.0947 36.5153 39.5173 38.1335C40.66 32.8831 43.4116 28.7338 47.7802 25.5967V25.599ZM59.584 38.0954C59.6798 38.0573 59.7191 38.0492 59.7491 38.0284C63.8268 35.1961 66.3868 31.3607 67.4302 26.4993C67.5399 25.9891 67.3921 25.7952 66.9685 25.6001C62.0113 23.3229 57.0114 23.2156 51.9618 25.2701C51.7575 25.3532 51.5671 25.4697 51.3235 25.5955C55.6944 28.7338 58.4403 32.8704 59.584 38.0942V38.0954ZM52.1765 28.4337C48.535 32.074 44.9674 35.6427 41.386 39.223C41.6226 39.3361 41.925 39.4573 42.2031 39.6178C42.6233 39.8613 42.913 39.8036 43.2777 39.4342C46.4182 36.2568 49.5853 33.1058 52.7432 29.9468C52.8886 29.8014 53.026 29.6467 53.1321 29.5348C52.7778 29.1262 52.4535 28.7522 52.1765 28.4325V28.4337ZM54.4271 30.8979C51.2035 34.1215 48.0075 37.3175 44.7989 40.5261C45.1152 40.6034 45.488 40.6669 45.8411 40.787C46.3201 40.9508 46.6364 40.8043 46.9907 40.4465C49.6073 37.7965 52.2492 35.1707 54.8819 32.5368C55.0158 32.4029 55.1427 32.2621 55.2951 32.1017C54.9811 31.6654 54.6811 31.2499 54.4283 30.899L54.4271 30.8979ZM41.8765 35.8297C41.9007 35.832 41.925 35.8343 41.9492 35.8366C44.8174 32.9685 47.6855 30.1003 50.5525 27.2345C49.9593 26.6828 49.3233 26.6447 48.6447 27.1202C46.5798 28.5756 44.8578 30.3635 43.5697 32.5368C42.9418 33.5964 42.4374 34.7298 41.8765 35.8297ZM56.2888 33.8434C53.8397 36.2949 51.3974 38.7383 49.0128 41.124C49.5195 41.124 50.152 41.1367 50.7822 41.1147C50.9334 41.109 51.1158 41.0178 51.2254 40.9081C53.0513 39.0972 54.8703 37.2794 56.6801 35.4534C56.7759 35.3565 56.8532 35.1407 56.8117 35.0276C56.6478 34.5832 56.432 34.1585 56.2877 33.8434H56.2888ZM57.5919 37.2309C56.4597 38.3689 55.3563 39.4793 54.1698 40.6727C55.399 40.1718 56.5635 39.7078 57.7143 39.2126C57.8308 39.163 57.9486 38.9126 57.9266 38.7775C57.8401 38.2374 57.6993 37.7064 57.5919 37.2321V37.2309Z" fill="white"/>
<path d="M79.0437 43.4335V41.4335H77.3591L77.0728 43.0936L79.0437 43.4335ZM78.4712 46.7056L76.5212 46.2609L76.521 46.262L78.4712 46.7056ZM62.6657 61.6524L62.3246 59.6817L62.3244 59.6817L62.6657 61.6524ZM49.9304 59.7387L49.0224 61.5207L49.023 61.521L49.9304 59.7387ZM49.1421 59.763L48.2358 57.9801L48.2356 57.9802L49.1421 59.763ZM25.4236 55.5744L23.9483 56.9248L23.9484 56.925L25.4236 55.5744ZM21.0123 36.116L19.1033 35.5194L19.1033 35.5195L21.0123 36.116ZM35.6335 22.6004L36.1043 24.5442L36.1045 24.5442L35.6335 22.6004ZM49.1629 24.3017L50.0656 22.517L50.0625 22.5154L49.1629 24.3017ZM49.8843 24.3236L48.9976 22.5309L48.9941 22.5326L49.8843 24.3236ZM67.3875 23.8943L66.5908 25.7287L66.5937 25.73L67.3875 23.8943ZM67.8169 24.0535L67.1211 25.9286L70.0013 26.9973L69.8131 23.931L67.8169 24.0535ZM67.5791 20.4005L69.5559 20.0967L69.5559 20.0966L67.5791 20.4005ZM53.3699 5.13409L52.9221 7.08332L52.9223 7.08336L53.3699 5.13409ZM31.7093 19.2764L33.6732 19.6544L33.6734 19.6533L31.7093 19.2764ZM31.4023 21.3227L33.377 21.6398L33.3773 21.6374L31.4023 21.3227ZM30.4627 22.2011L30.2668 24.1914L30.267 24.1915L30.4627 22.2011ZM29.6975 21.1161L27.7044 20.9507L27.7041 20.9541L29.6975 21.1161ZM46.5879 3.22507L46.8659 5.20565L46.8675 5.20543L46.5879 3.22507ZM48.056 3V1H47.9036L47.753 1.0231L48.056 3ZM51.0511 3L51.3819 1.02755L51.2177 1H51.0511V3ZM53.8166 3.4686L53.3916 5.42293L53.3937 5.42337L53.8166 3.4686ZM69.4489 24.2232L71.4442 24.3598L71.4443 24.3591L69.4489 24.2232ZM70.0121 25.3658L71.1196 23.7005L71.1196 23.7005L70.0121 25.3658ZM78.365 36.947L80.2982 36.4343L80.298 36.4336L78.365 36.947ZM79.0448 40.5538H81.0448V40.3703L81.0114 40.1899L79.0448 40.5538ZM79.0448 43.4335V45.4335H81.0448V43.4335H79.0448ZM69.1373 26.894L71.085 27.3484L71.1373 27.1242V26.894H69.1373ZM58.4541 40.7673L57.5584 38.9791L57.5581 38.9793L58.4541 40.7673ZM40.937 40.967L41.7429 39.1366L39.1971 38.0156L38.9452 40.7859L40.937 40.967ZM40.8989 41.4079L42.8979 41.4717L42.8982 41.4605L40.8989 41.4079ZM43.8675 51.9745L45.5308 50.8639L45.5307 50.8638L43.8675 51.9745ZM46.5325 55.2085L48.0488 53.9044L48.0484 53.904L46.5325 55.2085ZM46.701 56.5785L45.2537 55.1982L45.2521 55.1999L46.701 56.5785ZM45.3344 56.462L43.9612 57.916L43.9628 57.9176L45.3344 56.462ZM45.211 56.3419L43.7958 57.7552L43.7967 57.7562L45.211 56.3419ZM39.2092 40.5607L37.2124 40.4478L37.2123 40.4498L39.2092 40.5607ZM38.8052 39.7205L39.895 38.0435L39.8942 38.043L38.8052 39.7205ZM30.6463 29.2705L28.7514 29.9105L28.7517 29.9112L30.6463 29.2705ZM29.9549 26.8871L31.8767 26.3333L31.1831 23.9262L28.9893 25.1356L29.9549 26.8871ZM29.7356 27.0083L28.5761 25.3787L28.5667 25.3854L28.5574 25.3922L29.7356 27.0083ZM21.976 44.3603L23.961 44.1161L23.961 44.116L21.976 44.3603ZM38.4197 60.1681L38.6097 58.1771L38.6094 58.1771L38.4197 60.1681ZM56.4562 49.8854L54.648 49.0307L54.6478 49.0313L56.4562 49.8854ZM58.1632 43.7671L60.1502 43.9951L60.1503 43.9946L58.1632 43.7671ZM59.1212 42.9349L59.3431 40.9472L59.3431 40.9472L59.1212 42.9349ZM59.8611 43.9748L57.8713 43.7731L57.8711 43.7748L59.8611 43.9748ZM55.8756 54.1178L54.2824 52.9088L54.2822 52.9091L55.8756 54.1178ZM51.3547 58.4483L50.2005 56.815L47.5189 58.71L50.433 60.2233L51.3547 58.4483ZM74.6554 51.4643L72.9478 50.4232L72.9477 50.4233L74.6554 51.4643ZM69.1373 26.8917L70.2123 25.2052L67.1373 23.2451V26.8917H69.1373ZM47.7802 25.599L46.799 27.3418L49.7802 29.0203V25.599H47.7802ZM47.4882 25.4339L48.298 23.6052L48.2909 23.6021L48.2837 23.599L47.4882 25.4339ZM31.9124 25.7133L31.0553 23.9062L31.0543 23.9067L31.9124 25.7133ZM31.6423 26.2927L33.6076 25.9217L33.6063 25.915L31.6423 26.2927ZM33.7672 32.0324L35.4975 31.0294L35.4972 31.029L33.7672 32.0324ZM39.5173 38.1335L38.4065 39.7966L40.8474 41.427L41.4716 38.5588L39.5173 38.1335ZM47.7802 25.5967H49.7802V21.6982L46.6136 23.9722L47.7802 25.5967ZM59.584 38.0954H57.584V41.0428L60.323 39.9539L59.584 38.0954ZM59.7491 38.0284L60.8875 39.6728L60.8901 39.6711L59.7491 38.0284ZM67.4302 26.4993L65.4749 26.079L65.4748 26.0796L67.4302 26.4993ZM66.9685 25.6001L67.8051 23.7835L67.8034 23.7827L66.9685 25.6001ZM51.9618 25.2701L52.7154 27.1226L52.7155 27.1226L51.9618 25.2701ZM51.3235 25.5955L50.4056 23.8186L47.5058 25.3166L50.1571 27.2202L51.3235 25.5955ZM59.584 38.0942H61.584V37.8778L61.5378 37.6665L59.584 38.0942ZM52.1765 28.4337L53.5905 29.8481L54.1765 29.2623V28.4337H52.1765ZM41.386 39.223L39.972 37.8086L37.9721 39.8078L40.5234 41.0274L41.386 39.223ZM42.2031 39.6178L43.2062 37.8874L43.2024 37.8853L42.2031 39.6178ZM43.2777 39.4342L41.8552 38.0283L41.8546 38.029L43.2777 39.4342ZM52.7432 29.9468L51.329 28.5326L51.3287 28.5329L52.7432 29.9468ZM53.1321 29.5348L54.5833 30.9111L55.8316 29.5949L54.6431 28.2244L53.1321 29.5348ZM52.1765 28.4325L53.688 27.1229L50.1765 23.07V28.4325H52.1765ZM54.4271 30.8979L55.8403 29.4826L54.4261 28.0705L53.0129 29.4837L54.4271 30.8979ZM44.7989 40.5261L43.3847 39.1119L40.8718 41.6248L44.3239 42.4689L44.7989 40.5261ZM45.8411 40.787L46.4886 38.8947L46.4847 38.8933L45.8411 40.787ZM46.9907 40.4465L48.4118 41.8538L48.4139 41.8517L46.9907 40.4465ZM54.8819 32.5368L53.4677 31.1226L53.4674 31.1229L54.8819 32.5368ZM55.2951 32.1017L56.7453 33.4789L57.8859 32.2779L56.9185 30.9335L55.2951 32.1017ZM54.4283 30.899L56.0511 29.73L55.9562 29.5984L55.8414 29.4837L54.4283 30.899ZM41.8765 35.8297L40.0948 34.9211L38.7583 37.5418L41.6869 37.8207L41.8765 35.8297ZM41.9492 35.8366L41.7596 37.8276L42.6973 37.9169L43.3634 37.2509L41.9492 35.8366ZM50.5525 27.2345L51.9665 28.649L53.4335 27.1825L51.9145 25.7699L50.5525 27.2345ZM48.6447 27.1202L47.497 25.4823L47.4924 25.4855L48.6447 27.1202ZM43.5697 32.5368L41.8492 31.5171L41.8491 31.5172L43.5697 32.5368ZM56.2888 33.8434L57.7037 35.2569L61.1141 31.8434H56.2888V33.8434ZM49.0128 41.124L47.5983 39.7101L44.1861 43.124H49.0128V41.124ZM50.7822 41.1147L50.8518 43.1135L50.8585 43.1133L50.7822 41.1147ZM51.2254 40.9081L49.817 39.4881L49.8112 39.4939L51.2254 40.9081ZM56.6801 35.4534L58.1006 36.8614L58.1028 36.8592L56.6801 35.4534ZM56.8117 35.0276L58.689 34.3379L58.6881 34.3355L56.8117 35.0276ZM56.2877 33.8434V31.8434H53.1723L54.4692 34.676L56.2877 33.8434ZM57.5919 37.2309H59.5919V32.3851L56.1741 35.8203L57.5919 37.2309ZM54.1698 40.6727L52.7514 39.2626L54.9245 42.5248L54.1698 40.6727ZM57.7143 39.2126L56.9308 37.3725L56.9238 37.3755L57.7143 39.2126ZM57.9266 38.7775L55.9518 39.094L55.9525 39.0981L57.9266 38.7775ZM57.5919 37.2321H55.5919V37.4555L55.6412 37.6734L57.5919 37.2321ZM77.0728 43.0936C76.8629 44.3102 76.7523 45.2478 76.5212 46.2609L80.4211 47.1503C80.6817 46.0075 80.8481 44.7382 81.0145 43.7735L77.0728 43.0936ZM76.521 46.262C74.9867 53.0075 69.1593 58.4987 62.3246 59.6817L63.0068 63.6231C71.4166 62.1675 78.5254 55.4844 80.4214 47.1492L76.521 46.262ZM62.3244 59.6817C58.2837 60.3816 54.4815 59.8117 50.8379 57.9564L49.023 61.521C53.4402 63.7701 58.119 64.4697 63.0071 63.623L62.3244 59.6817ZM50.8385 57.9567C50.4487 57.7581 49.9653 57.6099 49.4049 57.6442C48.8825 57.6762 48.475 57.8585 48.2358 57.9801L50.0484 61.5458C50.0862 61.5266 49.9223 61.62 49.6495 61.6367C49.3387 61.6558 49.1109 61.5658 49.0224 61.5207L50.8385 57.9567ZM48.2356 57.9802C40.9651 61.677 32.3961 60.2282 26.8987 54.2238L23.9484 56.925C30.6923 64.2907 41.2205 66.0344 50.0486 61.5457L48.2356 57.9802ZM26.8988 54.224C22.2492 49.1445 20.8766 43.2562 22.9212 36.7124L19.1033 35.5195C16.6235 43.4561 18.3603 50.8202 23.9483 56.9248L26.8988 54.224ZM22.9212 36.7125C24.9558 30.2022 29.409 26.1657 36.1043 24.5442L35.1627 20.6566C27.1606 22.5946 21.5747 27.6116 19.1033 35.5194L22.9212 36.7125ZM36.1045 24.5442C40.2876 23.5306 44.3349 24.1095 48.2633 26.088L50.0625 22.5154C45.3691 20.1518 40.3538 19.3988 35.1625 20.6567L36.1045 24.5442ZM48.2602 26.0864C48.6774 26.2974 49.1081 26.372 49.4511 26.3848C49.7804 26.3971 50.2769 26.3619 50.7744 26.1146L48.9941 22.5326C49.1626 22.4489 49.3039 22.4163 49.3866 22.4024C49.4745 22.3876 49.5462 22.3856 49.6003 22.3876C49.6805 22.3906 49.8469 22.4064 50.0656 22.517L48.2602 26.0864ZM50.7709 26.1163C56.0129 23.5237 61.2291 23.4003 66.5908 25.7287L68.1842 22.0598C61.7455 19.2636 55.2975 19.4149 48.9976 22.5309L50.7709 26.1163ZM66.5937 25.73C66.6996 25.7758 66.7963 25.8106 66.8598 25.8335C66.931 25.8592 67.0046 25.8854 67.1211 25.9286L68.5126 22.1784C68.3741 22.1271 68.2757 22.092 68.2173 22.071C68.1513 22.0471 68.1608 22.0497 68.1813 22.0585L66.5937 25.73ZM69.8131 23.931C69.748 22.8703 69.7532 21.3805 69.5559 20.0967L65.6023 20.7044C65.7651 21.7636 65.7288 22.6791 65.8206 24.1761L69.8131 23.931ZM69.5559 20.0966C68.2431 11.5575 62.217 5.11356 53.8175 3.18482L52.9223 7.08336C59.7327 8.6472 64.5398 13.7936 65.6023 20.7044L69.5559 20.0966ZM53.8177 3.18487C43.0194 0.704226 31.8361 8.00513 29.7451 18.8994L33.6734 19.6533C35.3382 10.9795 44.337 5.1111 52.9221 7.08332L53.8177 3.18487ZM29.7453 18.8983C29.6141 19.5798 29.5046 20.5219 29.4272 21.0081L33.3773 21.6374C33.5169 20.7616 33.5435 20.328 33.6732 19.6544L29.7453 18.8983ZM29.4275 21.0057C29.4306 20.9867 29.471 20.7652 29.7172 20.5369C29.9969 20.2775 30.3612 20.1814 30.6584 20.2107L30.267 24.1915C31.0456 24.268 31.8317 24.0312 32.437 23.4699C33.0086 22.9398 33.2781 22.2555 33.377 21.6398L29.4275 21.0057ZM30.6587 20.2107C30.9407 20.2385 31.2788 20.3987 31.5023 20.7156C31.7014 20.9979 31.6943 21.2366 31.6909 21.2782L27.7041 20.9541C27.6511 21.6062 27.7686 22.362 28.2338 23.0214C28.7234 23.7154 29.4688 24.1129 30.2668 24.1914L30.6587 20.2107ZM31.6907 21.2816C32.3637 13.1743 38.8227 6.33472 46.8659 5.20565L46.3099 1.24449C36.4124 2.63385 28.5318 10.9834 27.7044 20.9507L31.6907 21.2816ZM46.8675 5.20543C47.3717 5.13424 47.903 5.04683 48.3591 4.9769L47.753 1.0231C47.2303 1.10321 46.7851 1.17739 46.3083 1.2447L46.8675 5.20543ZM48.056 5C48.058 5 48.0599 5 48.0619 5C48.0638 5 48.0658 5 48.0677 5C48.0697 5 48.0716 5 48.0736 5C48.0755 5 48.0775 5 48.0794 5C48.0814 5 48.0833 5 48.0853 5C48.0872 5 48.0892 5 48.0911 5C48.0931 5 48.095 5 48.097 5C48.0989 5 48.1009 5 48.1028 5C48.1048 5 48.1067 5 48.1087 5C48.1106 5 48.1126 5 48.1145 5C48.1165 5 48.1184 5 48.1204 5C48.1223 5 48.1243 5 48.1262 5C48.1282 5 48.1301 5 48.1321 5C48.134 5 48.136 5 48.1379 5C48.1399 5 48.1418 5 48.1438 5C48.1457 5 48.1477 5 48.1496 5C48.1516 5 48.1535 5 48.1555 5C48.1574 5 48.1594 5 48.1613 5C48.1633 5 48.1652 5 48.1672 5C48.1691 5 48.1711 5 48.173 5C48.175 5 48.1769 5 48.1789 5C48.1808 5 48.1828 5 48.1847 5C48.1867 5 48.1886 5 48.1906 5C48.1925 5 48.1945 5 48.1964 5C48.1984 5 48.2003 5 48.2023 5C48.2042 5 48.2062 5 48.2081 5C48.2101 5 48.212 5 48.214 5C48.2159 5 48.2179 5 48.2198 5C48.2218 5 48.2237 5 48.2257 5C48.2276 5 48.2296 5 48.2315 5C48.2335 5 48.2354 5 48.2374 5C48.2393 5 48.2413 5 48.2432 5C48.2452 5 48.2471 5 48.2491 5C48.251 5 48.253 5 48.2549 5C48.2569 5 48.2588 5 48.2608 5C48.2627 5 48.2647 5 48.2666 5C48.2686 5 48.2705 5 48.2725 5C48.2744 5 48.2764 5 48.2783 5C48.2803 5 48.2822 5 48.2842 5C48.2861 5 48.2881 5 48.29 5C48.292 5 48.2939 5 48.2959 5C48.2978 5 48.2998 5 48.3017 5C48.3037 5 48.3056 5 48.3076 5C48.3095 5 48.3115 5 48.3134 5C48.3154 5 48.3173 5 48.3193 5C48.3212 5 48.3232 5 48.3251 5C48.3271 5 48.329 5 48.331 5C48.3329 5 48.3349 5 48.3368 5C48.3388 5 48.3407 5 48.3427 5C48.3446 5 48.3466 5 48.3485 5C48.3505 5 48.3524 5 48.3544 5C48.3563 5 48.3583 5 48.3602 5C48.3622 5 48.3641 5 48.3661 5C48.368 5 48.37 5 48.3719 5C48.3739 5 48.3758 5 48.3778 5C48.3797 5 48.3817 5 48.3836 5C48.3856 5 48.3875 5 48.3895 5C48.3914 5 48.3934 5 48.3953 5C48.3973 5 48.3992 5 48.4012 5C48.4031 5 48.4051 5 48.407 5C48.409 5 48.4109 5 48.4129 5C48.4148 5 48.4168 5 48.4187 5C48.4207 5 48.4226 5 48.4246 5C48.4265 5 48.4285 5 48.4304 5C48.4324 5 48.4343 5 48.4363 5C48.4382 5 48.4402 5 48.4421 5C48.4441 5 48.446 5 48.448 5C48.4499 5 48.4519 5 48.4538 5C48.4558 5 48.4577 5 48.4597 5C48.4616 5 48.4636 5 48.4655 5C48.4675 5 48.4694 5 48.4714 5C48.4733 5 48.4753 5 48.4772 5C48.4792 5 48.4811 5 48.4831 5C48.485 5 48.487 5 48.4889 5C48.4909 5 48.4928 5 48.4948 5C48.4967 5 48.4987 5 48.5006 5C48.5026 5 48.5045 5 48.5065 5C48.5084 5 48.5104 5 48.5123 5C48.5143 5 48.5162 5 48.5182 5C48.5201 5 48.5221 5 48.524 5C48.526 5 48.5279 5 48.5299 5C48.5318 5 48.5338 5 48.5357 5C48.5377 5 48.5396 5 48.5416 5C48.5435 5 48.5455 5 48.5474 5C48.5494 5 48.5513 5 48.5533 5C48.5552 5 48.5572 5 48.5591 5C48.5611 5 48.563 5 48.565 5C48.5669 5 48.5689 5 48.5708 5C48.5728 5 48.5747 5 48.5767 5C48.5786 5 48.5806 5 48.5825 5C48.5845 5 48.5864 5 48.5884 5C48.5903 5 48.5923 5 48.5942 5C48.5962 5 48.5981 5 48.6001 5C48.602 5 48.604 5 48.6059 5C48.6079 5 48.6098 5 48.6118 5C48.6137 5 48.6157 5 48.6176 5C48.6196 5 48.6215 5 48.6235 5C48.6254 5 48.6274 5 48.6293 5C48.6313 5 48.6332 5 48.6352 5C48.6371 5 48.6391 5 48.641 5C48.643 5 48.6449 5 48.6469 5C48.6488 5 48.6508 5 48.6527 5C48.6547 5 48.6566 5 48.6586 5C48.6605 5 48.6625 5 48.6644 5C48.6664 5 48.6683 5 48.6703 5C48.6722 5 48.6742 5 48.6761 5C48.6781 5 48.68 5 48.682 5C48.6839 5 48.6859 5 48.6878 5C48.6898 5 48.6917 5 48.6937 5C48.6956 5 48.6976 5 48.6995 5C48.7015 5 48.7034 5 48.7054 5C48.7073 5 48.7093 5 48.7112 5C48.7132 5 48.7151 5 48.7171 5C48.719 5 48.721 5 48.7229 5C48.7249 5 48.7268 5 48.7288 5C48.7307 5 48.7327 5 48.7346 5C48.7366 5 48.7385 5 48.7405 5C48.7424 5 48.7444 5 48.7463 5C48.7483 5 48.7502 5 48.7522 5C48.7541 5 48.7561 5 48.758 5C48.76 5 48.7619 5 48.7639 5C48.7658 5 48.7678 5 48.7697 5C48.7717 5 48.7736 5 48.7756 5C48.7775 5 48.7795 5 48.7814 5C48.7834 5 48.7853 5 48.7873 5C48.7892 5 48.7912 5 48.7931 5C48.7951 5 48.797 5 48.799 5C48.8009 5 48.8029 5 48.8048 5C48.8068 5 48.8087 5 48.8107 5C48.8126 5 48.8146 5 48.8165 5C48.8185 5 48.8204 5 48.8224 5C48.8243 5 48.8263 5 48.8282 5C48.8302 5 48.8321 5 48.8341 5C48.836 5 48.838 5 48.8399 5C48.8419 5 48.8438 5 48.8458 5C48.8477 5 48.8497 5 48.8516 5C48.8536 5 48.8555 5 48.8575 5C48.8594 5 48.8614 5 48.8633 5C48.8653 5 48.8672 5 48.8692 5C48.8711 5 48.8731 5 48.875 5C48.877 5 48.8789 5 48.8809 5C48.8828 5 48.8848 5 48.8867 5C48.8887 5 48.8906 5 48.8926 5C48.8945 5 48.8965 5 48.8984 5C48.9004 5 48.9023 5 48.9043 5C48.9062 5 48.9082 5 48.9101 5C48.9121 5 48.914 5 48.916 5C48.9179 5 48.9199 5 48.9218 5C48.9237 5 48.9257 5 48.9277 5C48.9296 5 48.9316 5 48.9335 5C48.9354 5 48.9374 5 48.9394 5C48.9413 5 48.9433 5 48.9452 5C48.9471 5 48.9491 5 48.951 5C48.953 5 48.955 5 48.9569 5C48.9588 5 48.9608 5 48.9627 5C48.9647 5 48.9667 5 48.9686 5C48.9705 5 48.9725 5 48.9744 5C48.9764 5 48.9783 5 48.9803 5C48.9822 5 48.9842 5 48.9861 5C48.9881 5 48.99 5 48.992 5C48.9939 5 48.9959 5 48.9978 5C48.9998 5 49.0017 5 49.0037 5C49.0056 5 49.0076 5 49.0095 5C49.0115 5 49.0134 5 49.0154 5C49.0173 5 49.0193 5 49.0212 5C49.0232 5 49.0251 5 49.0271 5C49.029 5 49.031 5 49.0329 5C49.0349 5 49.0368 5 49.0388 5C49.0407 5 49.0427 5 49.0446 5C49.0466 5 49.0485 5 49.0505 5C49.0524 5 49.0544 5 49.0563 5C49.0583 5 49.0602 5 49.0622 5C49.0641 5 49.0661 5 49.068 5C49.07 5 49.0719 5 49.0739 5C49.0758 5 49.0778 5 49.0797 5C49.0817 5 49.0836 5 49.0856 5C49.0875 5 49.0895 5 49.0914 5C49.0934 5 49.0953 5 49.0973 5C49.0992 5 49.1012 5 49.1031 5C49.1051 5 49.107 5 49.109 5C49.1109 5 49.1129 5 49.1148 5C49.1168 5 49.1187 5 49.1207 5C49.1226 5 49.1246 5 49.1265 5C49.1285 5 49.1304 5 49.1324 5C49.1343 5 49.1363 5 49.1382 5C49.1402 5 49.1421 5 49.1441 5C49.146 5 49.148 5 49.1499 5C49.1519 5 49.1538 5 49.1558 5C49.1577 5 49.1597 5 49.1616 5C49.1636 5 49.1655 5 49.1675 5C49.1694 5 49.1714 5 49.1733 5C49.1753 5 49.1772 5 49.1792 5C49.1811 5 49.1831 5 49.185 5C49.187 5 49.1889 5 49.1909 5C49.1928 5 49.1948 5 49.1967 5C49.1987 5 49.2006 5 49.2026 5C49.2045 5 49.2065 5 49.2084 5C49.2104 5 49.2123 5 49.2143 5C49.2162 5 49.2182 5 49.2201 5C49.2221 5 49.224 5 49.226 5C49.2279 5 49.2299 5 49.2318 5C49.2338 5 49.2357 5 49.2377 5C49.2396 5 49.2416 5 49.2435 5C49.2455 5 49.2474 5 49.2494 5C49.2513 5 49.2533 5 49.2552 5C49.2572 5 49.2591 5 49.2611 5C49.263 5 49.265 5 49.2669 5C49.2689 5 49.2708 5 49.2728 5C49.2747 5 49.2767 5 49.2786 5C49.2806 5 49.2825 5 49.2845 5C49.2864 5 49.2884 5 49.2903 5C49.2923 5 49.2942 5 49.2962 5C49.2981 5 49.3001 5 49.302 5C49.304 5 49.3059 5 49.3079 5C49.3098 5 49.3118 5 49.3137 5C49.3157 5 49.3176 5 49.3196 5C49.3215 5 49.3235 5 49.3254 5C49.3274 5 49.3293 5 49.3313 5C49.3332 5 49.3352 5 49.3371 5C49.3391 5 49.341 5 49.343 5C49.3449 5 49.3469 5 49.3488 5C49.3508 5 49.3527 5 49.3547 5C49.3566 5 49.3586 5 49.3605 5C49.3625 5 49.3644 5 49.3664 5C49.3683 5 49.3703 5 49.3722 5C49.3742 5 49.3761 5 49.3781 5C49.38 5 49.382 5 49.3839 5C49.3859 5 49.3878 5 49.3898 5C49.3917 5 49.3937 5 49.3956 5C49.3976 5 49.3995 5 49.4015 5C49.4034 5 49.4054 5 49.4073 5C49.4093 5 49.4112 5 49.4132 5C49.4151 5 49.4171 5 49.419 5C49.421 5 49.4229 5 49.4249 5C49.4268 5 49.4288 5 49.4307 5C49.4327 5 49.4346 5 49.4366 5C49.4385 5 49.4405 5 49.4424 5C49.4444 5 49.4463 5 49.4483 5C49.4502 5 49.4522 5 49.4541 5C49.4561 5 49.458 5 49.46 5C49.4619 5 49.4639 5 49.4658 5C49.4678 5 49.4697 5 49.4717 5C49.4736 5 49.4756 5 49.4775 5C49.4795 5 49.4814 5 49.4834 5C49.4853 5 49.4873 5 49.4892 5C49.4912 5 49.4931 5 49.4951 5C49.497 5 49.499 5 49.5009 5C49.5029 5 49.5048 5 49.5068 5C49.5087 5 49.5107 5 49.5126 5C49.5146 5 49.5165 5 49.5185 5C49.5204 5 49.5224 5 49.5243 5C49.5263 5 49.5282 5 49.5302 5C49.5321 5 49.5341 5 49.536 5C49.538 5 49.5399 5 49.5419 5C49.5438 5 49.5458 5 49.5477 5C49.5497 5 49.5516 5 49.5536 5C49.5555 5 49.5575 5 49.5594 5C49.5614 5 49.5633 5 49.5653 5C49.5672 5 49.5692 5 49.5711 5C49.5731 5 49.575 5 49.577 5C49.5789 5 49.5809 5 49.5828 5C49.5848 5 49.5867 5 49.5887 5C49.5906 5 49.5926 5 49.5945 5C49.5965 5 49.5984 5 49.6004 5C49.6023 5 49.6043 5 49.6062 5C49.6082 5 49.6101 5 49.6121 5C49.614 5 49.616 5 49.6179 5C49.6199 5 49.6218 5 49.6238 5C49.6257 5 49.6277 5 49.6296 5C49.6316 5 49.6335 5 49.6355 5C49.6374 5 49.6394 5 49.6413 5C49.6433 5 49.6452 5 49.6472 5C49.6491 5 49.6511 5 49.653 5C49.655 5 49.6569 5 49.6589 5C49.6608 5 49.6628 5 49.6647 5C49.6667 5 49.6686 5 49.6706 5C49.6725 5 49.6745 5 49.6764 5C49.6784 5 49.6803 5 49.6823 5C49.6842 5 49.6862 5 49.6881 5C49.6901 5 49.692 5 49.694 5C49.6959 5 49.6979 5 49.6998 5C49.7018 5 49.7037 5 49.7057 5C49.7076 5 49.7096 5 49.7115 5C49.7135 5 49.7154 5 49.7174 5C49.7193 5 49.7213 5 49.7232 5C49.7252 5 49.7271 5 49.7291 5C49.731 5 49.733 5 49.7349 5C49.7369 5 49.7388 5 49.7408 5C49.7427 5 49.7447 5 49.7466 5C49.7486 5 49.7505 5 49.7525 5C49.7544 5 49.7564 5 49.7583 5C49.7603 5 49.7622 5 49.7642 5C49.7661 5 49.7681 5 49.77 5C49.772 5 49.7739 5 49.7759 5C49.7778 5 49.7798 5 49.7817 5C49.7837 5 49.7856 5 49.7876 5C49.7895 5 49.7915 5 49.7934 5C49.7954 5 49.7973 5 49.7993 5C49.8012 5 49.8032 5 49.8051 5C49.8071 5 49.809 5 49.811 5C49.8129 5 49.8149 5 49.8168 5C49.8188 5 49.8207 5 49.8227 5C49.8246 5 49.8266 5 49.8285 5C49.8305 5 49.8324 5 49.8344 5C49.8363 5 49.8383 5 49.8402 5C49.8422 5 49.8441 5 49.8461 5C49.848 5 49.85 5 49.8519 5C49.8539 5 49.8558 5 49.8578 5C49.8597 5 49.8617 5 49.8636 5C49.8656 5 49.8675 5 49.8695 5C49.8714 5 49.8734 5 49.8753 5C49.8773 5 49.8792 5 49.8812 5C49.8831 5 49.8851 5 49.887 5C49.889 5 49.8909 5 49.8929 5C49.8948 5 49.8968 5 49.8987 5C49.9007 5 49.9026 5 49.9046 5C49.9065 5 49.9085 5 49.9104 5C49.9124 5 49.9143 5 49.9163 5C49.9182 5 49.9202 5 49.9221 5C49.9241 5 49.926 5 49.928 5C49.9299 5 49.9319 5 49.9338 5C49.9358 5 49.9377 5 49.9397 5C49.9416 5 49.9436 5 49.9455 5C49.9475 5 49.9494 5 49.9514 5C49.9533 5 49.9553 5 49.9572 5C49.9592 5 49.9611 5 49.9631 5C49.965 5 49.967 5 49.9689 5C49.9709 5 49.9728 5 49.9748 5C49.9767 5 49.9787 5 49.9806 5C49.9826 5 49.9845 5 49.9865 5C49.9884 5 49.9904 5 49.9923 5C49.9943 5 49.9962 5 49.9982 5C50.0001 5 50.0021 5 50.004 5C50.006 5 50.0079 5 50.0099 5C50.0118 5 50.0138 5 50.0157 5C50.0177 5 50.0196 5 50.0216 5C50.0235 5 50.0255 5 50.0274 5C50.0294 5 50.0313 5 50.0333 5C50.0352 5 50.0372 5 50.0391 5C50.0411 5 50.043 5 50.045 5C50.0469 5 50.0489 5 50.0508 5C50.0528 5 50.0547 5 50.0567 5C50.0586 5 50.0606 5 50.0625 5C50.0645 5 50.0664 5 50.0684 5C50.0703 5 50.0723 5 50.0742 5C50.0762 5 50.0781 5 50.0801 5C50.082 5 50.084 5 50.0859 5C50.0879 5 50.0898 5 50.0918 5C50.0937 5 50.0957 5 50.0976 5C50.0996 5 50.1015 5 50.1035 5C50.1054 5 50.1074 5 50.1093 5C50.1113 5 50.1132 5 50.1152 5C50.1171 5 50.1191 5 50.121 5C50.123 5 50.1249 5 50.1269 5C50.1288 5 50.1308 5 50.1327 5C50.1347 5 50.1366 5 50.1386 5C50.1405 5 50.1425 5 50.1444 5C50.1464 5 50.1483 5 50.1503 5C50.1522 5 50.1542 5 50.1561 5C50.1581 5 50.16 5 50.162 5C50.1639 5 50.1659 5 50.1678 5C50.1698 5 50.1717 5 50.1737 5C50.1756 5 50.1776 5 50.1795 5C50.1815 5 50.1834 5 50.1854 5C50.1873 5 50.1893 5 50.1912 5C50.1932 5 50.1951 5 50.1971 5C50.199 5 50.201 5 50.2029 5C50.2049 5 50.2068 5 50.2088 5C50.2107 5 50.2127 5 50.2146 5C50.2166 5 50.2185 5 50.2205 5C50.2224 5 50.2244 5 50.2263 5C50.2283 5 50.2302 5 50.2322 5C50.2341 5 50.2361 5 50.238 5C50.24 5 50.2419 5 50.2439 5C50.2458 5 50.2478 5 50.2497 5C50.2517 5 50.2536 5 50.2556 5C50.2575 5 50.2595 5 50.2614 5C50.2634 5 50.2653 5 50.2673 5C50.2692 5 50.2712 5 50.2731 5C50.2751 5 50.277 5 50.279 5C50.2809 5 50.2829 5 50.2848 5C50.2868 5 50.2887 5 50.2907 5C50.2926 5 50.2946 5 50.2965 5C50.2985 5 50.3004 5 50.3024 5C50.3043 5 50.3063 5 50.3082 5C50.3102 5 50.3121 5 50.3141 5C50.316 5 50.318 5 50.3199 5C50.3219 5 50.3238 5 50.3258 5C50.3277 5 50.3297 5 50.3316 5C50.3336 5 50.3355 5 50.3375 5C50.3394 5 50.3414 5 50.3433 5C50.3453 5 50.3472 5 50.3492 5C50.3511 5 50.3531 5 50.355 5C50.357 5 50.3589 5 50.3609 5C50.3628 5 50.3648 5 50.3667 5C50.3687 5 50.3706 5 50.3726 5C50.3745 5 50.3765 5 50.3784 5C50.3804 5 50.3823 5 50.3843 5C50.3862 5 50.3882 5 50.3901 5C50.3921 5 50.394 5 50.396 5C50.3979 5 50.3999 5 50.4018 5C50.4038 5 50.4057 5 50.4077 5C50.4096 5 50.4116 5 50.4135 5C50.4155 5 50.4174 5 50.4194 5C50.4213 5 50.4233 5 50.4252 5C50.4272 5 50.4291 5 50.4311 5C50.433 5 50.435 5 50.4369 5C50.4389 5 50.4408 5 50.4428 5C50.4447 5 50.4467 5 50.4486 5C50.4506 5 50.4525 5 50.4545 5C50.4564 5 50.4584 5 50.4603 5C50.4623 5 50.4642 5 50.4662 5C50.4681 5 50.4701 5 50.472 5C50.474 5 50.4759 5 50.4779 5C50.4798 5 50.4818 5 50.4837 5C50.4857 5 50.4876 5 50.4896 5C50.4915 5 50.4935 5 50.4954 5C50.4974 5 50.4993 5 50.5013 5C50.5032 5 50.5052 5 50.5071 5C50.5091 5 50.511 5 50.513 5C50.5149 5 50.5169 5 50.5188 5C50.5208 5 50.5227 5 50.5247 5C50.5266 5 50.5286 5 50.5305 5C50.5325 5 50.5344 5 50.5364 5C50.5383 5 50.5403 5 50.5422 5C50.5442 5 50.5461 5 50.5481 5C50.55 5 50.552 5 50.5539 5C50.5559 5 50.5578 5 50.5598 5C50.5617 5 50.5637 5 50.5656 5C50.5676 5 50.5695 5 50.5715 5C50.5734 5 50.5754 5 50.5773 5C50.5793 5 50.5812 5 50.5832 5C50.5851 5 50.5871 5 50.589 5C50.591 5 50.5929 5 50.5949 5C50.5968 5 50.5988 5 50.6007 5C50.6027 5 50.6046 5 50.6066 5C50.6085 5 50.6105 5 50.6124 5C50.6144 5 50.6163 5 50.6183 5C50.6202 5 50.6222 5 50.6241 5C50.6261 5 50.628 5 50.63 5C50.6319 5 50.6339 5 50.6358 5C50.6378 5 50.6397 5 50.6417 5C50.6436 5 50.6456 5 50.6475 5C50.6495 5 50.6514 5 50.6534 5C50.6553 5 50.6573 5 50.6592 5C50.6612 5 50.6631 5 50.6651 5C50.667 5 50.669 5 50.6709 5C50.6729 5 50.6748 5 50.6768 5C50.6787 5 50.6807 5 50.6826 5C50.6846 5 50.6865 5 50.6885 5C50.6904 5 50.6924 5 50.6943 5C50.6963 5 50.6982 5 50.7002 5C50.7021 5 50.7041 5 50.706 5C50.708 5 50.7099 5 50.7119 5C50.7138 5 50.7157 5 50.7177 5C50.7197 5 50.7216 5 50.7236 5C50.7255 5 50.7274 5 50.7294 5C50.7313 5 50.7333 5 50.7353 5C50.7372 5 50.7391 5 50.7411 5C50.743 5 50.745 5 50.747 5C50.7489 5 50.7508 5 50.7528 5C50.7547 5 50.7567 5 50.7586 5C50.7606 5 50.7625 5 50.7645 5C50.7664 5 50.7684 5 50.7703 5C50.7723 5 50.7742 5 50.7762 5C50.7781 5 50.7801 5 50.782 5C50.784 5 50.7859 5 50.7879 5C50.7898 5 50.7918 5 50.7937 5C50.7957 5 50.7976 5 50.7996 5C50.8015 5 50.8035 5 50.8054 5C50.8074 5 50.8093 5 50.8113 5C50.8132 5 50.8152 5 50.8171 5C50.8191 5 50.821 5 50.823 5C50.8249 5 50.8269 5 50.8288 5C50.8308 5 50.8327 5 50.8347 5C50.8366 5 50.8386 5 50.8405 5C50.8425 5 50.8444 5 50.8464 5C50.8483 5 50.8503 5 50.8522 5C50.8542 5 50.8561 5 50.8581 5C50.86 5 50.862 5 50.8639 5C50.8659 5 50.8678 5 50.8698 5C50.8717 5 50.8737 5 50.8756 5C50.8776 5 50.8795 5 50.8815 5C50.8834 5 50.8854 5 50.8873 5C50.8893 5 50.8912 5 50.8932 5C50.8951 5 50.8971 5 50.899 5C50.901 5 50.9029 5 50.9049 5C50.9068 5 50.9088 5 50.9107 5C50.9127 5 50.9146 5 50.9166 5C50.9185 5 50.9205 5 50.9224 5C50.9244 5 50.9263 5 50.9283 5C50.9302 5 50.9322 5 50.9341 5C50.9361 5 50.938 5 50.94 5C50.9419 5 50.9439 5 50.9458 5C50.9478 5 50.9497 5 50.9517 5C50.9536 5 50.9556 5 50.9575 5C50.9595 5 50.9614 5 50.9634 5C50.9653 5 50.9673 5 50.9692 5C50.9712 5 50.9731 5 50.9751 5C50.977 5 50.979 5 50.9809 5C50.9829 5 50.9848 5 50.9868 5C50.9887 5 50.9907 5 50.9926 5C50.9946 5 50.9965 5 50.9985 5C51.0004 5 51.0024 5 51.0043 5C51.0063 5 51.0082 5 51.0102 5C51.0121 5 51.0141 5 51.016 5C51.018 5 51.0199 5 51.0219 5C51.0238 5 51.0258 5 51.0277 5C51.0297 5 51.0316 5 51.0336 5C51.0355 5 51.0375 5 51.0394 5C51.0414 5 51.0433 5 51.0453 5C51.0472 5 51.0492 5 51.0511 5V1C51.0492 1 51.0472 1 51.0453 1C51.0433 1 51.0414 1 51.0394 1C51.0375 1 51.0355 1 51.0336 1C51.0316 1 51.0297 1 51.0277 1C51.0258 1 51.0238 1 51.0219 1C51.0199 1 51.018 1 51.016 1C51.0141 1 51.0121 1 51.0102 1C51.0082 1 51.0063 1 51.0043 1C51.0024 1 51.0004 1 50.9985 1C50.9965 1 50.9946 1 50.9926 1C50.9907 1 50.9887 1 50.9868 1C50.9848 1 50.9829 1 50.9809 1C50.979 1 50.977 1 50.9751 1C50.9731 1 50.9712 1 50.9692 1C50.9673 1 50.9653 1 50.9634 1C50.9614 1 50.9595 1 50.9575 1C50.9556 1 50.9536 1 50.9517 1C50.9497 1 50.9478 1 50.9458 1C50.9439 1 50.9419 1 50.94 1C50.938 1 50.9361 1 50.9341 1C50.9322 1 50.9302 1 50.9283 1C50.9263 1 50.9244 1 50.9224 1C50.9205 1 50.9185 1 50.9166 1C50.9146 1 50.9127 1 50.9107 1C50.9088 1 50.9068 1 50.9049 1C50.9029 1 50.901 1 50.899 1C50.8971 1 50.8951 1 50.8932 1C50.8912 1 50.8893 1 50.8873 1C50.8854 1 50.8834 1 50.8815 1C50.8795 1 50.8776 1 50.8756 1C50.8737 1 50.8717 1 50.8698 1C50.8678 1 50.8659 1 50.8639 1C50.862 1 50.86 1 50.8581 1C50.8561 1 50.8542 1 50.8522 1C50.8503 1 50.8483 1 50.8464 1C50.8444 1 50.8425 1 50.8405 1C50.8386 1 50.8366 1 50.8347 1C50.8327 1 50.8308 1 50.8288 1C50.8269 1 50.8249 1 50.823 1C50.821 1 50.8191 1 50.8171 1C50.8152 1 50.8132 1 50.8113 1C50.8093 1 50.8074 1 50.8054 1C50.8035 1 50.8015 1 50.7996 1C50.7976 1 50.7957 1 50.7937 1C50.7918 1 50.7898 1 50.7879 1C50.7859 1 50.784 1 50.782 1C50.7801 1 50.7781 1 50.7762 1C50.7742 1 50.7723 1 50.7703 1C50.7684 1 50.7664 1 50.7645 1C50.7625 1 50.7606 1 50.7586 1C50.7567 1 50.7547 1 50.7528 1C50.7508 1 50.7489 1 50.747 1C50.745 1 50.743 1 50.7411 1C50.7391 1 50.7372 1 50.7353 1C50.7333 1 50.7313 1 50.7294 1C50.7274 1 50.7255 1 50.7236 1C50.7216 1 50.7197 1 50.7177 1C50.7157 1 50.7138 1 50.7119 1C50.7099 1 50.708 1 50.706 1C50.7041 1 50.7021 1 50.7002 1C50.6982 1 50.6963 1 50.6943 1C50.6924 1 50.6904 1 50.6885 1C50.6865 1 50.6846 1 50.6826 1C50.6807 1 50.6787 1 50.6768 1C50.6748 1 50.6729 1 50.6709 1C50.669 1 50.667 1 50.6651 1C50.6631 1 50.6612 1 50.6592 1C50.6573 1 50.6553 1 50.6534 1C50.6514 1 50.6495 1 50.6475 1C50.6456 1 50.6436 1 50.6417 1C50.6397 1 50.6378 1 50.6358 1C50.6339 1 50.6319 1 50.63 1C50.628 1 50.6261 1 50.6241 1C50.6222 1 50.6202 1 50.6183 1C50.6163 1 50.6144 1 50.6124 1C50.6105 1 50.6085 1 50.6066 1C50.6046 1 50.6027 1 50.6007 1C50.5988 1 50.5968 1 50.5949 1C50.5929 1 50.591 1 50.589 1C50.5871 1 50.5851 1 50.5832 1C50.5812 1 50.5793 1 50.5773 1C50.5754 1 50.5734 1 50.5715 1C50.5695 1 50.5676 1 50.5656 1C50.5637 1 50.5617 1 50.5598 1C50.5578 1 50.5559 1 50.5539 1C50.552 1 50.55 1 50.5481 1C50.5461 1 50.5442 1 50.5422 1C50.5403 1 50.5383 1 50.5364 1C50.5344 1 50.5325 1 50.5305 1C50.5286 1 50.5266 1 50.5247 1C50.5227 1 50.5208 1 50.5188 1C50.5169 1 50.5149 1 50.513 1C50.511 1 50.5091 1 50.5071 1C50.5052 1 50.5032 1 50.5013 1C50.4993 1 50.4974 1 50.4954 1C50.4935 1 50.4915 1 50.4896 1C50.4876 1 50.4857 1 50.4837 1C50.4818 1 50.4798 1 50.4779 1C50.4759 1 50.474 1 50.472 1C50.4701 1 50.4681 1 50.4662 1C50.4642 1 50.4623 1 50.4603 1C50.4584 1 50.4564 1 50.4545 1C50.4525 1 50.4506 1 50.4486 1C50.4467 1 50.4447 1 50.4428 1C50.4408 1 50.4389 1 50.4369 1C50.435 1 50.433 1 50.4311 1C50.4291 1 50.4272 1 50.4252 1C50.4233 1 50.4213 1 50.4194 1C50.4174 1 50.4155 1 50.4135 1C50.4116 1 50.4096 1 50.4077 1C50.4057 1 50.4038 1 50.4018 1C50.3999 1 50.3979 1 50.396 1C50.394 1 50.3921 1 50.3901 1C50.3882 1 50.3862 1 50.3843 1C50.3823 1 50.3804 1 50.3784 1C50.3765 1 50.3745 1 50.3726 1C50.3706 1 50.3687 1 50.3667 1C50.3648 1 50.3628 1 50.3609 1C50.3589 1 50.357 1 50.355 1C50.3531 1 50.3511 1 50.3492 1C50.3472 1 50.3453 1 50.3433 1C50.3414 1 50.3394 1 50.3375 1C50.3355 1 50.3336 1 50.3316 1C50.3297 1 50.3277 1 50.3258 1C50.3238 1 50.3219 1 50.3199 1C50.318 1 50.316 1 50.3141 1C50.3121 1 50.3102 1 50.3082 1C50.3063 1 50.3043 1 50.3024 1C50.3004 1 50.2985 1 50.2965 1C50.2946 1 50.2926 1 50.2907 1C50.2887 1 50.2868 1 50.2848 1C50.2829 1 50.2809 1 50.279 1C50.277 1 50.2751 1 50.2731 1C50.2712 1 50.2692 1 50.2673 1C50.2653 1 50.2634 1 50.2614 1C50.2595 1 50.2575 1 50.2556 1C50.2536 1 50.2517 1 50.2497 1C50.2478 1 50.2458 1 50.2439 1C50.2419 1 50.24 1 50.238 1C50.2361 1 50.2341 1 50.2322 1C50.2302 1 50.2283 1 50.2263 1C50.2244 1 50.2224 1 50.2205 1C50.2185 1 50.2166 1 50.2146 1C50.2127 1 50.2107 1 50.2088 1C50.2068 1 50.2049 1 50.2029 1C50.201 1 50.199 1 50.1971 1C50.1951 1 50.1932 1 50.1912 1C50.1893 1 50.1873 1 50.1854 1C50.1834 1 50.1815 1 50.1795 1C50.1776 1 50.1756 1 50.1737 1C50.1717 1 50.1698 1 50.1678 1C50.1659 1 50.1639 1 50.162 1C50.16 1 50.1581 1 50.1561 1C50.1542 1 50.1522 1 50.1503 1C50.1483 1 50.1464 1 50.1444 1C50.1425 1 50.1405 1 50.1386 1C50.1366 1 50.1347 1 50.1327 1C50.1308 1 50.1288 1 50.1269 1C50.1249 1 50.123 1 50.121 1C50.1191 1 50.1171 1 50.1152 1C50.1132 1 50.1113 1 50.1093 1C50.1074 1 50.1054 1 50.1035 1C50.1015 1 50.0996 1 50.0976 1C50.0957 1 50.0937 1 50.0918 1C50.0898 1 50.0879 1 50.0859 1C50.084 1 50.082 1 50.0801 1C50.0781 1 50.0762 1 50.0742 1C50.0723 1 50.0703 1 50.0684 1C50.0664 1 50.0645 1 50.0625 1C50.0606 1 50.0586 1 50.0567 1C50.0547 1 50.0528 1 50.0508 1C50.0489 1 50.0469 1 50.045 1C50.043 1 50.0411 1 50.0391 1C50.0372 1 50.0352 1 50.0333 1C50.0313 1 50.0294 1 50.0274 1C50.0255 1 50.0235 1 50.0216 1C50.0196 1 50.0177 1 50.0157 1C50.0138 1 50.0118 1 50.0099 1C50.0079 1 50.006 1 50.004 1C50.0021 1 50.0001 1 49.9982 1C49.9962 1 49.9943 1 49.9923 1C49.9904 1 49.9884 1 49.9865 1C49.9845 1 49.9826 1 49.9806 1C49.9787 1 49.9767 1 49.9748 1C49.9728 1 49.9709 1 49.9689 1C49.967 1 49.965 1 49.9631 1C49.9611 1 49.9592 1 49.9572 1C49.9553 1 49.9533 1 49.9514 1C49.9494 1 49.9475 1 49.9455 1C49.9436 1 49.9416 1 49.9397 1C49.9377 1 49.9358 1 49.9338 1C49.9319 1 49.9299 1 49.928 1C49.926 1 49.9241 1 49.9221 1C49.9202 1 49.9182 1 49.9163 1C49.9143 1 49.9124 1 49.9104 1C49.9085 1 49.9065 1 49.9046 1C49.9026 1 49.9007 1 49.8987 1C49.8968 1 49.8948 1 49.8929 1C49.8909 1 49.889 1 49.887 1C49.8851 1 49.8831 1 49.8812 1C49.8792 1 49.8773 1 49.8753 1C49.8734 1 49.8714 1 49.8695 1C49.8675 1 49.8656 1 49.8636 1C49.8617 1 49.8597 1 49.8578 1C49.8558 1 49.8539 1 49.8519 1C49.85 1 49.848 1 49.8461 1C49.8441 1 49.8422 1 49.8402 1C49.8383 1 49.8363 1 49.8344 1C49.8324 1 49.8305 1 49.8285 1C49.8266 1 49.8246 1 49.8227 1C49.8207 1 49.8188 1 49.8168 1C49.8149 1 49.8129 1 49.811 1C49.809 1 49.8071 1 49.8051 1C49.8032 1 49.8012 1 49.7993 1C49.7973 1 49.7954 1 49.7934 1C49.7915 1 49.7895 1 49.7876 1C49.7856 1 49.7837 1 49.7817 1C49.7798 1 49.7778 1 49.7759 1C49.7739 1 49.772 1 49.77 1C49.7681 1 49.7661 1 49.7642 1C49.7622 1 49.7603 1 49.7583 1C49.7564 1 49.7544 1 49.7525 1C49.7505 1 49.7486 1 49.7466 1C49.7447 1 49.7427 1 49.7408 1C49.7388 1 49.7369 1 49.7349 1C49.733 1 49.731 1 49.7291 1C49.7271 1 49.7252 1 49.7232 1C49.7213 1 49.7193 1 49.7174 1C49.7154 1 49.7135 1 49.7115 1C49.7096 1 49.7076 1 49.7057 1C49.7037 1 49.7018 1 49.6998 1C49.6979 1 49.6959 1 49.694 1C49.692 1 49.6901 1 49.6881 1C49.6862 1 49.6842 1 49.6823 1C49.6803 1 49.6784 1 49.6764 1C49.6745 1 49.6725 1 49.6706 1C49.6686 1 49.6667 1 49.6647 1C49.6628 1 49.6608 1 49.6589 1C49.6569 1 49.655 1 49.653 1C49.6511 1 49.6491 1 49.6472 1C49.6452 1 49.6433 1 49.6413 1C49.6394 1 49.6374 1 49.6355 1C49.6335 1 49.6316 1 49.6296 1C49.6277 1 49.6257 1 49.6238 1C49.6218 1 49.6199 1 49.6179 1C49.616 1 49.614 1 49.6121 1C49.6101 1 49.6082 1 49.6062 1C49.6043 1 49.6023 1 49.6004 1C49.5984 1 49.5965 1 49.5945 1C49.5926 1 49.5906 1 49.5887 1C49.5867 1 49.5848 1 49.5828 1C49.5809 1 49.5789 1 49.577 1C49.575 1 49.5731 1 49.5711 1C49.5692 1 49.5672 1 49.5653 1C49.5633 1 49.5614 1 49.5594 1C49.5575 1 49.5555 1 49.5536 1C49.5516 1 49.5497 1 49.5477 1C49.5458 1 49.5438 1 49.5419 1C49.5399 1 49.538 1 49.536 1C49.5341 1 49.5321 1 49.5302 1C49.5282 1 49.5263 1 49.5243 1C49.5224 1 49.5204 1 49.5185 1C49.5165 1 49.5146 1 49.5126 1C49.5107 1 49.5087 1 49.5068 1C49.5048 1 49.5029 1 49.5009 1C49.499 1 49.497 1 49.4951 1C49.4931 1 49.4912 1 49.4892 1C49.4873 1 49.4853 1 49.4834 1C49.4814 1 49.4795 1 49.4775 1C49.4756 1 49.4736 1 49.4717 1C49.4697 1 49.4678 1 49.4658 1C49.4639 1 49.4619 1 49.46 1C49.458 1 49.4561 1 49.4541 1C49.4522 1 49.4502 1 49.4483 1C49.4463 1 49.4444 1 49.4424 1C49.4405 1 49.4385 1 49.4366 1C49.4346 1 49.4327 1 49.4307 1C49.4288 1 49.4268 1 49.4249 1C49.4229 1 49.421 1 49.419 1C49.4171 1 49.4151 1 49.4132 1C49.4112 1 49.4093 1 49.4073 1C49.4054 1 49.4034 1 49.4015 1C49.3995 1 49.3976 1 49.3956 1C49.3937 1 49.3917 1 49.3898 1C49.3878 1 49.3859 1 49.3839 1C49.382 1 49.38 1 49.3781 1C49.3761 1 49.3742 1 49.3722 1C49.3703 1 49.3683 1 49.3664 1C49.3644 1 49.3625 1 49.3605 1C49.3586 1 49.3566 1 49.3547 1C49.3527 1 49.3508 1 49.3488 1C49.3469 1 49.3449 1 49.343 1C49.341 1 49.3391 1 49.3371 1C49.3352 1 49.3332 1 49.3313 1C49.3293 1 49.3274 1 49.3254 1C49.3235 1 49.3215 1 49.3196 1C49.3176 1 49.3157 1 49.3137 1C49.3118 1 49.3098 1 49.3079 1C49.3059 1 49.304 1 49.302 1C49.3001 1 49.2981 1 49.2962 1C49.2942 1 49.2923 1 49.2903 1C49.2884 1 49.2864 1 49.2845 1C49.2825 1 49.2806 1 49.2786 1C49.2767 1 49.2747 1 49.2728 1C49.2708 1 49.2689 1 49.2669 1C49.265 1 49.263 1 49.2611 1C49.2591 1 49.2572 1 49.2552 1C49.2533 1 49.2513 1 49.2494 1C49.2474 1 49.2455 1 49.2435 1C49.2416 1 49.2396 1 49.2377 1C49.2357 1 49.2338 1 49.2318 1C49.2299 1 49.2279 1 49.226 1C49.224 1 49.2221 1 49.2201 1C49.2182 1 49.2162 1 49.2143 1C49.2123 1 49.2104 1 49.2084 1C49.2065 1 49.2045 1 49.2026 1C49.2006 1 49.1987 1 49.1967 1C49.1948 1 49.1928 1 49.1909 1C49.1889 1 49.187 1 49.185 1C49.1831 1 49.1811 1 49.1792 1C49.1772 1 49.1753 1 49.1733 1C49.1714 1 49.1694 1 49.1675 1C49.1655 1 49.1636 1 49.1616 1C49.1597 1 49.1577 1 49.1558 1C49.1538 1 49.1519 1 49.1499 1C49.148 1 49.146 1 49.1441 1C49.1421 1 49.1402 1 49.1382 1C49.1363 1 49.1343 1 49.1324 1C49.1304 1 49.1285 1 49.1265 1C49.1246 1 49.1226 1 49.1207 1C49.1187 1 49.1168 1 49.1148 1C49.1129 1 49.1109 1 49.109 1C49.107 1 49.1051 1 49.1031 1C49.1012 1 49.0992 1 49.0973 1C49.0953 1 49.0934 1 49.0914 1C49.0895 1 49.0875 1 49.0856 1C49.0836 1 49.0817 1 49.0797 1C49.0778 1 49.0758 1 49.0739 1C49.0719 1 49.07 1 49.068 1C49.0661 1 49.0641 1 49.0622 1C49.0602 1 49.0583 1 49.0563 1C49.0544 1 49.0524 1 49.0505 1C49.0485 1 49.0466 1 49.0446 1C49.0427 1 49.0407 1 49.0388 1C49.0368 1 49.0349 1 49.0329 1C49.031 1 49.029 1 49.0271 1C49.0251 1 49.0232 1 49.0212 1C49.0193 1 49.0173 1 49.0154 1C49.0134 1 49.0115 1 49.0095 1C49.0076 1 49.0056 1 49.0037 1C49.0017 1 48.9998 1 48.9978 1C48.9959 1 48.9939 1 48.992 1C48.99 1 48.9881 1 48.9861 1C48.9842 1 48.9822 1 48.9803 1C48.9783 1 48.9764 1 48.9744 1C48.9725 1 48.9705 1 48.9686 1C48.9667 1 48.9647 1 48.9627 1C48.9608 1 48.9588 1 48.9569 1C48.955 1 48.953 1 48.951 1C48.9491 1 48.9471 1 48.9452 1C48.9433 1 48.9413 1 48.9394 1C48.9374 1 48.9354 1 48.9335 1C48.9316 1 48.9296 1 48.9277 1C48.9257 1 48.9237 1 48.9218 1C48.9199 1 48.9179 1 48.916 1C48.914 1 48.9121 1 48.9101 1C48.9082 1 48.9062 1 48.9043 1C48.9023 1 48.9004 1 48.8984 1C48.8965 1 48.8945 1 48.8926 1C48.8906 1 48.8887 1 48.8867 1C48.8848 1 48.8828 1 48.8809 1C48.8789 1 48.877 1 48.875 1C48.8731 1 48.8711 1 48.8692 1C48.8672 1 48.8653 1 48.8633 1C48.8614 1 48.8594 1 48.8575 1C48.8555 1 48.8536 1 48.8516 1C48.8497 1 48.8477 1 48.8458 1C48.8438 1 48.8419 1 48.8399 1C48.838 1 48.836 1 48.8341 1C48.8321 1 48.8302 1 48.8282 1C48.8263 1 48.8243 1 48.8224 1C48.8204 1 48.8185 1 48.8165 1C48.8146 1 48.8126 1 48.8107 1C48.8087 1 48.8068 1 48.8048 1C48.8029 1 48.8009 1 48.799 1C48.797 1 48.7951 1 48.7931 1C48.7912 1 48.7892 1 48.7873 1C48.7853 1 48.7834 1 48.7814 1C48.7795 1 48.7775 1 48.7756 1C48.7736 1 48.7717 1 48.7697 1C48.7678 1 48.7658 1 48.7639 1C48.7619 1 48.76 1 48.758 1C48.7561 1 48.7541 1 48.7522 1C48.7502 1 48.7483 1 48.7463 1C48.7444 1 48.7424 1 48.7405 1C48.7385 1 48.7366 1 48.7346 1C48.7327 1 48.7307 1 48.7288 1C48.7268 1 48.7249 1 48.7229 1C48.721 1 48.719 1 48.7171 1C48.7151 1 48.7132 1 48.7112 1C48.7093 1 48.7073 1 48.7054 1C48.7034 1 48.7015 1 48.6995 1C48.6976 1 48.6956 1 48.6937 1C48.6917 1 48.6898 1 48.6878 1C48.6859 1 48.6839 1 48.682 1C48.68 1 48.6781 1 48.6761 1C48.6742 1 48.6722 1 48.6703 1C48.6683 1 48.6664 1 48.6644 1C48.6625 1 48.6605 1 48.6586 1C48.6566 1 48.6547 1 48.6527 1C48.6508 1 48.6488 1 48.6469 1C48.6449 1 48.643 1 48.641 1C48.6391 1 48.6371 1 48.6352 1C48.6332 1 48.6313 1 48.6293 1C48.6274 1 48.6254 1 48.6235 1C48.6215 1 48.6196 1 48.6176 1C48.6157 1 48.6137 1 48.6118 1C48.6098 1 48.6079 1 48.6059 1C48.604 1 48.602 1 48.6001 1C48.5981 1 48.5962 1 48.5942 1C48.5923 1 48.5903 1 48.5884 1C48.5864 1 48.5845 1 48.5825 1C48.5806 1 48.5786 1 48.5767 1C48.5747 1 48.5728 1 48.5708 1C48.5689 1 48.5669 1 48.565 1C48.563 1 48.5611 1 48.5591 1C48.5572 1 48.5552 1 48.5533 1C48.5513 1 48.5494 1 48.5474 1C48.5455 1 48.5435 1 48.5416 1C48.5396 1 48.5377 1 48.5357 1C48.5338 1 48.5318 1 48.5299 1C48.5279 1 48.526 1 48.524 1C48.5221 1 48.5201 1 48.5182 1C48.5162 1 48.5143 1 48.5123 1C48.5104 1 48.5084 1 48.5065 1C48.5045 1 48.5026 1 48.5006 1C48.4987 1 48.4967 1 48.4948 1C48.4928 1 48.4909 1 48.4889 1C48.487 1 48.485 1 48.4831 1C48.4811 1 48.4792 1 48.4772 1C48.4753 1 48.4733 1 48.4714 1C48.4694 1 48.4675 1 48.4655 1C48.4636 1 48.4616 1 48.4597 1C48.4577 1 48.4558 1 48.4538 1C48.4519 1 48.4499 1 48.448 1C48.446 1 48.4441 1 48.4421 1C48.4402 1 48.4382 1 48.4363 1C48.4343 1 48.4324 1 48.4304 1C48.4285 1 48.4265 1 48.4246 1C48.4226 1 48.4207 1 48.4187 1C48.4168 1 48.4148 1 48.4129 1C48.4109 1 48.409 1 48.407 1C48.4051 1 48.4031 1 48.4012 1C48.3992 1 48.3973 1 48.3953 1C48.3934 1 48.3914 1 48.3895 1C48.3875 1 48.3856 1 48.3836 1C48.3817 1 48.3797 1 48.3778 1C48.3758 1 48.3739 1 48.3719 1C48.37 1 48.368 1 48.3661 1C48.3641 1 48.3622 1 48.3602 1C48.3583 1 48.3563 1 48.3544 1C48.3524 1 48.3505 1 48.3485 1C48.3466 1 48.3446 1 48.3427 1C48.3407 1 48.3388 1 48.3368 1C48.3349 1 48.3329 1 48.331 1C48.329 1 48.3271 1 48.3251 1C48.3232 1 48.3212 1 48.3193 1C48.3173 1 48.3154 1 48.3134 1C48.3115 1 48.3095 1 48.3076 1C48.3056 1 48.3037 1 48.3017 1C48.2998 1 48.2978 1 48.2959 1C48.2939 1 48.292 1 48.29 1C48.2881 1 48.2861 1 48.2842 1C48.2822 1 48.2803 1 48.2783 1C48.2764 1 48.2744 1 48.2725 1C48.2705 1 48.2686 1 48.2666 1C48.2647 1 48.2627 1 48.2608 1C48.2588 1 48.2569 1 48.2549 1C48.253 1 48.251 1 48.2491 1C48.2471 1 48.2452 1 48.2432 1C48.2413 1 48.2393 1 48.2374 1C48.2354 1 48.2335 1 48.2315 1C48.2296 1 48.2276 1 48.2257 1C48.2237 1 48.2218 1 48.2198 1C48.2179 1 48.2159 1 48.214 1C48.212 1 48.2101 1 48.2081 1C48.2062 1 48.2042 1 48.2023 1C48.2003 1 48.1984 1 48.1964 1C48.1945 1 48.1925 1 48.1906 1C48.1886 1 48.1867 1 48.1847 1C48.1828 1 48.1808 1 48.1789 1C48.1769 1 48.175 1 48.173 1C48.1711 1 48.1691 1 48.1672 1C48.1652 1 48.1633 1 48.1613 1C48.1594 1 48.1574 1 48.1555 1C48.1535 1 48.1516 1 48.1496 1C48.1477 1 48.1457 1 48.1438 1C48.1418 1 48.1399 1 48.1379 1C48.136 1 48.134 1 48.1321 1C48.1301 1 48.1282 1 48.1262 1C48.1243 1 48.1223 1 48.1204 1C48.1184 1 48.1165 1 48.1145 1C48.1126 1 48.1106 1 48.1087 1C48.1067 1 48.1048 1 48.1028 1C48.1009 1 48.0989 1 48.097 1C48.095 1 48.0931 1 48.0911 1C48.0892 1 48.0872 1 48.0853 1C48.0833 1 48.0814 1 48.0794 1C48.0775 1 48.0755 1 48.0736 1C48.0716 1 48.0697 1 48.0677 1C48.0658 1 48.0638 1 48.0619 1C48.0599 1 48.058 1 48.056 1V5ZM50.7203 4.97245C51.7601 5.14683 52.5363 5.23695 53.3916 5.42293L54.2415 1.51427C53.2709 1.30321 52.1866 1.16249 51.3819 1.02755L50.7203 4.97245ZM53.3937 5.42337C62.0127 7.28811 68.0518 15.3025 67.4535 24.0873L71.4443 24.3591C72.1779 13.5873 64.7938 3.79725 54.2395 1.51383L53.3937 5.42337ZM67.4536 24.0866C67.4228 24.5363 67.441 25.1488 67.7502 25.7743C68.059 26.399 68.5335 26.7844 68.9047 27.0312L71.1196 23.7005C71.0291 23.6402 71.2029 23.7325 71.336 24.0017C71.4695 24.2717 71.4369 24.4664 71.4442 24.3598L67.4536 24.0866ZM68.9046 27.0312C72.7373 29.5801 75.2554 33.0297 76.432 37.4603L80.298 36.4336C78.8638 31.0329 75.7425 26.7748 71.1196 23.7005L68.9046 27.0312ZM76.4318 37.4596C76.7203 38.5475 76.8221 39.5338 77.0782 40.9177L81.0114 40.1899C80.822 39.1662 80.6353 37.7056 80.2982 36.4344L76.4318 37.4596ZM77.0448 40.5538V43.4335H81.0448V40.5538H77.0448ZM79.0448 41.4335H79.0437V45.4335H79.0448V41.4335ZM67.1896 26.4396C65.8548 32.1611 62.7326 36.3873 57.5584 38.9791L59.3498 42.5555C65.6782 39.3856 69.5042 34.1244 71.085 27.3484L67.1896 26.4396ZM57.5581 38.9793C52.3893 41.5693 47.1409 41.5133 41.7429 39.1366L40.131 42.7974C46.5081 45.6053 53.0116 45.7316 59.3501 42.5554L57.5581 38.9793ZM38.9452 40.7859C38.9408 40.8342 38.9053 41.1404 38.8996 41.3553L42.8982 41.4605C42.898 41.4676 42.8978 41.4586 42.9035 41.4014C42.9065 41.3711 42.9094 41.3438 42.9142 41.2973C42.9185 41.255 42.9237 41.2043 42.9288 41.1481L38.9452 40.7859ZM38.8999 41.3441C38.7649 45.5763 39.8351 49.5373 42.2042 53.0851L45.5307 50.8638C43.6455 48.0406 42.7882 44.9079 42.8979 41.4717L38.8999 41.3441ZM42.2041 53.085C43.0666 54.3768 44.2048 55.5698 45.0166 56.5131L48.0484 53.904C47.0366 52.7282 46.2126 51.8852 45.5308 50.8639L42.2041 53.085ZM45.0162 56.5127C45.0923 56.6012 44.972 56.5041 44.9321 56.2194C44.91 56.061 44.917 55.8647 44.9843 55.6582C45.0514 55.4523 45.1578 55.2988 45.2537 55.1982L48.1483 57.9589C48.741 57.3374 49.0123 56.5129 48.8935 55.6647C48.7884 54.9142 48.4055 54.3191 48.0488 53.9044L45.0162 56.5127ZM45.2521 55.1999C45.3435 55.1039 45.4821 54.9973 45.6707 54.9232C45.8612 54.8483 46.0564 54.825 46.2322 54.84C46.4027 54.8546 46.5282 54.9024 46.6026 54.9401C46.64 54.959 46.6664 54.9763 46.6826 54.9879C46.6908 54.9938 46.6967 54.9984 46.7005 55.0016C46.7024 55.0031 46.7038 55.0043 46.7047 55.0052C46.7056 55.006 46.706 55.0064 46.7061 55.0064L43.9628 57.9176C44.4259 58.3539 45.08 58.7561 45.8916 58.8255C46.7674 58.9003 47.5747 58.5617 48.1499 57.9572L45.2521 55.1999ZM46.7077 55.0079C46.6802 54.982 46.6523 54.9548 46.6252 54.9277L43.7967 57.7562C43.8504 57.8098 43.9056 57.8635 43.9612 57.916L46.7077 55.0079ZM46.6261 54.9287C42.6737 50.971 40.8957 46.2581 41.2061 40.6717L37.2123 40.4498C36.8394 47.1601 39.0318 52.9849 43.7958 57.7552L46.6261 54.9287ZM41.206 40.6736C41.2249 40.339 41.2189 39.8095 40.9642 39.2501C40.6968 38.6626 40.27 38.2872 39.895 38.0435L37.7154 41.3975C37.6832 41.3766 37.4694 41.2274 37.3237 40.9074C37.1908 40.6154 37.2154 40.3946 37.2124 40.4478L41.206 40.6736ZM39.8942 38.043C36.3446 35.7386 33.8926 32.6268 32.5408 28.6297L28.7517 29.9112C30.3985 34.7806 33.4289 38.6147 37.7162 41.398L39.8942 38.043ZM32.5411 28.6304C32.297 27.9078 32.1404 27.2482 31.8767 26.3333L28.0331 27.4409C28.2357 28.1441 28.4715 29.0819 28.7514 29.9105L32.5411 28.6304ZM28.9893 25.1356C28.9898 25.1353 28.9869 25.137 28.975 25.1431C28.9683 25.1465 28.9622 25.1496 28.9509 25.1555C28.941 25.1605 28.9267 25.1678 28.9113 25.1758C28.8565 25.2043 28.7233 25.2739 28.5761 25.3787L30.8951 28.6378C30.8488 28.6708 30.8104 28.6942 30.7867 28.7079C30.7749 28.7148 30.7659 28.7197 30.7611 28.7223C30.7564 28.7249 30.7544 28.7259 30.7567 28.7247C30.7594 28.7233 30.7635 28.7212 30.7727 28.7165C30.7764 28.7146 30.7826 28.7114 30.7878 28.7088C30.7935 28.7058 30.8001 28.7025 30.8072 28.6988C30.8355 28.6842 30.875 28.6636 30.9205 28.6386L28.9893 25.1356ZM28.5574 25.3922C22.1135 30.0902 19.0038 36.5844 19.991 44.6047L23.961 44.116C23.1639 37.6396 25.5573 32.5296 30.9138 28.6243L28.5574 25.3922ZM19.991 44.6046C21.1701 54.1881 28.7246 61.2537 38.2301 62.1591L38.6094 58.1771C30.9081 57.4435 24.9033 51.7738 23.961 44.1161L19.991 44.6046ZM38.2298 62.159C46.5606 62.9538 54.687 58.3142 58.2646 50.7396L54.6478 49.0313C51.7873 55.0876 45.2556 58.8112 38.6097 58.1771L38.2298 62.159ZM58.2644 50.7401C59.2865 48.5778 59.8834 46.3198 60.1502 43.9951L56.1763 43.539C55.9537 45.4779 55.4634 47.3058 54.648 49.0307L58.2644 50.7401ZM60.1503 43.9946C60.1439 44.0502 60.0884 44.3586 59.7609 44.6337C59.4212 44.9192 59.0609 44.9406 58.8994 44.9226L59.3431 40.9472C58.6645 40.8715 57.8598 41.0065 57.1877 41.5713C56.5278 42.1258 56.2518 42.8792 56.1762 43.5395L60.1503 43.9946ZM58.8994 44.9226C58.6465 44.8943 58.31 44.7484 58.0765 44.4218C57.8611 44.1207 57.8634 43.8506 57.8713 43.7731L61.8509 44.1766C61.9176 43.5184 61.8033 42.7567 61.33 42.0949C60.8384 41.4076 60.1026 41.032 59.3431 40.9472L58.8994 44.9226ZM57.8711 43.7748C57.5304 47.164 56.3398 50.1976 54.2824 52.9088L57.4689 55.3268C59.9728 52.0271 61.4369 48.2948 61.851 44.1749L57.8711 43.7748ZM54.2822 52.9091C53.1436 54.41 51.7795 55.6991 50.2005 56.815L52.5089 60.0817C54.3924 58.7506 56.0615 57.182 57.469 55.3266L54.2822 52.9091ZM50.433 60.2233C58.1125 64.2112 70.1881 62.635 76.3631 52.5054L72.9477 50.4233C67.9849 58.5644 58.2971 59.7999 52.2764 56.6734L50.433 60.2233ZM76.363 52.5055C82.4214 42.5693 78.6425 30.5786 70.2123 25.2052L68.0623 28.5782C74.7772 32.8584 77.7988 42.4671 72.9478 50.4232L76.363 52.5055ZM67.1373 26.8917V26.894H71.1373V26.8917H67.1373ZM48.7614 23.8562C48.7189 23.8323 48.7038 23.8225 48.6332 23.7807C48.5791 23.7486 48.4542 23.6744 48.298 23.6052L46.6783 27.2626C46.6375 27.2446 46.6078 27.2289 46.5932 27.221C46.5808 27.2143 46.5768 27.2117 46.5928 27.2211C46.6004 27.2256 46.6087 27.2306 46.6222 27.2387C46.6347 27.2461 46.6507 27.2557 46.6681 27.266C46.7039 27.2872 46.7477 27.3129 46.799 27.3418L48.7614 23.8562ZM48.2837 23.599C42.516 21.0986 36.7233 21.2176 31.0553 23.9062L32.7695 27.5203C37.4038 25.322 41.9918 25.231 46.6927 27.2689L48.2837 23.599ZM31.0543 23.9067C30.7291 24.0612 30.1431 24.4048 29.8221 25.1323C29.5262 25.8028 29.631 26.4243 29.6783 26.6704L33.6063 25.915C33.6069 25.9178 33.6107 25.9377 33.6143 25.9706C33.6178 26.0035 33.6221 26.0575 33.6209 26.1275C33.6185 26.2718 33.5925 26.4959 33.4816 26.7472C33.2408 27.2929 32.8187 27.4969 32.7705 27.5198L31.0543 23.9067ZM29.677 26.6637C30.1023 28.9163 30.8829 31.0458 32.0371 33.0359L35.4972 31.029C34.5763 29.4411 33.951 27.741 33.6076 25.9217L29.677 26.6637ZM32.0369 33.0354C33.6205 35.7675 35.734 38.0116 38.4065 39.7966L40.6282 36.4703C38.4554 35.019 36.7693 33.2234 35.4975 31.0294L32.0369 33.0354ZM41.4716 38.5588C42.5077 33.7981 44.9747 30.0736 48.9467 27.2212L46.6136 23.9722C41.8485 27.394 38.8123 31.968 37.5631 37.7082L41.4716 38.5588ZM45.7802 25.5967V25.599H49.7802V25.5967H45.7802ZM60.323 39.9539C60.3383 39.9478 60.3137 39.9574 60.3807 39.9328C60.4041 39.9242 60.4722 39.8992 60.5523 39.8628C60.6407 39.8226 60.7586 39.7621 60.8875 39.6728L58.6107 36.3841C58.7246 36.3052 58.8263 36.2535 58.896 36.2218C58.9294 36.2066 58.9563 36.1957 58.9727 36.1892C58.9888 36.1828 59 36.1787 59.0018 36.178C59.0177 36.1722 58.9256 36.2049 58.8451 36.2369L60.323 39.9539ZM60.8901 39.6711C65.3838 36.5497 68.2356 32.2776 69.3857 26.919L65.4748 26.0796C64.5381 30.4438 62.2699 33.8424 58.6081 36.3858L60.8901 39.6711ZM69.3856 26.9195C69.479 26.4846 69.5729 25.723 69.1462 24.9576C68.7433 24.2351 68.0915 23.9154 67.8051 23.7835L66.132 27.4168C66.2692 27.48 65.903 27.3548 65.6525 26.9055C65.3781 26.4133 65.491 26.0037 65.4749 26.079L69.3856 26.9195ZM67.8034 23.7827C62.3436 21.2746 56.7686 21.1552 51.2081 23.4175L52.7155 27.1226C57.2541 25.276 61.679 25.3712 66.1337 27.4176L67.8034 23.7827ZM51.2082 23.4175C50.8968 23.5441 50.4748 23.7829 50.4056 23.8186L52.2415 27.3724C52.6594 27.1566 52.6182 27.1622 52.7154 27.1226L51.2082 23.4175ZM50.1571 27.2202C54.133 30.0748 56.5938 33.7881 57.6303 38.522L61.5378 37.6665C60.2867 31.9527 57.2559 27.3927 52.49 23.9709L50.1571 27.2202ZM57.584 38.0942V38.0954H61.584V38.0942H57.584ZM50.7625 27.0192C47.1028 30.6778 43.571 34.2107 39.972 37.8086L42.8 40.6375C46.3638 37.0748 49.9672 33.4702 53.5905 29.8481L50.7625 27.0192ZM40.5234 41.0274C40.604 41.066 40.6847 41.1026 40.7516 41.1328C40.8242 41.1656 40.8813 41.1911 40.9419 41.2191C41.0614 41.2741 41.1427 41.315 41.2039 41.3503L43.2024 37.8853C42.8409 37.6768 42.3181 37.4519 42.2486 37.4186L40.5234 41.0274ZM41.2001 41.3481C41.6282 41.5962 42.2961 41.8691 43.1094 41.7253C43.8779 41.5894 44.401 41.1431 44.7008 40.8395L41.8546 38.029C41.7897 38.0947 41.9855 37.862 42.413 37.7864C42.8852 37.7029 43.1982 37.8829 43.2061 37.8875L41.2001 41.3481ZM44.7001 40.8402C47.8354 37.6681 50.9946 34.525 54.1577 31.3608L51.3287 28.5329C48.176 31.6867 45.0011 34.8455 41.8552 38.0283L44.7001 40.8402ZM54.1574 31.361C54.3199 31.1985 54.5475 30.9488 54.5833 30.9111L51.681 28.1585C51.5044 28.3447 51.4573 28.4043 51.329 28.5326L54.1574 31.361ZM54.6431 28.2244C54.2886 27.8157 53.9647 27.4422 53.688 27.1229L50.6649 29.7422C50.9423 30.0623 51.267 30.4367 51.6212 30.8451L54.6431 28.2244ZM50.1765 28.4325V28.4337H54.1765V28.4325H50.1765ZM53.0129 29.4837C52.9195 29.5771 53.0308 29.4658 52.9374 29.5592C52.8809 29.6157 52.9183 29.5783 52.8618 29.6347C52.7759 29.7207 52.8722 29.6244 52.7863 29.7103C52.78 29.7166 52.7737 29.7229 52.7674 29.7292C52.7611 29.7354 52.7548 29.7417 52.7485 29.748C52.736 29.7606 52.7234 29.7732 52.7108 29.7858C52.5807 29.9158 52.5388 29.9578 52.4088 30.0878C52.3478 30.1488 52.3189 30.1777 52.2579 30.2387C52.1897 30.3069 52.2883 30.2083 52.2201 30.2764C52.1969 30.2997 52.2057 30.2909 52.1824 30.3142C52.1761 30.3205 52.1698 30.3267 52.1636 30.333C52.1573 30.3393 52.151 30.3456 52.1447 30.3519C52.1384 30.3582 52.1321 30.3645 52.1258 30.3708C52.1195 30.377 52.1133 30.3833 52.107 30.3896C52.0065 30.4901 51.9057 30.5909 51.8053 30.6913C51.7799 30.7166 51.529 30.9676 51.5037 30.9929C51.4041 31.0925 51.528 30.9686 51.4283 31.0682C51.4093 31.0873 51.4097 31.0868 51.3907 31.1059C51.2798 31.2168 51.4639 31.0327 51.353 31.1436C51.3467 31.1499 51.3404 31.1562 51.3341 31.1624C51.3279 31.1687 51.3216 31.175 51.3153 31.1813C51.2724 31.2242 51.3205 31.176 51.2776 31.219C51.2507 31.2459 51.2669 31.2297 51.24 31.2566C51.2204 31.2761 51.2218 31.2748 51.2023 31.2943C51.1329 31.3637 51.234 31.2626 51.1646 31.332C51.1583 31.3383 51.1521 31.3445 51.1458 31.3508C51.1395 31.3571 51.1332 31.3634 51.1269 31.3696C51.1205 31.3761 51.0957 31.4009 51.0893 31.4073C51.0865 31.4101 51.0544 31.4422 51.0516 31.445C50.9955 31.5011 51.0324 31.4642 50.9763 31.5203C50.9453 31.5513 50.9696 31.527 50.9386 31.558C50.9323 31.5642 50.9261 31.5705 50.9198 31.5768C50.9135 31.5831 50.9072 31.5893 50.901 31.5956C50.736 31.7606 50.7647 31.7319 50.5998 31.8968C50.1225 32.3741 49.8727 32.6239 49.3959 33.1007C49.3077 33.1888 49.3336 33.163 49.2455 33.2511C49.233 33.2636 49.2204 33.2762 49.2079 33.2887C49.1713 33.3253 49.2069 33.2897 49.1703 33.3263C49.1097 33.3868 49.1933 33.3033 49.1327 33.3639C49.1202 33.3764 49.1076 33.3889 49.0951 33.4015C48.9733 33.5233 49.1417 33.3548 49.0199 33.4767C49.0032 33.4934 48.9615 33.5351 48.9448 33.5518C48.9385 33.5581 48.9322 33.5644 48.926 33.5706C48.9197 33.5769 48.9134 33.5832 48.9072 33.5894C48.8759 33.6207 48.9009 33.5957 48.8696 33.627C48.7596 33.737 48.9044 33.5922 48.7944 33.7022C48.7696 33.727 48.5186 33.978 48.4938 34.0028C48.4863 34.0103 48.351 34.1456 48.3435 34.1531C48.3029 34.1937 48.3089 34.1877 48.2683 34.2283C48.2621 34.2345 48.2558 34.2408 48.2495 34.247C48.2433 34.2533 48.237 34.2596 48.2308 34.2658C48.2245 34.2721 48.2182 34.2784 48.212 34.2846C48.2057 34.2909 48.1994 34.2971 48.1932 34.3034C46.5398 35.9568 45.0394 37.4572 43.3847 39.1119L46.2131 41.9403C46.277 41.8765 46.4501 41.7034 46.5139 41.6395C46.5202 41.6333 46.5264 41.627 46.5327 41.6207C46.539 41.6145 46.5452 41.6082 46.5515 41.602C46.5578 41.5957 46.564 41.5894 46.5703 41.5832C46.5765 41.5769 46.5828 41.5706 46.5891 41.5644C46.6263 41.5272 46.5895 41.564 46.6267 41.5268C46.6329 41.5205 46.6392 41.5142 46.6455 41.508C46.6517 41.5017 46.658 41.4954 46.6643 41.4892C46.6953 41.4581 46.7083 41.4451 46.7394 41.414C46.7601 41.3933 46.7939 41.3595 46.8146 41.3388C46.8376 41.3158 46.8292 41.3242 46.8522 41.3013C46.8584 41.295 46.8647 41.2887 46.871 41.2825C46.8772 41.2762 46.8835 41.2699 46.8898 41.2637C46.8924 41.2611 46.9247 41.2287 46.9274 41.2261C46.9336 41.2198 46.9399 41.2136 46.9461 41.2073C46.9524 41.201 46.9587 41.1948 46.9649 41.1885C47.0197 41.1337 46.9853 41.1681 47.0401 41.1133C47.0464 41.1071 47.0526 41.1008 47.0589 41.0946C47.0651 41.0883 47.0714 41.082 47.0777 41.0758C47.0923 41.0611 47.1006 41.0528 47.1152 41.0382C47.2963 40.8571 47.2348 40.9186 47.4158 40.7376C47.4233 40.7301 47.5586 40.5948 47.5661 40.5873C47.5724 40.5811 47.5786 40.5748 47.5849 40.5685C47.5912 40.5623 47.5974 40.556 47.6037 40.5497C47.6125 40.5409 47.6325 40.521 47.6413 40.5122C47.6475 40.5059 47.6538 40.4997 47.66 40.4934C47.6663 40.4871 47.6726 40.4809 47.6788 40.4746C47.6851 40.4683 47.6914 40.4621 47.6976 40.4558C47.7039 40.4496 47.7101 40.4433 47.7164 40.437C47.7856 40.3678 47.9477 40.2057 48.0169 40.1365C48.22 39.9334 48.4148 39.7386 48.6179 39.5356C48.6742 39.4792 48.862 39.2915 48.9183 39.2351C49.0727 39.0807 48.9141 39.2393 49.0685 39.0849C49.2149 38.9386 49.0724 39.0811 49.2187 38.9347C49.2354 38.918 49.2396 38.9139 49.2563 38.8971C49.2625 38.8909 49.2688 38.8846 49.2751 38.8784C49.2813 38.8721 49.2876 38.8659 49.2938 38.8596C49.3997 38.7537 49.2255 38.9279 49.3314 38.822C49.3439 38.8095 49.3564 38.797 49.369 38.7845C49.3752 38.7782 49.3815 38.772 49.3877 38.7657C49.394 38.7594 49.4002 38.7532 49.4065 38.7469C49.4947 38.6587 49.3558 38.7976 49.4441 38.7094C49.4736 38.6798 49.4521 38.7014 49.4816 38.6718C49.4879 38.6656 49.4941 38.6593 49.5004 38.653C49.5067 38.6468 49.5129 38.6405 49.5192 38.6343C49.6198 38.5336 49.5687 38.5847 49.6694 38.484C49.6847 38.4687 49.8043 38.3491 49.8196 38.3338C49.8985 38.2549 50.0412 38.1123 50.1201 38.0334C50.1504 38.0031 50.1649 37.9885 50.1952 37.9582C50.2031 37.9503 50.2248 37.9286 50.2328 37.9207C50.2351 37.9184 50.268 37.8854 50.2703 37.8831C50.2766 37.8769 50.2828 37.8706 50.2891 37.8643C50.2954 37.8581 50.3016 37.8518 50.3079 37.8456C50.3177 37.8358 50.3356 37.8178 50.3454 37.808C50.3517 37.8017 50.358 37.7955 50.3642 37.7892C50.3705 37.783 50.3767 37.7767 50.383 37.7704C50.3893 37.7642 50.3955 37.7579 50.4018 37.7517C50.408 37.7454 50.4143 37.7391 50.4206 37.7329C50.567 37.5865 50.8752 37.2783 51.0216 37.1318C51.2235 36.9299 51.1203 37.0332 51.3222 36.8312C51.3285 36.825 51.3347 36.8187 51.341 36.8125C51.3473 36.8062 51.3535 36.7999 51.3598 36.7937C51.3807 36.7728 51.3765 36.777 51.3974 36.7561C51.4036 36.7498 51.4099 36.7436 51.4161 36.7373C51.4224 36.731 51.4287 36.7248 51.4349 36.7185C51.4412 36.7122 51.4475 36.706 51.4537 36.6997C51.46 36.6935 51.4663 36.6872 51.4725 36.6809C51.5082 36.6452 51.5871 36.5663 51.6228 36.5306C51.6986 36.4548 51.5847 36.5688 51.6604 36.493C51.6669 36.4865 51.6915 36.4619 51.698 36.4554C51.7105 36.4429 51.7231 36.4304 51.7356 36.4178C51.7419 36.4116 51.7481 36.4053 51.7544 36.399C51.7607 36.3928 51.7669 36.3865 51.7732 36.3803C51.8232 36.3303 51.7984 36.3551 51.8484 36.3051C51.8561 36.2973 51.8782 36.2752 51.886 36.2675C51.8922 36.2612 51.8985 36.255 51.9047 36.2487C51.911 36.2424 51.9173 36.2362 51.9235 36.2299C51.9506 36.2029 51.9341 36.2193 51.9611 36.1923C51.9674 36.186 51.9737 36.1798 51.9799 36.1735C51.9862 36.1672 51.9925 36.161 51.9987 36.1547C52.0468 36.1066 52.0259 36.1276 52.0739 36.0795C52.162 35.9914 52.1362 36.0173 52.2243 35.9291C52.3536 35.7999 52.3959 35.7576 52.5251 35.6283C52.5314 35.622 52.5377 35.6158 52.544 35.6095C52.5502 35.6032 52.5565 35.597 52.5628 35.5907C52.6439 35.5095 52.5192 35.6343 52.6004 35.5531C52.6066 35.5468 52.6129 35.5405 52.6192 35.5343C52.6254 35.528 52.6317 35.5217 52.638 35.5155C52.6443 35.5092 52.6505 35.5029 52.6568 35.4967C52.6631 35.4904 52.6693 35.4841 52.6756 35.4778C52.7007 35.4528 52.7258 35.4277 52.7508 35.4026C52.7571 35.3963 52.7634 35.3901 52.7696 35.3838C52.7759 35.3775 52.7822 35.3713 52.7884 35.365C52.7947 35.3587 52.801 35.3525 52.8073 35.3462C52.8135 35.3399 52.8198 35.3336 52.8261 35.3274C52.8996 35.2539 52.8278 35.3256 52.9013 35.2521C53.0288 35.1246 52.8491 35.3044 52.9766 35.1769C53.0433 35.1102 52.9851 35.1683 53.0518 35.1016C53.069 35.0845 53.1099 35.0435 53.1271 35.0264C53.1334 35.0201 53.1396 35.0138 53.1459 35.0075C53.1522 35.0013 53.1584 34.995 53.1647 34.9887C53.171 34.9825 53.1773 34.9762 53.1835 34.9699C53.1898 34.9636 53.1961 34.9574 53.2023 34.9511C53.251 34.9025 53.229 34.9244 53.2776 34.8758C53.328 34.8254 53.3025 34.851 53.3529 34.8005C53.4592 34.6942 53.3219 34.8316 53.4282 34.7253C53.4646 34.6889 53.693 34.4605 53.7294 34.424C53.7855 34.3679 53.7486 34.4049 53.8047 34.3487C53.8077 34.3458 53.8771 34.2764 53.88 34.2734C53.8999 34.2535 54.0108 34.1427 54.0307 34.1227C54.1804 33.973 54.1824 33.9711 54.3321 33.8213C54.3384 33.815 54.3447 33.8087 54.351 33.8025C54.3573 33.7962 54.3636 33.7899 54.3698 33.7836C54.4364 33.7171 54.341 33.8124 54.4075 33.7459C54.4084 33.745 54.4443 33.7091 54.4452 33.7082C54.4515 33.7019 54.4578 33.6957 54.4641 33.6894C54.4703 33.6831 54.4766 33.6768 54.4829 33.6705C54.5119 33.6416 54.5293 33.6241 54.5583 33.5951C54.5782 33.5752 54.5761 33.5773 54.596 33.5574C54.6023 33.5512 54.6086 33.5449 54.6149 33.5386C54.6211 33.5323 54.6274 33.526 54.6337 33.5197C54.64 33.5134 54.6463 33.5072 54.6526 33.5009C54.6588 33.4946 54.6651 33.4883 54.6714 33.482C54.6777 33.4757 54.684 33.4695 54.6903 33.4632C54.6965 33.4569 54.7028 33.4506 54.7091 33.4443C54.716 33.4375 54.7777 33.3757 54.7845 33.3689C54.7848 33.3687 54.8597 33.2937 54.86 33.2935C54.9099 33.2435 54.8855 33.268 54.9354 33.218C54.9718 33.1817 55.2008 32.9526 55.2372 32.9162C55.354 32.7994 55.196 32.9575 55.3127 32.8407C55.319 32.8344 55.3253 32.8281 55.3316 32.8219C55.3379 32.8156 55.3442 32.8093 55.3505 32.803C55.3568 32.7967 55.363 32.7904 55.3693 32.7841C55.3756 32.7778 55.3819 32.7715 55.3882 32.7652C55.3923 32.7612 55.4596 32.6938 55.4637 32.6897C55.47 32.6834 55.4763 32.6771 55.4826 32.6709C55.4889 32.6646 55.4952 32.6583 55.5015 32.652C55.5078 32.6457 55.514 32.6394 55.5203 32.6331C55.5266 32.6268 55.5329 32.6205 55.5392 32.6142C55.6422 32.5112 55.5873 32.5662 55.6903 32.4632C55.6966 32.4569 55.7029 32.4506 55.7091 32.4443C55.7154 32.438 55.7217 32.4317 55.728 32.4254C55.7343 32.4191 55.7406 32.4128 55.7469 32.4065C55.7532 32.4002 55.7595 32.3939 55.7658 32.3876C55.8271 32.3263 55.78 32.3734 55.8414 32.3121L53.0129 29.4837ZM44.3239 42.4689C44.8352 42.5939 44.9492 42.5962 45.1976 42.6806L46.4847 38.8933C46.0267 38.7377 45.3951 38.613 45.274 38.5833L44.3239 42.4689ZM45.1937 42.6792C45.7585 42.8725 46.4141 42.936 47.0933 42.7103C47.7114 42.5049 48.1436 42.1246 48.4118 41.8538L45.5696 39.0391C45.4835 39.1261 45.5804 38.998 45.832 38.9144C45.968 38.8692 46.1107 38.8496 46.2454 38.8545C46.3733 38.8592 46.4588 38.8844 46.4886 38.8947L45.1937 42.6792ZM48.4139 41.8517C51.0247 39.2075 53.6575 36.5908 56.2964 33.9507L53.4674 31.1229C50.8409 33.7506 48.1898 36.3854 45.5675 39.0413L48.4139 41.8517ZM56.2961 33.951C56.4515 33.7956 56.6423 33.5874 56.7453 33.4789L53.8448 30.7245C53.6431 30.9368 53.58 31.0102 53.4677 31.1226L56.2961 33.951ZM56.9185 30.9335C56.6048 30.4976 56.3013 30.0774 56.0511 29.73L52.8055 32.0681C53.0608 32.4224 53.3575 32.8333 53.6717 33.2698L56.9185 30.9335ZM55.8414 29.4837L55.8403 29.4826L53.014 32.3132L53.0152 32.3143L55.8414 29.4837ZM41.6869 37.8207C41.699 37.8219 41.7111 37.823 41.7233 37.8242C41.7354 37.8253 41.7475 37.8265 41.7596 37.8276L42.1388 33.8456C42.1267 33.8445 42.1146 33.8433 42.1025 33.8422C42.0903 33.841 42.0782 33.8399 42.0661 33.8387L41.6869 37.8207ZM43.3634 37.2509C46.2316 34.3827 49.0996 31.5147 51.9665 28.649L49.1386 25.82C46.2714 28.686 43.4031 31.5543 40.535 34.4224L43.3634 37.2509ZM51.9145 25.7699C51.3723 25.2657 50.6455 24.8493 49.7502 24.7957C48.8615 24.7425 48.094 25.064 47.497 25.4823L49.7923 28.7582C49.874 28.7009 49.7638 28.8037 49.5111 28.7886C49.2517 28.773 49.1395 28.6516 49.1905 28.6991L51.9145 25.7699ZM47.4924 25.4855C45.2206 27.0868 43.2953 29.0772 41.8492 31.5171L45.2902 33.5565C46.4203 31.6498 47.939 30.0645 49.7969 28.7549L47.4924 25.4855ZM41.8491 31.5172C41.1806 32.6453 40.5891 33.9519 40.0948 34.9211L43.6582 36.7383C44.2858 35.5076 44.703 34.5475 45.2903 33.5564L41.8491 31.5172ZM54.874 32.4298C52.425 34.8811 49.9829 37.3244 47.5983 39.7101L50.4274 42.5378C52.8119 40.1522 55.2543 37.7086 57.7037 35.2569L54.874 32.4298ZM49.0128 43.124C49.4653 43.124 50.1754 43.1371 50.8518 43.1135L50.7127 39.116C50.1287 39.1363 49.5738 39.124 49.0128 39.124V43.124ZM50.8585 43.1133C51.6025 43.0849 52.2421 42.7199 52.6396 42.3224L49.8112 39.4939C49.938 39.3672 50.0599 39.2921 50.1598 39.2446C50.2523 39.2005 50.4381 39.1264 50.7059 39.1162L50.8585 43.1133ZM52.6338 42.3282C54.4633 40.5137 56.2864 38.6918 58.1006 36.8614L55.2596 34.0455C53.4543 35.867 51.6394 37.6807 49.8171 39.4881L52.6338 42.3282ZM58.1028 36.8592C58.4303 36.5277 58.6077 36.1466 58.6992 35.8657C58.7692 35.6504 58.9446 35.0336 58.689 34.3379L54.9344 35.7172C54.8124 35.3853 54.8178 35.1079 54.8281 34.9744C54.8397 34.8239 54.8698 34.7067 54.8956 34.6275C54.9349 34.507 55.0257 34.2823 55.2575 34.0477L58.1028 36.8592ZM58.6881 34.3355C58.4892 33.796 58.2046 33.2257 58.1061 33.0107L54.4692 34.676C54.6594 35.0912 54.8064 35.3704 54.9353 35.7196L58.6881 34.3355ZM56.2877 35.8434H56.2888V31.8434H56.2877V35.8434ZM56.1741 35.8203C55.0415 36.9587 53.9375 38.0696 52.7514 39.2626L55.5881 42.0828C56.775 40.8889 57.8778 39.7792 59.0097 38.6415L56.1741 35.8203ZM54.9245 42.5248C56.1342 42.0318 57.3304 41.5551 58.5048 41.0498L56.9238 37.3755C55.7967 37.8605 54.6637 38.3117 53.415 38.8206L54.9245 42.5248ZM58.4977 41.0528C58.9356 40.8664 59.2072 40.5781 59.3374 40.4216C59.4877 40.2408 59.5967 40.0562 59.6744 39.8947C59.7865 39.6619 60.0081 39.118 59.9008 38.4569L55.9525 39.0981C55.9023 38.7889 55.9459 38.5537 55.9683 38.4546C55.9955 38.3345 56.033 38.2372 56.0704 38.1595C56.1068 38.0838 56.1659 37.9794 56.262 37.8638C56.3381 37.7724 56.5512 37.5341 56.9308 37.3725L58.4977 41.0528ZM59.9014 38.461C59.8015 37.8374 59.6281 37.1684 59.5426 36.7907L55.6412 37.6734C55.7704 38.2444 55.8787 38.6373 55.9518 39.094L59.9014 38.461ZM59.5919 37.2321V37.2309H55.5919V37.2321H59.5919Z" fill="white" mask="url(#path-2-inside-1_2016_258)"/>
<path d="M50.8738 15.202C51.1579 15.5497 51.2661 15.9739 51.2506 16.3834L51.2506 16.3841C51.2418 16.6131 51.1963 16.8527 51.097 17.0798L51.7471 17.3891L51.0968 17.0801C51.0197 17.2563 50.9101 17.4251 50.76 17.5755C50.418 17.9184 49.981 18.0505 49.5803 18.0704C49.5798 18.0704 49.5793 18.0705 49.5789 18.0705L49.5659 17.8053M50.8738 15.202L47.616 17.8158C47.8525 17.8192 48.0893 17.82 48.3273 17.8192C48.6739 17.8181 49.0231 17.8136 49.378 17.809C49.414 17.8086 49.4499 17.8081 49.486 17.8077M50.8738 15.202L51.4158 14.7553L50.8731 15.2011L50.8738 15.202ZM49.5659 17.8053C49.5666 17.8052 49.5673 17.8052 49.568 17.8052M49.5659 17.8053L49.5299 17.0717M49.5659 17.8053C49.5398 17.8065 49.5132 17.8073 49.486 17.8077M49.568 17.8052L49.5299 17.0717M49.568 17.8052C49.8925 17.7896 50.1327 17.7088 50.3146 17.5946C50.5099 17.472 50.6933 17.2764 50.8439 16.9599L49.568 17.8052ZM49.5299 17.0717C49.9778 17.0498 50.234 16.7958 50.2513 16.3457C50.2675 15.9175 50.0205 15.6405 49.6223 15.5886C49.3296 15.551 49.0314 15.5599 48.73 15.569C48.5963 15.573 48.462 15.577 48.3273 15.577V16.0763V16.577V17.0763C48.4661 17.0763 48.5985 17.0778 48.7266 17.0792C49.0087 17.0823 49.2696 17.0852 49.5299 17.0717ZM49.486 17.8077C49.4858 17.8077 49.4856 17.8077 49.4854 17.8077L49.489 18.0745M49.486 17.8077L47.6122 18.0763H48.3273C48.4402 18.0763 48.5582 18.0776 48.6787 18.0789C48.9447 18.0818 49.2233 18.0848 49.489 18.0745M49.486 17.8077L49.4894 18.0745M49.486 17.8077L49.4894 18.0745M49.489 18.0745L49.4988 18.8076L49.4894 18.0745M49.489 18.0745C49.4891 18.0745 49.4893 18.0745 49.4894 18.0745" fill="white" stroke="white" stroke-width="2"/>
<path d="M31.8371 47.2468C32.5111 47.1453 33.0352 47.263 33.1737 48.0594L31.8371 47.2468ZM31.8371 47.2468C31.7251 47.2641 31.6051 47.2641 31.4932 47.2468H31.8371ZM33.3396 46.4982C33.3448 46.5121 33.35 46.526 33.3552 46.5398C33.3341 46.5256 33.3127 46.5117 33.2907 46.4982H33.3396Z" fill="white" stroke="white" stroke-width="2"/>
<mask id="path-6-inside-2_2016_258" fill="white">
<path d="M67.6343 48.6377C65.9999 48.6308 64.5653 47.6312 64.0009 46.1043C63.4377 44.5819 63.8832 42.8841 65.1251 41.8176C66.3404 40.7731 68.074 40.5849 69.4821 41.3444C70.1296 41.6941 70.3455 42.1362 70.1077 42.629C69.8584 43.1461 69.3806 43.228 68.6788 42.8737C67.8051 42.4339 66.8483 42.5586 66.1708 43.2003C65.5002 43.8351 65.3063 44.7885 65.6768 45.631C66.038 46.4528 66.8575 47.0034 67.7428 46.8868C68.1548 46.8325 68.5553 46.5844 68.927 46.3663C69.5295 46.0131 69.893 45.9992 70.2058 46.3916C70.5094 46.7725 70.4332 47.3127 69.9888 47.7317C69.3321 48.3538 68.5438 48.6573 67.6354 48.6377H67.6343Z"/>
</mask>
<path d="M67.6343 48.6377C65.9999 48.6308 64.5653 47.6312 64.0009 46.1043C63.4377 44.5819 63.8832 42.8841 65.1251 41.8176C66.3404 40.7731 68.074 40.5849 69.4821 41.3444C70.1296 41.6941 70.3455 42.1362 70.1077 42.629C69.8584 43.1461 69.3806 43.228 68.6788 42.8737C67.8051 42.4339 66.8483 42.5586 66.1708 43.2003C65.5002 43.8351 65.3063 44.7885 65.6768 45.631C66.038 46.4528 66.8575 47.0034 67.7428 46.8868C68.1548 46.8325 68.5553 46.5844 68.927 46.3663C69.5295 46.0131 69.893 45.9992 70.2058 46.3916C70.5094 46.7725 70.4332 47.3127 69.9888 47.7317C69.3321 48.3538 68.5438 48.6573 67.6354 48.6377H67.6343Z" fill="white"/>
<path d="M67.6343 48.6377L67.6258 50.6377H67.6343V48.6377ZM64.0009 46.1043L65.8769 45.4109L65.8766 45.4103L64.0009 46.1043ZM65.1251 41.8176L66.4281 43.3349L66.4287 43.3344L65.1251 41.8176ZM69.4821 41.3444L70.4326 39.5847L70.4315 39.5841L69.4821 41.3444ZM70.1077 42.629L68.3064 41.76L68.3062 41.7604L70.1077 42.629ZM68.6788 42.8737L69.5803 41.0884L69.578 41.0872L68.6788 42.8737ZM66.1708 43.2003L67.5457 44.6527L67.5461 44.6524L66.1708 43.2003ZM65.6768 45.631L67.5077 44.8262L67.5076 44.826L65.6768 45.631ZM67.7428 46.8868L67.4817 44.9039L67.4817 44.9039L67.7428 46.8868ZM68.927 46.3663L67.9155 44.6409L67.9146 44.6414L68.927 46.3663ZM70.2058 46.3916L71.7699 45.1452L71.7698 45.1451L70.2058 46.3916ZM69.9888 47.7317L68.6168 46.2765L68.6134 46.2797L69.9888 47.7317ZM67.6354 48.6377L67.6786 46.6382L67.657 46.6377H67.6354V48.6377ZM67.6428 46.6377C66.8369 46.6343 66.1502 46.1503 65.8769 45.4109L62.1249 46.7976C62.9804 49.1122 65.163 50.6272 67.6258 50.6377L67.6428 46.6377ZM65.8766 45.4103C65.607 44.6816 65.813 43.8631 66.4281 43.3349L63.8221 40.3003C61.9533 41.9051 61.2683 44.4822 62.1252 46.7982L65.8766 45.4103ZM66.4287 43.3344C67.0171 42.8286 67.855 42.7392 68.5327 43.1047L70.4315 39.5841C68.293 38.4307 65.6637 38.7175 63.8215 40.3008L66.4287 43.3344ZM68.5317 43.1041C68.6662 43.1767 68.4794 43.1178 68.329 42.8091C68.246 42.6389 68.1963 42.4335 68.202 42.2165C68.2076 42.0067 68.263 41.8498 68.3064 41.76L71.909 43.498C72.2562 42.7783 72.3341 41.8969 71.9248 41.0569C71.564 40.3166 70.9456 39.8617 70.4326 39.5847L68.5317 43.1041ZM68.3062 41.7604C68.3426 41.6849 68.4302 41.5367 68.6059 41.3919C68.7915 41.2389 69.0108 41.1436 69.2252 41.1068C69.5998 41.0427 69.7677 41.183 69.5803 41.0884L67.7774 44.659C68.2917 44.9187 69.0494 45.1952 69.9006 45.0494C70.9004 44.8781 71.5631 44.2155 71.9092 43.4976L68.3062 41.7604ZM69.578 41.0872C67.9999 40.2929 66.1234 40.4904 64.7954 41.7483L67.5461 44.6524C67.5674 44.6322 67.5823 44.624 67.589 44.6208C67.5958 44.6175 67.6019 44.6157 67.6095 44.6147C67.6199 44.6133 67.6762 44.6081 67.7797 44.6602L69.578 41.0872ZM64.7958 41.7479C63.5148 42.9605 63.1338 44.8165 63.846 46.4361L67.5076 44.826C67.4882 44.7819 67.4898 44.7533 67.4933 44.7362C67.4968 44.7189 67.5073 44.6891 67.5457 44.6527L64.7958 41.7479ZM63.8459 46.4359C64.5008 47.9256 66.0881 49.1219 68.0039 48.8697L67.4817 44.9039C67.5046 44.9009 67.5291 44.9024 67.5497 44.9072C67.5689 44.9116 67.5768 44.917 67.5745 44.9156C67.5718 44.9139 67.5612 44.9065 67.5473 44.8902C67.5334 44.874 67.5192 44.8524 67.5077 44.8262L63.8459 46.4359ZM68.0038 48.8697C68.9091 48.7505 69.7042 48.2291 69.9394 48.0911L67.9146 44.6414C67.807 44.7045 67.7346 44.7478 67.6537 44.7939C67.5782 44.8368 67.5221 44.8667 67.4772 44.8885C67.3769 44.9371 67.3912 44.9158 67.4817 44.9039L68.0038 48.8697ZM69.9384 48.0917C70.0256 48.0405 70.0471 48.036 70.0185 48.0463C69.9891 48.057 69.8598 48.1007 69.661 48.0993C69.4412 48.0978 69.2054 48.0413 68.9911 47.9228C68.7926 47.813 68.6821 47.6887 68.6418 47.6382L71.7698 45.1451C71.3392 44.6048 70.6451 44.1061 69.6891 44.0994C68.9228 44.094 68.2903 44.4212 67.9155 44.6409L69.9384 48.0917ZM68.6418 47.6381C68.4332 47.3765 68.3549 47.0388 68.4017 46.7392C68.4447 46.463 68.5736 46.3172 68.6168 46.2765L71.3608 49.1868C72.3315 48.2716 72.902 46.5657 71.7699 45.1452L68.6418 47.6381ZM68.6134 46.2797C68.3408 46.5379 68.0629 46.6465 67.6786 46.6382L67.5922 50.6372C69.0247 50.6682 70.3234 50.1696 71.3642 49.1836L68.6134 46.2797ZM67.6354 46.6377H67.6343V50.6377H67.6354V46.6377Z" fill="white" mask="url(#path-6-inside-2_2016_258)"/>
</svg>
