<svg width="14" height="14" viewBox="0 0 14 14" fill="none" xmlns="http://www.w3.org/2000/svg">
<path d="M1 9.30769V7C1 5.4087 1.63214 3.88258 2.75736 2.75736C3.88258 1.63214 5.4087 1 7 1C8.5913 1 10.1174 1.63214 11.2426 2.75736C12.3679 3.88258 13 5.4087 13 7V9.30769M3.76923 7.46154H4.69231C5.20211 7.46154 5.61538 7.87481 5.61538 8.38462V12.0769C5.61538 12.5867 5.20211 13 4.69231 13H3.76923C3.25943 13 2.84615 12.5867 2.84615 12.0769V8.38462C2.84615 7.87481 3.25943 7.46154 3.76923 7.46154ZM9.30769 7.46154H10.2308C10.7406 7.46154 11.1538 7.87481 11.1538 8.38462V12.0769C11.1538 12.5867 10.7406 13 10.2308 13H9.30769C8.79789 13 8.38462 12.5867 8.38462 12.0769V8.38462C8.38462 7.87481 8.79789 7.46154 9.30769 7.46154Z" stroke="#434343" stroke-linecap="round" stroke-linejoin="round"/>
</svg>
