<svg width="169" height="33" viewBox="0 0 169 33" fill="none" xmlns="http://www.w3.org/2000/svg">
<path d="M38.4995 29.4439C38.2752 29.4439 38.107 29.3598 37.9388 29.2196C37.7986 29.0794 37.7145 28.8832 37.7145 28.6589V7.2681C37.7145 7.01578 37.7986 6.81953 37.9388 6.67936C38.0789 6.53918 38.2752 6.45508 38.4995 6.45508H52.9656C53.2179 6.45508 53.4141 6.53918 53.5543 6.67936C53.6945 6.81953 53.7786 7.04382 53.7786 7.2681V9.4268C53.7786 9.65108 53.6945 9.81929 53.5543 9.9875C53.4141 10.1277 53.1899 10.2118 52.9656 10.2118H42.144V16.0151H52.2367C52.489 16.0151 52.6852 16.0992 52.8254 16.2393C52.9656 16.3795 53.0497 16.5758 53.0497 16.8281V18.8746C53.0497 19.127 52.9656 19.2952 52.8254 19.4634C52.6852 19.6036 52.461 19.6877 52.2367 19.6877H42.144V25.6872H53.2179C53.4702 25.6872 53.6665 25.7713 53.8066 25.9115C53.9468 26.0516 54.0309 26.2759 54.0309 26.5002V28.6589C54.0309 28.8832 53.9468 29.0514 53.8066 29.2196C53.6665 29.3598 53.4422 29.4439 53.2179 29.4439H38.4995Z" fill="#1C0060"/>
<path d="M63.9835 29.7804C62.834 29.7804 61.8528 29.5841 60.9837 29.1916C60.1146 28.7992 59.4137 28.2665 58.825 27.5656C58.2643 26.8647 57.8157 26.0517 57.5074 25.0985C57.199 24.1453 57.0308 23.108 56.9747 21.9586C56.9467 21.5661 56.9467 21.2016 56.9467 20.8932C56.9467 20.5849 56.9467 20.2204 56.9747 19.8279C57.0308 18.7345 57.199 17.7253 57.4793 16.7721C57.7877 15.8189 58.2082 15.0059 58.797 14.305C59.3857 13.6041 60.0866 13.0434 60.9557 12.6509C61.8248 12.2584 62.834 12.0622 63.9554 12.0622C65.1329 12.0622 66.1422 12.2584 66.9552 12.679C67.7682 13.0714 68.4691 13.6041 69.0018 14.2489V6.95979C69.0018 6.73551 69.0859 6.5673 69.226 6.39909C69.3662 6.25891 69.5625 6.1748 69.8148 6.1748H72.6183C72.8426 6.1748 73.0108 6.25891 73.179 6.39909C73.3192 6.53926 73.4033 6.73551 73.4033 6.95979V28.715C73.4033 28.9393 73.3192 29.1075 73.179 29.2757C73.0388 29.4159 72.8426 29.5 72.6183 29.5H70.011C69.7587 29.5 69.5905 29.4159 69.4223 29.2757C69.2821 29.1356 69.198 28.9393 69.198 28.715V27.5095C68.6373 28.1824 67.9645 28.7431 67.1234 29.1916C66.3104 29.5561 65.245 29.7804 63.9835 29.7804ZM65.189 26.248C66.1141 26.248 66.8431 26.0517 67.4038 25.6312C67.9645 25.2107 68.3569 24.678 68.6093 24.0332C68.8616 23.3884 69.0018 22.7155 69.0298 22.0427C69.0578 21.6502 69.0578 21.2297 69.0578 20.7811C69.0578 20.3325 69.0578 19.912 69.0298 19.5195C69.0018 18.8747 68.8616 18.2299 68.5812 17.6412C68.3009 17.0524 67.8804 16.5478 67.3197 16.1553C66.7589 15.7628 66.0581 15.5666 65.189 15.5666C64.2638 15.5666 63.5349 15.7628 63.0022 16.1833C62.4696 16.5758 62.0771 17.1085 61.8248 17.7813C61.5724 18.4262 61.4323 19.1551 61.4042 19.9401C61.3762 20.5849 61.3762 21.2577 61.4042 21.9025C61.4603 22.6875 61.6005 23.4164 61.8248 24.0612C62.0771 24.706 62.4415 25.2387 63.0022 25.6592C63.5349 26.0517 64.2638 26.248 65.189 26.248Z" fill="#1C0060"/>
<path d="M84.1126 29.7804C82.7669 29.7804 81.6175 29.472 80.6363 28.8833C79.655 28.2946 78.8981 27.4255 78.3934 26.3321C77.8608 25.2387 77.6085 23.9211 77.6085 22.4072V13.1836C77.6085 12.9593 77.6926 12.7911 77.8327 12.6229C77.9729 12.4827 78.1692 12.3986 78.3934 12.3986H81.2811C81.5334 12.3986 81.7016 12.4827 81.8698 12.6229C82.01 12.7631 82.0941 12.9593 82.0941 13.1836V22.2109C82.0941 24.9303 83.2996 26.276 85.6826 26.276C86.832 26.276 87.7291 25.9116 88.402 25.1827C89.0748 24.4537 89.4113 23.4725 89.4113 22.1829V13.1556C89.4113 12.9313 89.4954 12.7631 89.6355 12.5949C89.7757 12.4547 89.972 12.3706 90.1962 12.3706H93.0839C93.3081 12.3706 93.4763 12.4547 93.6446 12.5949C93.7847 12.7351 93.8688 12.9313 93.8688 13.1556V28.659C93.8688 28.8833 93.7847 29.0515 93.6446 29.2197C93.5044 29.3599 93.3081 29.444 93.0839 29.444H90.4205C90.1682 29.444 90 29.3599 89.8318 29.2197C89.6916 29.0795 89.6075 28.8833 89.6075 28.659V27.3133C89.0188 28.0703 88.2899 28.687 87.3927 29.1076C86.5236 29.5561 85.4303 29.7804 84.1126 29.7804Z" fill="#1C0060"/>
<path d="M99.3637 29.4439C99.1394 29.4439 98.9712 29.3598 98.803 29.2196C98.6628 29.0794 98.5787 28.8832 98.5787 28.6589V7.2681C98.5787 7.01578 98.6628 6.81953 98.803 6.67936C98.9431 6.53918 99.1394 6.45508 99.3637 6.45508H101.887C102.195 6.45508 102.419 6.53918 102.56 6.67936C102.7 6.81953 102.784 6.93168 102.84 6.98775L112.316 21.7062V7.29613C112.316 7.04382 112.4 6.84757 112.54 6.70739C112.68 6.56722 112.877 6.48311 113.129 6.48311H115.876C116.129 6.48311 116.325 6.56722 116.465 6.70739C116.605 6.84757 116.689 7.07185 116.689 7.29613V28.6589C116.689 28.9112 116.605 29.1075 116.465 29.2476C116.325 29.3878 116.129 29.4719 115.904 29.4719H113.325C113.017 29.4719 112.792 29.3878 112.68 29.2476C112.54 29.1075 112.456 28.9953 112.372 28.9393L102.952 14.5292V28.6589C102.952 28.8832 102.868 29.0514 102.728 29.2196C102.588 29.3598 102.363 29.4439 102.139 29.4439H99.3637Z" fill="#1C0060"/>
<path d="M128.77 29.7804C126.331 29.7804 124.424 29.0795 122.994 27.6778C121.565 26.276 120.808 24.2855 120.695 21.7063C120.667 21.482 120.667 21.2017 120.667 20.8652C120.667 20.5288 120.667 20.2485 120.695 20.0522C120.78 18.3982 121.172 16.9684 121.817 15.7629C122.49 14.5573 123.415 13.6602 124.592 13.0154C125.77 12.3706 127.172 12.0342 128.77 12.0342C130.536 12.0342 132.022 12.3986 133.227 13.1276C134.433 13.8565 135.33 14.8938 135.947 16.1834C136.563 17.473 136.872 18.9869 136.872 20.697V21.3979C136.872 21.6222 136.788 21.7904 136.647 21.9586C136.507 22.0988 136.283 22.1829 136.059 22.1829H125.153V22.4352C125.181 23.1922 125.321 23.9211 125.602 24.5659C125.882 25.2107 126.274 25.7434 126.807 26.1358C127.34 26.5283 127.985 26.7246 128.742 26.7246C129.358 26.7246 129.863 26.6405 130.283 26.4442C130.704 26.248 131.04 26.0517 131.293 25.7994C131.545 25.5471 131.741 25.3509 131.853 25.2107C132.05 24.9584 132.218 24.7902 132.33 24.7341C132.442 24.678 132.638 24.65 132.863 24.65H135.694C135.919 24.65 136.087 24.7061 136.227 24.8462C136.367 24.9864 136.423 25.1546 136.395 25.3509C136.367 25.7153 136.199 26.1358 135.862 26.6405C135.526 27.1451 135.021 27.6497 134.405 28.1263C133.76 28.6029 132.975 28.9954 132.022 29.3319C131.068 29.6122 129.975 29.7804 128.77 29.7804ZM125.156 19.4355H132.417V19.3233C132.417 18.4823 132.277 17.7253 131.996 17.0805C131.716 16.4357 131.296 15.9311 130.735 15.5666C130.174 15.2021 129.529 15.0339 128.772 15.0339C128.015 15.0339 127.343 15.2021 126.81 15.5666C126.249 15.9311 125.857 16.4357 125.576 17.0805C125.296 17.7253 125.156 18.4823 125.156 19.3233V19.4355Z" fill="#1C0060"/>
<path d="M146.827 29.7801C145.509 29.7801 144.388 29.64 143.463 29.3316C142.538 29.0232 141.781 28.6307 141.192 28.1821C140.603 27.7336 140.155 27.257 139.874 26.8084C139.594 26.3598 139.426 25.9674 139.426 25.659C139.398 25.4066 139.482 25.2384 139.65 25.0702C139.818 24.9301 139.986 24.8459 140.183 24.8459H142.79C142.874 24.8459 142.958 24.8459 143.014 24.874C143.07 24.902 143.154 24.9581 143.267 25.0702C143.547 25.3225 143.855 25.5749 144.164 25.8272C144.472 26.0795 144.865 26.3038 145.285 26.5C145.734 26.6963 146.266 26.7804 146.939 26.7804C147.78 26.7804 148.509 26.6122 149.098 26.2757C149.687 25.9393 149.967 25.4627 149.967 24.8179C149.967 24.3693 149.827 23.9769 149.602 23.6965C149.35 23.4162 148.874 23.1638 148.201 22.9115C147.528 22.6872 146.547 22.4349 145.313 22.1826C144.08 21.9023 143.07 21.5378 142.257 21.0892C141.444 20.6407 140.856 20.108 140.463 19.4352C140.071 18.7904 139.874 18.0054 139.874 17.1363C139.874 16.2672 140.127 15.4542 140.659 14.6972C141.164 13.9122 141.949 13.2674 142.958 12.7628C143.967 12.2582 145.229 12.0059 146.743 12.0059C147.92 12.0059 148.958 12.146 149.827 12.4544C150.696 12.7628 151.425 13.1273 152.013 13.5478C152.602 13.9964 153.051 14.4169 153.331 14.8654C153.64 15.314 153.808 15.7065 153.836 16.0429C153.864 16.2952 153.78 16.4634 153.64 16.6317C153.499 16.7718 153.303 16.8559 153.107 16.8559H150.668C150.556 16.8559 150.472 16.8279 150.359 16.7999C150.275 16.7438 150.191 16.6877 150.107 16.6317C149.855 16.4074 149.602 16.1831 149.322 15.9308C149.042 15.6785 148.705 15.4542 148.285 15.286C147.892 15.1178 147.36 15.0337 146.687 15.0337C145.846 15.0337 145.229 15.2019 144.78 15.5663C144.332 15.9308 144.136 16.3793 144.136 16.94C144.136 17.3045 144.248 17.6409 144.444 17.9213C144.64 18.2016 145.061 18.4539 145.706 18.7063C146.35 18.9586 147.304 19.2109 148.593 19.4632C150.051 19.7155 151.229 20.108 152.098 20.6407C152.967 21.1453 153.583 21.734 153.948 22.4069C154.312 23.0797 154.481 23.8086 154.481 24.6217C154.481 25.6029 154.2 26.5 153.611 27.285C153.023 28.07 152.182 28.6868 151.06 29.1353C149.883 29.5558 148.509 29.7801 146.827 29.7801Z" fill="#1C0060"/>
<path d="M165.496 29.4439C164.178 29.4439 163.085 29.2196 162.187 28.743C161.29 28.2944 160.617 27.5936 160.197 26.6964C159.748 25.7993 159.552 24.6499 159.552 23.3042V15.8468H156.945C156.721 15.8468 156.552 15.7627 156.384 15.6226C156.244 15.4824 156.16 15.2861 156.16 15.0338V13.1555C156.16 12.9312 156.244 12.763 156.384 12.5948C156.524 12.4546 156.721 12.3705 156.945 12.3705H159.552V6.90364C159.552 6.67936 159.636 6.51114 159.776 6.34293C159.917 6.20276 160.113 6.11865 160.365 6.11865H163.028C163.253 6.11865 163.421 6.20276 163.589 6.34293C163.729 6.48311 163.813 6.67936 163.813 6.90364V12.3705H167.907C168.131 12.3705 168.299 12.4546 168.467 12.5948C168.607 12.7349 168.692 12.9312 168.692 13.1555V15.0338C168.692 15.2861 168.607 15.4824 168.467 15.6226C168.327 15.7627 168.131 15.8468 167.907 15.8468H163.813V22.9678C163.813 23.8649 163.982 24.5658 164.29 25.0704C164.598 25.575 165.159 25.8273 165.944 25.8273H168.215C168.439 25.8273 168.607 25.9114 168.776 26.0516C168.916 26.1918 169 26.388 169 26.6123V28.6589C169 28.8832 168.916 29.0514 168.776 29.2196C168.635 29.3598 168.439 29.4439 168.215 29.4439H165.496Z" fill="#1C0060"/>
<path d="M28.5186 26.1077V29.4159C28.5186 29.8364 28.1541 30.2009 27.7336 30.2009H20.4164C20.2762 30.2009 20.108 30.2569 19.9959 30.313L16.6317 32.4717C16.4915 32.5558 16.3513 32.5839 16.2111 32.5839H13.688C13.5478 32.5839 13.3796 32.5278 13.2674 32.4717L9.90323 30.313C9.76306 30.2289 9.62288 30.2009 9.48271 30.2009H2.16554C1.74501 30.2009 1.38055 29.8364 1.38055 29.4159V26.1077C1.38055 25.6872 1.74501 25.3228 2.16554 25.3228H10.7163C10.8284 25.3228 10.9686 25.3508 11.0807 25.4069L14.5851 27.2291C14.8094 27.3413 15.0897 27.3413 15.314 27.2291L18.8184 25.4069C18.9305 25.3508 19.0427 25.3228 19.1829 25.3228H27.7336C28.1541 25.3228 28.5186 25.6872 28.5186 26.1077Z" fill="#884AFF"/>
<path d="M29.6962 15.5945L23.0519 22.2389C22.7155 22.5753 22.1548 22.5473 21.8744 22.1548C21.5941 21.7903 21.3137 21.4258 20.9773 21.0894C20.3885 20.5007 19.7437 20.0241 19.0709 19.6596C19.4914 19.127 19.9119 18.5943 20.3044 18.0616C17.7252 15.4263 16.5758 12.0621 15.2581 8.782C15.2301 11.5855 15.2301 14.389 15.2581 17.1925C15.2581 17.3327 15.3983 17.4729 15.5385 17.557C15.8749 17.8374 16.0711 18.2018 15.931 18.5943C15.931 18.613 15.9216 18.6317 15.9029 18.6504C15.3142 18.5943 14.6974 18.5943 14.0806 18.6504C13.9685 18.2859 14.0806 17.8654 14.4171 17.6131C14.6694 17.4449 14.7254 17.2766 14.7254 16.9963V9.09039C14.7254 8.97825 14.7254 8.86611 14.6974 8.6979C13.3517 12.0621 12.2303 15.4544 9.65109 18.0336C10.0436 18.5663 10.4641 19.0989 10.8846 19.6316C10.1838 19.9961 9.53895 20.5007 8.97825 21.0614C8.64183 21.3978 8.33344 21.7623 8.05309 22.1267C7.77274 22.5192 7.21204 22.5753 6.87561 22.2108L0.23129 15.5665C-0.0770966 15.2581 -0.0770966 14.7535 0.23129 14.4451L14.4451 0.23129C14.7535 -0.0770966 15.2581 -0.0770966 15.5665 0.23129L29.7803 14.4451C30.0046 14.7815 30.0046 15.2862 29.6962 15.5945Z" fill="#884AFF"/>
</svg>
