<svg width="889" height="395" viewBox="0 0 889 395" fill="none" xmlns="http://www.w3.org/2000/svg">
<path d="M836.007 0.432828C803.58 -0.13652 771.53 2.71022 740.235 13.8532C723.764 19.7093 708.116 27.5582 693.67 38.6198C674.934 52.9349 657.399 69.1613 640.654 86.5671C624.972 102.834 609.29 119.101 593.952 135.816C581.392 149.48 569.245 163.714 556.995 177.825C537.573 200.193 518.219 222.641 498.866 245.131C496.018 248.465 493.444 252.166 490.768 255.704C493.684 255.46 496.155 254.647 498.42 253.345C516.606 243.016 535.239 234.11 554.421 226.749C579.78 217.029 605.378 208.57 631.458 201.982C638.286 200.274 645.08 199.461 651.017 192.913C672.635 169.041 694.94 146.023 717.004 122.721C719.989 119.549 722.872 116.255 726.097 113.448C727.298 112.391 729.563 111.862 730.833 112.513C732.857 113.53 732.686 116.051 731.656 118.288C730.798 120.118 730.043 122.029 729.186 123.819C719.886 143.339 710.518 162.86 701.219 182.421C700.396 184.17 699.812 186.122 698.886 188.643C701.013 188.643 702.489 188.765 703.964 188.643C722.975 186.854 741.985 184.658 761.029 183.275C773.966 182.299 786.937 182.462 799.874 181.892C802.653 181.77 803.614 181.689 804.849 179.33C805.055 178.883 805.295 178.395 805.501 177.947C813.943 160.501 822.11 142.892 830.414 125.323C847.502 89.1698 864.591 53.0569 881.714 16.9439C883.876 12.3891 885.969 7.79369 888.44 2.46621C886.724 2.18154 885.694 1.89687 884.665 1.8562C868.4 1.36819 852.169 0.717502 835.904 0.432828H836.007Z" fill="#090909"/>
<path d="M857.175 196.817C840.327 196.817 823.479 196.817 806.63 196.817C782.61 198.281 758.555 198.037 734.604 200.071C707.083 202.389 679.7 206.293 652.66 212.84C633.17 217.558 613.645 222.235 594.394 228.01C580.051 232.32 565.982 237.851 552.016 243.707C537.5 249.767 522.985 256.03 509.019 263.634C493.543 272.093 478.479 281.65 463.69 291.654C441.934 306.336 421.86 323.945 404.154 345.051C394.82 356.154 385.83 367.581 379.344 381.327C375.913 388.606 378.246 393.771 385.281 394.585C386.345 394.707 387.408 394.666 388.472 394.666C410.982 394.666 433.493 394.219 456.003 394.91C464.822 395.195 472.543 394.137 478.788 386.166C479.2 385.678 479.715 385.312 480.161 384.865C499.205 366.564 519.451 350.257 540.452 335.413C563.442 319.105 587.119 304.18 611.826 291.614C638.626 277.95 665.528 264.773 693.632 255.257C714.118 248.343 734.432 240.657 755.158 234.964C782.816 227.359 810.748 221.381 838.577 214.752C846.092 212.962 853.641 211.539 861.156 209.831C863.935 209.221 864.999 207.066 864.793 203.731C864.485 198.769 862.597 196.899 857.21 196.899L857.175 196.817Z" fill="#090909"/>
<path d="M381.302 352.535C395.611 331.713 412.666 314.267 431.161 299.057C446.123 286.735 462.113 276.202 477.555 264.652C479.065 263.513 479.545 262.171 480.231 260.016C480.746 258.389 480.883 255.095 481.021 253.306C485.481 199.868 490.045 146.431 494.3 92.9528C495.433 78.6378 494.06 64.5261 488.741 51.2684C480.574 30.8125 465.236 20.6049 448.868 11.9834C448.387 11.7394 448.25 11.658 447.735 11.3733C445.093 9.94998 444.167 11.902 443.412 13.1221C440.735 17.3515 438.402 21.9063 436 26.3797C422.137 52.2851 408.171 78.1091 394.582 104.177C390.224 112.555 385.832 121.298 383.327 130.57C381.096 138.867 381.062 148.098 380.822 156.964C379.381 216.217 378.145 275.47 376.876 334.763C376.738 341.839 376.876 348.915 376.876 355.951C376.876 357.13 376.876 358.269 376.807 359.408C376.738 360.424 378.214 357.862 378.557 357.293C379.449 355.707 380.204 353.999 381.234 352.535H381.302Z" fill="#090909"/>
<path d="M333.058 194.215C300.425 194.133 267.757 193.564 235.124 194.377C220.197 194.743 208.77 202.836 202.559 222.153C196.623 240.617 189.314 257.778 176.823 271.402C170.235 278.6 162.96 284.538 154.656 288.157C138.391 295.274 121.542 296.209 104.522 293.159C92.5465 291.004 80.6394 290.516 68.6979 293.566C58.7467 296.128 49.4817 299.625 43.408 310.565C30.7459 333.38 17.8093 355.991 5.00994 378.684C3.39716 381.53 1.99025 384.499 0 388.281C7.13744 388.281 13.2111 388.403 19.3191 388.281C41.8638 388.728 53.6681 389.867 71.5803 389.786C83.213 389.704 94.8113 391.006 105.723 385.76C125.214 376.406 137.499 358.756 145.117 336.023C150.95 318.617 160.867 305.685 175.828 298.934C186.98 293.932 198.716 292.468 210.555 292.712C230.663 293.119 250.806 294.135 270.914 293.973C280.488 293.891 290.233 291.817 296.684 281.976C302.209 273.517 307.631 264.855 312.16 255.623C319.95 239.722 327.018 223.374 334.327 207.147C335.357 204.829 336.249 202.348 336.798 199.786C337.724 195.557 336.798 194.174 333.058 194.174V194.215Z" fill="#090909"/>
<path d="M396.54 76.5626C400.761 69.5271 404.947 62.4103 408.653 54.9681C415.001 42.2797 421.041 29.3474 427.114 16.4557C429.482 11.4129 431.678 6.20748 434.389 0.0259888C429.551 0.0259888 425.845 0.0259888 422.105 0.0259888C395.339 0.0259888 368.608 -0.0960143 341.843 0.18866C332.784 0.269995 323.793 1.6527 315.523 6.9395C307.185 12.3076 300.013 18.9771 295.758 29.3881C291.846 39.0263 288.415 49.0306 283.679 58.0588C275.89 72.9432 265.046 84.2895 251.183 90.959C233.58 99.4586 215.29 100.191 196.657 96.9372C188.902 95.5951 181.079 93.2364 173.221 96.0018C168.828 97.5472 164.333 98.9299 160.181 101.167C152.048 105.518 144.19 110.032 138.597 119.182C127.513 137.361 119.106 157.288 110.047 176.809C107.714 181.811 105.552 186.894 103.39 192.018C102.292 194.58 103.219 195.719 105.518 195.475C107.165 195.312 108.812 195.028 110.425 194.987C138.357 194.662 166.255 194.54 194.187 193.93C198.751 193.848 203.555 192.466 207.81 190.392C217.898 185.511 226.271 178.191 230.08 165.259C231.418 160.663 233.065 156.149 234.85 151.798C246.071 124.469 263.811 106.006 288.792 98.4012C305.332 93.3584 322.18 94.1311 338.995 97.0185C350.353 98.9705 361.608 100.028 372.657 94.2531C381.373 89.6983 390.604 86.2416 396.472 76.4813L396.54 76.5626Z" fill="#090909"/>
<path d="M740.128 254.445C721.152 260.952 702.176 267.621 683.303 274.535C674.758 277.666 666.557 282.099 658.013 285.027C653.14 286.694 650.017 289.622 647.65 294.706C641.061 308.858 634.301 322.889 627.61 336.96C620.678 351.519 613.678 366.037 606.747 380.596C604.791 384.744 605.168 385.842 608.977 386.371C624.179 388.404 639.38 390.316 654.581 392.268C661.101 392.918 665.047 393 669.028 392.552C679.665 391.373 687.558 387.022 696.651 379.783C712.573 367.135 723.142 349.119 732.51 329.924C745.412 303.49 758.074 276.934 770.805 250.378C771.32 249.28 772.795 246.23 773.104 244.969C771.045 245.173 769.261 245.742 768.163 246.027C758.795 248.711 749.358 251.232 740.093 254.404L740.128 254.445Z" fill="#090909"/>
<path d="M269.438 309.019C260.996 308.043 252.589 306.864 244.148 305.969C229.942 304.465 215.77 303.204 201.529 305.888C193.019 307.515 185.161 310.524 178.195 316.787C167.523 326.385 161.004 339.561 155.17 353.307C151.293 362.498 148.17 372.176 144.739 381.652C143.778 384.336 144.224 386.207 147.106 386.532C159.631 387.834 172.156 389.216 178.71 389.948C199.299 389.867 213.745 388.81 227.334 381.855C238.383 376.203 248.129 368.557 255.403 356.723C263.364 343.75 268.1 329.15 272.458 314.225C273.487 310.646 272.252 309.385 269.404 309.06L269.438 309.019Z" fill="#090909"/>
<path d="M361.298 114.018C337.037 110.968 312.743 107.552 288.482 113.693C276.163 116.824 266.041 123.941 258.457 136.182C251.217 147.853 248.197 161.436 245.074 175.02C244.216 178.761 246.035 178.964 248.609 179.859C252.212 181.12 265.423 182.38 275.546 182.299C287.83 180.998 300.252 180.55 312.4 178.192C328.836 174.979 343.008 165.869 353.062 149.724C357.901 141.957 361.675 133.213 365.759 124.754C369.842 116.295 369.362 115.035 361.298 114.018Z" fill="#090909"/>
</svg>
