<svg width="91" height="16" viewBox="0 0 91 16" fill="none" xmlns="http://www.w3.org/2000/svg">
<path d="M10.1763 12.5887H4.32385L3.27565 15.7579H0L5.54676 0H9.1063L14.522 15.7579H11.2027L10.1763 12.5887ZM9.30283 9.88171L7.27193 3.71939L5.2192 9.88171H9.30283Z" fill="#FF00E6"/>
<path d="M26.3359 10.718H18.5617C18.6053 11.657 18.7509 12.3246 18.9984 12.7208C19.4206 13.3663 20.083 13.6891 20.9856 13.6891C22.1066 13.6891 22.8564 13.2196 23.2349 12.2806H26.2048C25.87 13.425 25.2149 14.3347 24.2394 15.0096C23.2786 15.6699 22.1503 16 20.8546 16C19.093 16 17.7391 15.4058 16.7928 14.2173C15.963 13.1756 15.5481 11.8038 15.5481 10.1018C15.5481 8.03301 16.0867 6.43375 17.164 5.30399C18.1103 4.33563 19.3551 3.85144 20.8983 3.85144C22.0775 3.85144 23.1112 4.14489 23.9992 4.73177C24.8873 5.31866 25.5206 6.1403 25.8991 7.1967C26.2048 8.01834 26.3577 9.00871 26.3577 10.1678C26.3577 10.3145 26.3504 10.4979 26.3359 10.718ZM23.2131 8.71527C23.0675 7.0133 22.2886 6.16231 20.8764 6.16231C19.5516 6.16231 18.7946 7.0133 18.6053 8.71527H23.2131Z" fill="#FF00E6"/>
<path d="M33.9483 4.09353V6.09629H31.9174V12.5887C31.9174 13.0142 31.9902 13.3077 32.1358 13.4691C32.2959 13.6304 32.5798 13.7111 32.9875 13.7111C33.3223 13.7111 33.7518 13.5791 34.2759 13.315C34.3196 13.2856 34.356 13.2636 34.3851 13.249L34.7345 15.3177C33.8173 15.7726 32.8564 16 31.8519 16C29.8865 16 28.9038 15.0903 28.9038 13.271V6.09629H27.4189V4.09353H28.9038V2.15681L31.9174 0.418157V4.09353H33.9483Z" fill="#FF00E6"/>
<path d="M36.6775 0H39.6911V5.74415C40.5064 4.48235 41.6347 3.85144 43.0759 3.85144C44.095 3.85144 44.954 4.15222 45.6528 4.75378C46.4535 5.41403 46.8539 6.46309 46.8539 7.90096V15.7579H43.8403V8.51719C43.8403 7.12334 43.2288 6.42641 42.0059 6.42641C41.3216 6.42641 40.7612 6.63916 40.3244 7.06465C39.9022 7.49014 39.6911 8.04035 39.6911 8.71527V15.7579H36.6775V0Z" fill="#FF00E6"/>
<path d="M59.6681 10.718H51.8939C51.9376 11.657 52.0832 12.3246 52.3307 12.7208C52.7529 13.3663 53.4153 13.6891 54.3179 13.6891C55.4389 13.6891 56.1886 13.2196 56.5672 12.2806H59.5371C59.2022 13.425 58.5471 14.3347 57.5717 15.0096C56.6108 15.6699 55.4826 16 54.1869 16C52.4253 16 51.0714 15.4058 50.1251 14.2173C49.2952 13.1756 48.8803 11.8038 48.8803 10.1018C48.8803 8.03301 49.419 6.43375 50.4963 5.30399C51.4426 4.33563 52.6873 3.85144 54.2305 3.85144C55.4098 3.85144 56.4434 4.14489 57.3315 4.73177C58.2195 5.31866 58.8528 6.1403 59.2314 7.1967C59.5371 8.01834 59.6899 9.00871 59.6899 10.1678C59.6899 10.3145 59.6827 10.4979 59.6681 10.718ZM56.5453 8.71527C56.3997 7.0133 55.6209 6.16231 54.2087 6.16231C52.8839 6.16231 52.1268 7.0133 51.9376 8.71527H56.5453Z" fill="#FF00E6"/>
<path d="M61.7993 4.09353H64.8129V6.31637C65.1914 4.67309 66.2688 3.85144 68.0449 3.85144C68.3215 3.85144 68.518 3.85144 68.6345 3.85144L68.6563 6.84457C68.2924 6.77121 67.9139 6.73453 67.5208 6.73453C66.5308 6.73453 65.8466 6.91793 65.468 7.28473C65.0313 7.69555 64.8129 8.4365 64.8129 9.50757V15.7579H61.7993V4.09353Z" fill="#FF00E6"/>
<path d="M73.195 4.09353V15.7579H70.1814V4.09353H73.195ZM71.6664 0.0880332C72.0594 0.0880332 72.387 0.227419 72.649 0.50619C72.9257 0.784961 73.064 1.12242 73.064 1.51857C73.064 1.91472 72.9257 2.25218 72.649 2.53095C72.387 2.79505 72.0594 2.9271 71.6664 2.9271C71.2733 2.9271 70.9384 2.79505 70.6618 2.53095C70.3852 2.25218 70.2469 1.91472 70.2469 1.51857C70.2469 1.12242 70.3852 0.784961 70.6618 0.50619C70.9384 0.227419 71.2733 0.0880332 71.6664 0.0880332Z" fill="#FF00E6"/>
<path d="M86.0014 14.9876V15.7579H82.7258C82.5074 15.4791 82.3909 15.083 82.3764 14.5695C81.5756 15.5232 80.411 16 78.8823 16C77.7613 16 76.8587 15.6552 76.1745 14.9656C75.6212 14.4081 75.3446 13.6378 75.3446 12.6547C75.3446 11.1875 75.927 10.1458 77.0916 9.52957C77.5866 9.26547 78.5693 9.00138 80.0397 8.73728L82.3982 8.29711L82.3764 7.4608C82.3618 6.68317 81.7795 6.29436 80.6293 6.29436C79.8869 6.29436 79.3628 6.41174 79.057 6.64649C78.7659 6.86657 78.5839 7.2774 78.5111 7.87895H75.6285C75.8032 5.19395 77.4483 3.85144 80.5638 3.85144C82.2817 3.85144 83.5192 4.15956 84.2762 4.77579C84.9605 5.36268 85.3026 6.25034 85.3026 7.43879V13.9532C85.3026 14.4814 85.5355 14.8262 86.0014 14.9876ZM82.3982 10.1238L80.1926 10.63C79.5666 10.7767 79.1007 10.9895 78.795 11.2682C78.5038 11.547 78.3582 11.8918 78.3582 12.3026C78.3582 13.1389 78.8969 13.5571 79.9742 13.5571C81.532 13.5571 82.3327 12.6988 82.3764 10.9821L82.3982 10.1238Z" fill="#FF00E6"/>
<path d="M89.5806 13.0289C89.9736 13.0289 90.3085 13.1683 90.5851 13.447C90.8617 13.7111 91 14.0413 91 14.4374C91 14.8336 90.8617 15.171 90.5851 15.4498C90.3085 15.7286 89.9736 15.868 89.5806 15.868C89.202 15.868 88.8745 15.7286 88.5979 15.4498C88.3212 15.171 88.183 14.8336 88.183 14.4374C88.183 14.0413 88.314 13.7111 88.576 13.447C88.8526 13.1683 89.1875 13.0289 89.5806 13.0289Z" fill="#FF00E6"/>
</svg>
