<svg width="1245" height="205" viewBox="0 0 1245 205" fill="none" xmlns="http://www.w3.org/2000/svg">
<path d="M0.627686 0.939941H101.233C121.943 0.939941 137.713 4.16994 148.543 10.6299C166.973 21.4599 176.188 37.8949 176.188 59.9349C176.188 71.3349 173.338 81.4999 167.638 90.4299C161.938 99.3599 154.243 105.82 144.553 109.81C153.103 112.09 159.943 117.22 165.073 125.2C168.493 130.52 170.773 136.03 171.913 141.73C173.243 147.24 174.763 159.875 176.473 179.635C177.803 192.175 179.513 199.965 181.603 203.005L183.313 205H128.878C127.168 201.01 125.173 186.76 122.893 162.25C121.373 149.9 117.953 141.35 112.633 136.6C107.313 131.66 98.6677 129.19 86.6977 129.19H53.9227V205H0.627686V0.939941ZM53.9227 42.8349V90.9999H91.5427C113.013 90.9999 123.748 82.8299 123.748 66.4899C123.748 50.7199 112.823 42.8349 90.9727 42.8349H53.9227Z" fill="#17283E"/>
<path d="M377.974 0.939941V44.8299H267.964V78.7449H368.569V120.64H267.964V161.11H380.539V205H214.669V0.939941H377.974Z" fill="#17283E"/>
<path d="M521.465 0.939941L597.845 205H542.555L529.445 167.665H458.765L445.655 205H390.935L467.315 0.939941H521.465ZM517.19 129.475L507.5 101.83C501.8 85.1099 497.43 69.8149 494.39 55.9449C490.59 70.7649 485.935 86.2499 480.425 102.4L471.02 129.475H517.19Z" fill="#17283E"/>
<path d="M764.506 159.115V205H615.451V0.939941H668.746V159.115H764.506Z" fill="#17283E"/>
<path d="M844.644 0.939941V205H791.349V0.939941H844.644Z" fill="#17283E"/>
<path d="M1042.82 0.939941V46.8249H981.831V205H928.821V46.8249H868.116V0.939941H1042.82Z" fill="#17283E"/>
<path d="M1244.73 0.939941L1169.49 128.335V205H1116.19V128.335L1041.24 0.939941H1101.66L1125.31 44.2599C1131.77 56.0399 1137.76 69.1499 1143.27 83.5899C1149.92 66.6799 1156.38 52.5249 1162.65 41.1249L1185.16 0.939941H1244.73Z" fill="#17283E"/>
</svg>
