<svg width="764" height="765" viewBox="0 0 764 765" fill="none" xmlns="http://www.w3.org/2000/svg">
<mask id="mask0_2047_103" style="mask-type:alpha" maskUnits="userSpaceOnUse" x="0" y="375" width="390" height="390">
<rect y="375" width="390" height="390" fill="#D9D9D9"/>
</mask>
<g mask="url(#mask0_2047_103)">
<path d="M1.44393 427.8L36.543 459.778C10.1772 498.651 -2.10422 547.245 5.68601 597.341C22.0129 702.333 120.308 774.228 225.24 757.911C330.171 741.593 401.976 643.247 385.649 538.255C370.223 439.052 281.619 369.398 183.405 375.784C139.207 373.547 1.44393 427.8 1.44393 427.8Z" fill="url(#paint0_linear_2047_103)"/>
<path d="M115.23 553.546C115.002 553.469 114.836 553.324 114.731 553.11C114.626 552.897 114.612 552.677 114.689 552.45L122.228 530.222C122.305 529.994 122.45 529.828 122.663 529.723C122.876 529.618 123.097 529.604 123.324 529.681L126.529 530.768C126.779 530.853 126.945 530.998 127.027 531.203C127.132 531.416 127.146 531.636 127.069 531.864L119.53 554.092C119.453 554.319 119.308 554.485 119.095 554.591C118.905 554.703 118.684 554.717 118.434 554.633L115.23 553.546ZM125.008 556.862C124.781 556.785 124.615 556.64 124.51 556.427C124.405 556.214 124.391 555.994 124.468 555.767L129.925 539.675C130.003 539.448 130.148 539.281 130.361 539.176C130.574 539.071 130.794 539.057 131.021 539.134L133.817 540.082C134.044 540.16 134.21 540.305 134.315 540.518C134.421 540.731 134.435 540.951 134.357 541.178L133.883 542.576C134.721 542.049 135.675 541.701 136.746 541.532C137.848 541.348 139.08 541.488 140.444 541.95C141.83 542.42 142.927 543.147 143.734 544.13C144.549 545.091 145.036 546.232 145.196 547.553C145.379 548.882 145.2 550.343 144.661 551.934L141.412 561.513C141.334 561.741 141.189 561.907 140.976 562.012C140.763 562.117 140.543 562.131 140.316 562.054L137.316 561.037C137.088 560.96 136.922 560.814 136.817 560.601C136.712 560.388 136.698 560.168 136.775 559.941L139.955 550.565C140.402 549.247 140.423 548.101 140.018 547.128C139.636 546.162 138.832 545.471 137.604 545.055C136.423 544.654 135.352 544.709 134.393 545.22C133.434 545.731 132.731 546.646 132.284 547.964L129.104 557.339C129.027 557.566 128.882 557.733 128.669 557.838C128.456 557.943 128.236 557.957 128.008 557.88L125.008 556.862ZM146.283 564.078C146.056 564.001 145.889 563.856 145.784 563.643C145.679 563.43 145.665 563.21 145.742 562.982L151.2 546.891C151.277 546.663 151.422 546.497 151.635 546.392C151.848 546.287 152.068 546.273 152.296 546.35L155.091 547.298C155.319 547.375 155.485 547.52 155.59 547.733C155.695 547.946 155.709 548.167 155.632 548.394L155.158 549.792C155.995 549.265 156.95 548.917 158.021 548.748C159.122 548.564 160.355 548.703 161.719 549.166C163.105 549.636 164.202 550.363 165.009 551.346C165.823 552.307 166.311 553.448 166.471 554.769C166.653 556.098 166.475 557.558 165.935 559.149L162.686 568.729C162.609 568.956 162.464 569.123 162.251 569.228C162.038 569.333 161.818 569.347 161.59 569.27L158.59 568.252C158.363 568.175 158.197 568.03 158.092 567.817C157.986 567.604 157.972 567.384 158.049 567.157L161.229 557.781C161.676 556.463 161.698 555.317 161.293 554.343C160.911 553.378 160.106 552.686 158.879 552.27C157.697 551.869 156.627 551.924 155.668 552.435C154.709 552.947 154.006 553.861 153.559 555.179L150.379 564.555C150.302 564.782 150.157 564.948 149.943 565.053C149.73 565.159 149.51 565.173 149.283 565.096L146.283 564.078ZM174.465 574.017C172.646 573.4 171.22 572.561 170.186 571.501C169.175 570.448 168.536 569.231 168.27 567.848C168.027 566.473 168.122 564.997 168.555 563.421C168.671 563.004 168.829 562.5 169.03 561.909C169.23 561.318 169.411 560.822 169.572 560.421C170.195 558.883 171.029 557.658 172.073 556.745C173.148 555.818 174.408 555.244 175.851 555.023C177.317 554.811 178.936 555.005 180.709 555.607C182.482 556.208 183.874 557.035 184.885 558.088C185.919 559.148 186.57 560.37 186.836 561.752C187.132 563.12 187.06 564.603 186.619 566.202C186.503 566.619 186.344 567.123 186.144 567.714C185.944 568.305 185.763 568.801 185.601 569.202C184.986 570.717 184.152 571.942 183.1 572.878C182.07 573.821 180.823 574.399 179.357 574.611C177.914 574.832 176.283 574.633 174.465 574.017ZM175.609 570.641C176.814 571.05 177.873 570.991 178.787 570.465C179.708 569.915 180.453 568.914 181.022 567.459C181.161 567.126 181.322 566.687 181.507 566.141C181.692 565.596 181.831 565.149 181.924 564.8C182.357 563.3 182.371 562.063 181.966 561.089C181.569 560.093 180.769 559.39 179.564 558.982C178.359 558.573 177.297 558.644 176.375 559.193C175.462 559.719 174.72 560.71 174.151 562.164C174.013 562.497 173.851 562.936 173.666 563.482C173.481 564.027 173.342 564.474 173.249 564.823C172.816 566.324 172.798 567.572 173.195 568.568C173.6 569.542 174.405 570.233 175.609 570.641ZM192.555 579.772C192.192 579.649 191.946 579.477 191.818 579.256C191.721 579.02 191.654 578.769 191.617 578.504L190.607 560.522C190.6 560.393 190.612 560.283 190.643 560.193C190.712 559.988 190.838 559.841 191.021 559.751C191.234 559.645 191.443 559.627 191.647 559.697L194.409 560.633C194.682 560.726 194.859 560.875 194.942 561.08C195.032 561.263 195.076 561.43 195.076 561.582L195.551 575.086L204.144 564.658C204.236 564.537 204.373 564.431 204.556 564.341C204.746 564.228 204.978 564.218 205.25 564.311L208.046 565.259C208.228 565.32 208.36 565.454 208.442 565.659C208.555 565.85 208.577 566.047 208.507 566.252C208.477 566.343 208.43 566.441 208.369 566.547L196.595 580.192C196.427 580.388 196.221 580.547 195.977 580.667C195.742 580.764 195.442 580.751 195.078 580.628L192.555 579.772ZM210.159 586.123C208.977 585.722 207.986 585.132 207.185 584.354C206.393 583.553 205.843 582.67 205.537 581.704C205.261 580.724 205.289 579.745 205.621 578.768C206.16 577.177 207.236 576.135 208.848 575.642C210.467 575.127 212.376 575.065 214.575 575.456L219.477 576.358L219.72 575.643C220.043 574.688 220.055 573.868 219.755 573.184C219.455 572.499 218.726 571.96 217.567 571.567C216.748 571.29 216.02 571.233 215.382 571.396C214.774 571.545 214.252 571.849 213.817 572.31C213.535 572.544 213.224 572.603 212.883 572.487L210.189 571.574C209.939 571.489 209.769 571.355 209.679 571.173C209.612 570.998 209.617 570.797 209.694 570.569C209.84 570.214 210.138 569.82 210.588 569.39C211.061 568.968 211.662 568.614 212.392 568.33C213.153 568.03 214.057 567.868 215.104 567.843C216.152 567.818 217.335 568.029 218.653 568.476C220.085 568.962 221.228 569.552 222.082 570.247C222.966 570.927 223.604 571.663 223.994 572.455C224.385 573.246 224.581 574.086 224.584 574.974C224.587 575.862 224.438 576.749 224.138 577.635L220.507 588.34C220.43 588.568 220.285 588.734 220.072 588.839C219.859 588.944 219.638 588.958 219.411 588.881L216.65 587.944C216.4 587.86 216.222 587.711 216.117 587.498C216.034 587.292 216.032 587.076 216.109 586.849L216.56 585.519C216.126 585.828 215.593 586.091 214.962 586.308C214.331 586.524 213.609 586.634 212.797 586.638C212.015 586.626 211.136 586.454 210.159 586.123ZM212.416 583.277C213.212 583.547 213.986 583.619 214.738 583.494C215.512 583.377 216.201 583.028 216.804 582.446C217.437 581.85 217.938 581.007 218.308 579.916L218.551 579.2L214.957 578.589C213.546 578.339 212.435 578.329 211.621 578.56C210.808 578.791 210.29 579.236 210.066 579.895C209.897 580.395 209.898 580.877 210.07 581.341C210.272 581.79 210.582 582.186 210.997 582.53C211.421 582.851 211.894 583.1 212.416 583.277ZM232.448 593.303C231.085 592.84 230.018 592.212 229.248 591.419C228.478 590.626 228.024 589.686 227.885 588.6C227.754 587.491 227.928 586.232 228.406 584.823L231.031 577.084L228.337 576.17C228.11 576.093 227.944 575.948 227.839 575.735C227.733 575.522 227.723 575.291 227.808 575.041L228.467 573.097C228.544 572.87 228.689 572.704 228.902 572.599C229.115 572.494 229.336 572.48 229.563 572.557L232.256 573.47L234.176 567.811C234.253 567.584 234.387 567.413 234.577 567.301C234.79 567.196 235.021 567.185 235.271 567.27L238.033 568.207C238.26 568.284 238.426 568.429 238.532 568.642C238.637 568.855 238.651 569.075 238.574 569.302L236.654 574.962L240.916 576.407C241.143 576.484 241.309 576.629 241.414 576.842C241.519 577.056 241.534 577.276 241.456 577.503L240.797 579.446C240.713 579.696 240.564 579.874 240.351 579.979C240.137 580.084 239.917 580.098 239.69 580.021L235.428 578.576L232.919 585.974C232.603 586.906 232.516 587.687 232.657 588.317C232.82 588.956 233.311 589.414 234.129 589.691L236.482 590.489C236.709 590.566 236.875 590.711 236.98 590.924C237.085 591.137 237.099 591.358 237.022 591.585L236.305 593.699C236.228 593.926 236.083 594.092 235.87 594.197C235.657 594.302 235.437 594.316 235.21 594.239L232.448 593.303ZM239.871 595.82C239.643 595.743 239.477 595.598 239.372 595.385C239.267 595.172 239.253 594.952 239.33 594.724L244.788 578.633C244.865 578.406 245.01 578.239 245.223 578.134C245.436 578.029 245.656 578.015 245.883 578.092L248.713 579.052C248.963 579.137 249.129 579.282 249.212 579.487C249.317 579.7 249.331 579.92 249.254 580.148L243.796 596.239C243.719 596.466 243.574 596.633 243.361 596.738C243.17 596.851 242.95 596.865 242.7 596.78L239.871 595.82ZM246.741 575.114C246.514 575.037 246.348 574.892 246.243 574.679C246.138 574.466 246.124 574.245 246.201 574.018L247.033 571.564C247.11 571.336 247.255 571.17 247.468 571.065C247.682 570.96 247.902 570.946 248.129 571.023L251.231 572.075C251.481 572.16 251.659 572.309 251.764 572.522C251.869 572.735 251.883 572.955 251.806 573.182L250.974 575.637C250.897 575.864 250.751 576.03 250.538 576.136C250.325 576.241 250.094 576.251 249.844 576.166L246.741 575.114ZM254.315 600.719C253.951 600.596 253.705 600.424 253.577 600.203C253.48 599.967 253.413 599.716 253.376 599.451L252.366 581.469C252.359 581.34 252.371 581.23 252.402 581.139C252.472 580.935 252.598 580.788 252.78 580.697C252.993 580.592 253.202 580.574 253.407 580.644L256.168 581.58C256.441 581.673 256.618 581.822 256.701 582.027C256.791 582.21 256.836 582.377 256.835 582.529L257.31 596.033L265.903 585.605C265.995 585.484 266.132 585.378 266.315 585.288C266.505 585.175 266.737 585.165 267.009 585.257L269.805 586.206C269.987 586.267 270.119 586.401 270.201 586.606C270.314 586.796 270.336 586.994 270.267 587.198C270.236 587.289 270.19 587.388 270.128 587.494L258.354 601.139C258.186 601.335 257.98 601.494 257.737 601.614C257.501 601.711 257.201 601.698 256.837 601.575L254.315 600.719ZM274.507 607.948C271.984 607.092 270.23 605.686 269.246 603.731C268.262 601.775 268.168 599.437 268.964 596.717C269.019 596.482 269.104 596.194 269.219 595.853C269.343 595.489 269.45 595.209 269.542 595.012C270.219 593.315 271.107 591.969 272.205 590.973C273.333 589.962 274.623 589.335 276.074 589.092C277.533 588.827 279.091 588.975 280.751 589.538C282.592 590.162 284.006 591.073 284.994 592.27C285.99 593.444 286.574 594.82 286.748 596.4C286.93 597.957 286.72 599.622 286.119 601.394L285.876 602.11C285.799 602.338 285.654 602.504 285.441 602.609C285.228 602.714 284.996 602.724 284.746 602.639L273.427 598.801C273.427 598.801 273.416 598.835 273.393 598.903C273.37 598.971 273.35 599.028 273.335 599.073C273.088 599.876 272.985 600.665 273.027 601.44C273.098 602.199 273.338 602.876 273.744 603.47C274.174 604.072 274.775 604.504 275.548 604.766C276.184 604.981 276.749 605.072 277.243 605.036C277.744 604.978 278.173 604.87 278.531 604.713C278.888 604.555 279.151 604.416 279.319 604.296C279.616 604.093 279.829 603.987 279.958 603.98C280.117 603.959 280.322 603.99 280.572 604.075L283.504 605.069C283.731 605.146 283.89 605.276 283.98 605.459C284.093 605.649 284.103 605.843 284.011 606.04C283.865 606.395 283.522 606.773 282.981 607.173C282.462 607.58 281.789 607.921 280.96 608.198C280.131 608.474 279.159 608.614 278.044 608.615C276.958 608.602 275.779 608.379 274.507 607.948ZM274.399 595.937L281.933 598.492L281.968 598.39C282.269 597.504 282.383 596.681 282.311 595.921C282.247 595.139 281.992 594.47 281.547 593.914C281.11 593.335 280.494 592.91 279.698 592.64C278.903 592.37 278.156 592.332 277.456 592.526C276.765 592.697 276.156 593.073 275.629 593.655C275.133 594.222 274.734 594.948 274.433 595.834L274.399 595.937Z" fill="white"/>
</g>
<mask id="mask1_2047_103" style="mask-type:alpha" maskUnits="userSpaceOnUse" x="384" y="430" width="380" height="335">
<rect x="384" y="430" width="380" height="335" fill="#D9D9D9"/>
</mask>
<g mask="url(#mask1_2047_103)">
<path d="M759.398 598.7L718.654 603.108C717.23 643.623 701.04 683.739 670.099 714.68C605.252 779.527 500.143 779.566 435.334 714.757C370.525 649.948 370.574 544.849 435.421 480.002C496.692 418.731 593.906 415.317 659.092 469.785C691.03 490.735 759.398 598.7 759.398 598.7Z" fill="#D0F491"/>
<path d="M500.27 609.763C498.162 609.763 496.371 609.4 494.898 608.675C493.447 607.927 492.336 606.873 491.566 605.513C490.795 604.13 490.364 602.476 490.274 600.549C490.251 599.62 490.24 598.622 490.24 597.557C490.24 596.492 490.251 595.472 490.274 594.497C490.364 592.593 490.795 590.95 491.566 589.567C492.359 588.184 493.481 587.13 494.932 586.405C496.405 585.657 498.184 585.283 500.27 585.283C501.811 585.283 503.194 585.487 504.418 585.895C505.642 586.303 506.684 586.87 507.546 587.595C508.407 588.298 509.076 589.125 509.552 590.077C510.028 591.029 510.277 592.06 510.3 593.171C510.322 593.375 510.254 593.545 510.096 593.681C509.96 593.817 509.79 593.885 509.586 593.885H506.356C506.106 593.885 505.902 593.828 505.744 593.715C505.585 593.579 505.472 593.364 505.404 593.069C505.041 591.573 504.418 590.553 503.534 590.009C502.65 589.465 501.55 589.193 500.236 589.193C498.717 589.193 497.504 589.624 496.598 590.485C495.691 591.324 495.204 592.718 495.136 594.667C495.068 596.526 495.068 598.43 495.136 600.379C495.204 602.328 495.691 603.734 496.598 604.595C497.504 605.434 498.717 605.853 500.236 605.853C501.55 605.853 502.65 605.581 503.534 605.037C504.44 604.47 505.064 603.45 505.404 601.977C505.472 601.66 505.585 601.444 505.744 601.331C505.902 601.218 506.106 601.161 506.356 601.161H509.586C509.79 601.161 509.96 601.229 510.096 601.365C510.254 601.501 510.322 601.671 510.3 601.875C510.277 602.986 510.028 604.017 509.552 604.969C509.076 605.921 508.407 606.76 507.546 607.485C506.684 608.188 505.642 608.743 504.418 609.151C503.194 609.559 501.811 609.763 500.27 609.763ZM514.74 609.423C514.513 609.423 514.32 609.344 514.162 609.185C514.003 609.026 513.924 608.834 513.924 608.607V592.593C513.924 592.344 514.003 592.14 514.162 591.981C514.32 591.822 514.513 591.743 514.74 591.743H517.494C517.72 591.743 517.913 591.822 518.072 591.981C518.253 592.14 518.344 592.344 518.344 592.593V593.987C518.865 593.262 519.534 592.706 520.35 592.321C521.188 591.936 522.152 591.743 523.24 591.743H524.634C524.883 591.743 525.076 591.822 525.212 591.981C525.37 592.14 525.45 592.332 525.45 592.559V595.007C525.45 595.234 525.37 595.426 525.212 595.585C525.076 595.744 524.883 595.823 524.634 595.823H521.982C520.894 595.823 520.044 596.129 519.432 596.741C518.842 597.33 518.548 598.169 518.548 599.257V608.607C518.548 608.834 518.468 609.026 518.31 609.185C518.151 609.344 517.947 609.423 517.698 609.423H514.74ZM535.485 609.763C532.969 609.763 530.974 609.038 529.501 607.587C528.028 606.136 527.234 604.074 527.121 601.399C527.098 601.172 527.087 600.889 527.087 600.549C527.087 600.186 527.098 599.903 527.121 599.699C527.212 597.976 527.597 596.503 528.277 595.279C528.98 594.032 529.943 593.08 531.167 592.423C532.391 591.743 533.83 591.403 535.485 591.403C537.321 591.403 538.862 591.788 540.109 592.559C541.356 593.307 542.296 594.361 542.931 595.721C543.566 597.058 543.883 598.611 543.883 600.379V601.093C543.883 601.32 543.804 601.512 543.645 601.671C543.486 601.83 543.282 601.909 543.033 601.909H531.745C531.745 601.909 531.745 601.943 531.745 602.011C531.745 602.079 531.745 602.136 531.745 602.181C531.768 602.974 531.915 603.711 532.187 604.391C532.482 605.048 532.901 605.581 533.445 605.989C534.012 606.397 534.68 606.601 535.451 606.601C536.086 606.601 536.618 606.51 537.049 606.329C537.48 606.125 537.831 605.898 538.103 605.649C538.375 605.4 538.568 605.196 538.681 605.037C538.885 604.765 539.044 604.606 539.157 604.561C539.293 604.493 539.486 604.459 539.735 604.459H542.659C542.886 604.459 543.067 604.527 543.203 604.663C543.362 604.799 543.43 604.969 543.407 605.173C543.384 605.536 543.192 605.978 542.829 606.499C542.489 607.02 541.99 607.53 541.333 608.029C540.676 608.528 539.848 608.947 538.851 609.287C537.876 609.604 536.754 609.763 535.485 609.763ZM531.745 599.053H539.259V598.951C539.259 598.067 539.112 597.296 538.817 596.639C538.522 595.959 538.092 595.438 537.525 595.075C536.958 594.69 536.278 594.497 535.485 594.497C534.692 594.497 534.012 594.69 533.445 595.075C532.878 595.438 532.448 595.959 532.153 596.639C531.881 597.296 531.745 598.067 531.745 598.951V599.053ZM552.626 609.763C551.447 609.763 550.382 609.536 549.43 609.083C548.478 608.607 547.719 607.984 547.152 607.213C546.608 606.42 546.336 605.536 546.336 604.561C546.336 602.974 546.982 601.716 548.274 600.787C549.566 599.835 551.255 599.2 553.34 598.883L557.998 598.203V597.489C557.998 596.537 557.76 595.8 557.284 595.279C556.808 594.758 555.992 594.497 554.836 594.497C554.02 594.497 553.351 594.667 552.83 595.007C552.331 595.324 551.957 595.755 551.708 596.299C551.527 596.594 551.266 596.741 550.926 596.741H548.24C547.991 596.741 547.798 596.673 547.662 596.537C547.549 596.401 547.492 596.22 547.492 595.993C547.515 595.63 547.662 595.188 547.934 594.667C548.229 594.146 548.659 593.647 549.226 593.171C549.815 592.672 550.575 592.253 551.504 591.913C552.433 591.573 553.555 591.403 554.87 591.403C556.298 591.403 557.499 591.584 558.474 591.947C559.471 592.287 560.265 592.752 560.854 593.341C561.443 593.93 561.874 594.622 562.146 595.415C562.418 596.208 562.554 597.047 562.554 597.931V608.607C562.554 608.834 562.475 609.026 562.316 609.185C562.157 609.344 561.965 609.423 561.738 609.423H558.984C558.735 609.423 558.531 609.344 558.372 609.185C558.236 609.026 558.168 608.834 558.168 608.607V607.281C557.873 607.689 557.477 608.086 556.978 608.471C556.479 608.856 555.867 609.174 555.142 609.423C554.439 609.65 553.601 609.763 552.626 609.763ZM553.782 606.533C554.575 606.533 555.289 606.363 555.924 606.023C556.581 605.683 557.091 605.162 557.454 604.459C557.839 603.734 558.032 602.827 558.032 601.739V601.025L554.632 601.569C553.295 601.773 552.297 602.102 551.64 602.555C550.983 603.008 550.654 603.564 550.654 604.221C550.654 604.72 550.801 605.15 551.096 605.513C551.413 605.853 551.81 606.114 552.286 606.295C552.762 606.454 553.261 606.533 553.782 606.533ZM574.74 609.423C573.38 609.423 572.235 609.185 571.306 608.709C570.377 608.233 569.685 607.53 569.232 606.601C568.779 605.649 568.552 604.47 568.552 603.065V595.347H565.866C565.639 595.347 565.447 595.268 565.288 595.109C565.129 594.95 565.05 594.746 565.05 594.497V592.559C565.05 592.332 565.129 592.14 565.288 591.981C565.447 591.822 565.639 591.743 565.866 591.743H568.552V586.099C568.552 585.872 568.62 585.68 568.756 585.521C568.915 585.362 569.119 585.283 569.368 585.283H572.122C572.349 585.283 572.541 585.362 572.7 585.521C572.859 585.68 572.938 585.872 572.938 586.099V591.743H577.188C577.415 591.743 577.607 591.822 577.766 591.981C577.925 592.14 578.004 592.332 578.004 592.559V594.497C578.004 594.746 577.925 594.95 577.766 595.109C577.607 595.268 577.415 595.347 577.188 595.347H572.938V602.725C572.938 603.654 573.097 604.38 573.414 604.901C573.754 605.422 574.332 605.683 575.148 605.683H577.494C577.721 605.683 577.913 605.762 578.072 605.921C578.231 606.08 578.31 606.272 578.31 606.499V608.607C578.31 608.834 578.231 609.026 578.072 609.185C577.913 609.344 577.721 609.423 577.494 609.423H574.74ZM582.142 609.423C581.915 609.423 581.723 609.344 581.564 609.185C581.405 609.026 581.326 608.834 581.326 608.607V592.559C581.326 592.332 581.405 592.14 581.564 591.981C581.723 591.822 581.915 591.743 582.142 591.743H584.964C585.213 591.743 585.406 591.822 585.542 591.981C585.701 592.14 585.78 592.332 585.78 592.559V608.607C585.78 608.834 585.701 609.026 585.542 609.185C585.406 609.344 585.213 609.423 584.964 609.423H582.142ZM582.006 588.819C581.779 588.819 581.587 588.74 581.428 588.581C581.269 588.422 581.19 588.23 581.19 588.003V585.555C581.19 585.328 581.269 585.136 581.428 584.977C581.587 584.818 581.779 584.739 582.006 584.739H585.1C585.349 584.739 585.553 584.818 585.712 584.977C585.871 585.136 585.95 585.328 585.95 585.555V588.003C585.95 588.23 585.871 588.422 585.712 588.581C585.553 588.74 585.349 588.819 585.1 588.819H582.006ZM596.547 609.423C596.184 609.423 595.912 609.344 595.731 609.185C595.572 609.004 595.436 608.8 595.323 608.573L588.965 592.797C588.92 592.684 588.897 592.582 588.897 592.491C588.897 592.287 588.965 592.117 589.101 591.981C589.26 591.822 589.441 591.743 589.645 591.743H592.399C592.671 591.743 592.875 591.822 593.011 591.981C593.147 592.117 593.238 592.253 593.283 592.389L597.805 604.323L602.327 592.389C602.372 592.253 602.463 592.117 602.599 591.981C602.735 591.822 602.939 591.743 603.211 591.743H605.999C606.18 591.743 606.339 591.822 606.475 591.981C606.634 592.117 606.713 592.287 606.713 592.491C606.713 592.582 606.702 592.684 606.679 592.797L600.287 608.573C600.196 608.8 600.06 609.004 599.879 609.185C599.698 609.344 599.426 609.423 599.063 609.423H596.547ZM616.799 609.763C614.283 609.763 612.289 609.038 610.815 607.587C609.342 606.136 608.549 604.074 608.435 601.399C608.413 601.172 608.401 600.889 608.401 600.549C608.401 600.186 608.413 599.903 608.435 599.699C608.526 597.976 608.911 596.503 609.591 595.279C610.294 594.032 611.257 593.08 612.481 592.423C613.705 591.743 615.145 591.403 616.799 591.403C618.635 591.403 620.177 591.788 621.423 592.559C622.67 593.307 623.611 594.361 624.245 595.721C624.88 597.058 625.197 598.611 625.197 600.379V601.093C625.197 601.32 625.118 601.512 624.959 601.671C624.801 601.83 624.597 601.909 624.347 601.909H613.059C613.059 601.909 613.059 601.943 613.059 602.011C613.059 602.079 613.059 602.136 613.059 602.181C613.082 602.974 613.229 603.711 613.501 604.391C613.796 605.048 614.215 605.581 614.759 605.989C615.326 606.397 615.995 606.601 616.765 606.601C617.4 606.601 617.933 606.51 618.363 606.329C618.794 606.125 619.145 605.898 619.417 605.649C619.689 605.4 619.882 605.196 619.995 605.037C620.199 604.765 620.358 604.606 620.471 604.561C620.607 604.493 620.8 604.459 621.049 604.459H623.973C624.2 604.459 624.381 604.527 624.517 604.663C624.676 604.799 624.744 604.969 624.721 605.173C624.699 605.536 624.506 605.978 624.143 606.499C623.803 607.02 623.305 607.53 622.647 608.029C621.99 608.528 621.163 608.947 620.165 609.287C619.191 609.604 618.069 609.763 616.799 609.763ZM613.059 599.053H620.573V598.951C620.573 598.067 620.426 597.296 620.131 596.639C619.837 595.959 619.406 595.438 618.839 595.075C618.273 594.69 617.593 594.497 616.799 594.497C616.006 594.497 615.326 594.69 614.759 595.075C614.193 595.438 613.762 595.959 613.467 596.639C613.195 597.296 613.059 598.067 613.059 598.951V599.053Z" fill="black"/>
</g>
<mask id="mask2_2047_103" style="mask-type:alpha" maskUnits="userSpaceOnUse" x="216" y="0" width="248" height="239">
<rect x="216" width="248" height="239" fill="#D9D9D9"/>
</mask>
<g mask="url(#mask2_2047_103)">
<path d="M434.05 6.05141L418.122 30.4834C439.799 49.5222 454.605 76.5155 457.71 107.502C464.217 172.443 416.881 230.365 351.977 236.868C287.074 243.371 229.197 195.991 222.69 131.05C216.542 69.69 258.462 14.5964 317.839 3.22638C343.769 -4.92877 434.05 6.05141 434.05 6.05141Z" fill="url(#paint1_linear_2047_103)"/>
<path d="M275.159 125C274.972 125 274.813 124.935 274.683 124.804C274.552 124.673 274.487 124.515 274.487 124.328V106.072C274.487 105.885 274.552 105.727 274.683 105.596C274.813 105.465 274.972 105.4 275.159 105.4H277.791C277.996 105.4 278.155 105.465 278.267 105.596C278.397 105.727 278.463 105.885 278.463 106.072V124.328C278.463 124.515 278.397 124.673 278.267 124.804C278.155 124.935 277.996 125 277.791 125H275.159ZM283.19 125C283.003 125 282.845 124.935 282.714 124.804C282.583 124.673 282.518 124.515 282.518 124.328V111.112C282.518 110.925 282.583 110.767 282.714 110.636C282.845 110.505 283.003 110.44 283.19 110.44H285.486C285.673 110.44 285.831 110.505 285.962 110.636C286.093 110.767 286.158 110.925 286.158 111.112V112.26C286.643 111.663 287.259 111.168 288.006 110.776C288.771 110.365 289.714 110.16 290.834 110.16C291.973 110.16 292.962 110.421 293.802 110.944C294.642 111.448 295.286 112.167 295.734 113.1C296.201 114.033 296.434 115.153 296.434 116.46V124.328C296.434 124.515 296.369 124.673 296.238 124.804C296.107 124.935 295.949 125 295.762 125H293.298C293.111 125 292.953 124.935 292.822 124.804C292.691 124.673 292.626 124.515 292.626 124.328V116.628C292.626 115.545 292.355 114.696 291.814 114.08C291.291 113.464 290.526 113.156 289.518 113.156C288.547 113.156 287.773 113.464 287.194 114.08C286.615 114.696 286.326 115.545 286.326 116.628V124.328C286.326 124.515 286.261 124.673 286.13 124.804C285.999 124.935 285.841 125 285.654 125H283.19ZM306.407 125C305.287 125 304.344 124.804 303.579 124.412C302.813 124.02 302.244 123.441 301.871 122.676C301.497 121.892 301.311 120.921 301.311 119.764V113.408H299.099C298.912 113.408 298.753 113.343 298.623 113.212C298.492 113.081 298.427 112.913 298.427 112.708V111.112C298.427 110.925 298.492 110.767 298.623 110.636C298.753 110.505 298.912 110.44 299.099 110.44H301.311V105.792C301.311 105.605 301.367 105.447 301.479 105.316C301.609 105.185 301.777 105.12 301.983 105.12H304.251C304.437 105.12 304.596 105.185 304.727 105.316C304.857 105.447 304.923 105.605 304.923 105.792V110.44H308.423C308.609 110.44 308.768 110.505 308.899 110.636C309.029 110.767 309.095 110.925 309.095 111.112V112.708C309.095 112.913 309.029 113.081 308.899 113.212C308.768 113.343 308.609 113.408 308.423 113.408H304.923V119.484C304.923 120.249 305.053 120.847 305.315 121.276C305.595 121.705 306.071 121.92 306.743 121.92H308.675C308.861 121.92 309.02 121.985 309.151 122.116C309.281 122.247 309.347 122.405 309.347 122.592V124.328C309.347 124.515 309.281 124.673 309.151 124.804C309.02 124.935 308.861 125 308.675 125H306.407ZM318.102 125.28C316.03 125.28 314.388 124.683 313.174 123.488C311.961 122.293 311.308 120.595 311.214 118.392C311.196 118.205 311.186 117.972 311.186 117.692C311.186 117.393 311.196 117.16 311.214 116.992C311.289 115.573 311.606 114.36 312.166 113.352C312.745 112.325 313.538 111.541 314.546 111C315.554 110.44 316.74 110.16 318.102 110.16C319.614 110.16 320.884 110.477 321.91 111.112C322.937 111.728 323.712 112.596 324.234 113.716C324.757 114.817 325.018 116.096 325.018 117.552V118.14C325.018 118.327 324.953 118.485 324.822 118.616C324.692 118.747 324.524 118.812 324.318 118.812H315.022C315.022 118.812 315.022 118.84 315.022 118.896C315.022 118.952 315.022 118.999 315.022 119.036C315.041 119.689 315.162 120.296 315.386 120.856C315.629 121.397 315.974 121.836 316.422 122.172C316.889 122.508 317.44 122.676 318.074 122.676C318.597 122.676 319.036 122.601 319.39 122.452C319.745 122.284 320.034 122.097 320.258 121.892C320.482 121.687 320.641 121.519 320.734 121.388C320.902 121.164 321.033 121.033 321.126 120.996C321.238 120.94 321.397 120.912 321.602 120.912H324.01C324.197 120.912 324.346 120.968 324.458 121.08C324.589 121.192 324.645 121.332 324.626 121.5C324.608 121.799 324.449 122.163 324.15 122.592C323.87 123.021 323.46 123.441 322.918 123.852C322.377 124.263 321.696 124.608 320.874 124.888C320.072 125.149 319.148 125.28 318.102 125.28ZM315.022 116.46H321.21V116.376C321.21 115.648 321.089 115.013 320.846 114.472C320.604 113.912 320.249 113.483 319.782 113.184C319.316 112.867 318.756 112.708 318.102 112.708C317.449 112.708 316.889 112.867 316.422 113.184C315.956 113.483 315.601 113.912 315.358 114.472C315.134 115.013 315.022 115.648 315.022 116.376V116.46ZM328.663 125C328.476 125 328.317 124.935 328.187 124.804C328.056 124.673 327.991 124.515 327.991 124.328V111.14C327.991 110.935 328.056 110.767 328.187 110.636C328.317 110.505 328.476 110.44 328.663 110.44H330.931C331.117 110.44 331.276 110.505 331.407 110.636C331.556 110.767 331.631 110.935 331.631 111.14V112.288C332.06 111.691 332.611 111.233 333.283 110.916C333.973 110.599 334.767 110.44 335.663 110.44H336.811C337.016 110.44 337.175 110.505 337.287 110.636C337.417 110.767 337.483 110.925 337.483 111.112V113.128C337.483 113.315 337.417 113.473 337.287 113.604C337.175 113.735 337.016 113.8 336.811 113.8H334.627C333.731 113.8 333.031 114.052 332.527 114.556C332.041 115.041 331.799 115.732 331.799 116.628V124.328C331.799 124.515 331.733 124.673 331.603 124.804C331.472 124.935 331.304 125 331.099 125H328.663ZM343.676 125.28C342.705 125.28 341.828 125.093 341.044 124.72C340.26 124.328 339.634 123.815 339.168 123.18C338.72 122.527 338.496 121.799 338.496 120.996C338.496 119.689 339.028 118.653 340.092 117.888C341.156 117.104 342.546 116.581 344.264 116.32L348.1 115.76V115.172C348.1 114.388 347.904 113.781 347.512 113.352C347.12 112.923 346.448 112.708 345.496 112.708C344.824 112.708 344.273 112.848 343.844 113.128C343.433 113.389 343.125 113.744 342.92 114.192C342.77 114.435 342.556 114.556 342.276 114.556H340.064C339.858 114.556 339.7 114.5 339.588 114.388C339.494 114.276 339.448 114.127 339.448 113.94C339.466 113.641 339.588 113.277 339.812 112.848C340.054 112.419 340.409 112.008 340.876 111.616C341.361 111.205 341.986 110.86 342.752 110.58C343.517 110.3 344.441 110.16 345.524 110.16C346.7 110.16 347.689 110.309 348.492 110.608C349.313 110.888 349.966 111.271 350.452 111.756C350.937 112.241 351.292 112.811 351.516 113.464C351.74 114.117 351.852 114.808 351.852 115.536V124.328C351.852 124.515 351.786 124.673 351.656 124.804C351.525 124.935 351.366 125 351.18 125H348.912C348.706 125 348.538 124.935 348.408 124.804C348.296 124.673 348.24 124.515 348.24 124.328V123.236C347.997 123.572 347.67 123.899 347.26 124.216C346.849 124.533 346.345 124.795 345.748 125C345.169 125.187 344.478 125.28 343.676 125.28ZM344.628 122.62C345.281 122.62 345.869 122.48 346.392 122.2C346.933 121.92 347.353 121.491 347.652 120.912C347.969 120.315 348.128 119.568 348.128 118.672V118.084L345.328 118.532C344.226 118.7 343.405 118.971 342.864 119.344C342.322 119.717 342.052 120.175 342.052 120.716C342.052 121.127 342.173 121.481 342.416 121.78C342.677 122.06 343.004 122.275 343.396 122.424C343.788 122.555 344.198 122.62 344.628 122.62ZM361.744 125.28C360.4 125.28 359.214 125.028 358.188 124.524C357.18 124.02 356.386 123.292 355.808 122.34C355.248 121.369 354.94 120.203 354.884 118.84C354.865 118.56 354.856 118.196 354.856 117.748C354.856 117.281 354.865 116.899 354.884 116.6C354.94 115.237 355.248 114.08 355.808 113.128C356.386 112.157 357.18 111.42 358.188 110.916C359.214 110.412 360.4 110.16 361.744 110.16C362.938 110.16 363.956 110.328 364.796 110.664C365.636 110.981 366.326 111.401 366.868 111.924C367.409 112.428 367.81 112.96 368.072 113.52C368.352 114.061 368.501 114.556 368.52 115.004C368.538 115.209 368.473 115.377 368.324 115.508C368.193 115.62 368.034 115.676 367.848 115.676H365.384C365.197 115.676 365.048 115.629 364.936 115.536C364.842 115.443 364.749 115.303 364.656 115.116C364.376 114.369 364.002 113.847 363.536 113.548C363.088 113.231 362.509 113.072 361.8 113.072C360.866 113.072 360.12 113.371 359.56 113.968C359.018 114.547 358.729 115.471 358.692 116.74C358.654 117.449 358.654 118.103 358.692 118.7C358.729 119.988 359.018 120.921 359.56 121.5C360.12 122.079 360.866 122.368 361.8 122.368C362.528 122.368 363.116 122.219 363.564 121.92C364.012 121.603 364.376 121.071 364.656 120.324C364.749 120.137 364.842 119.997 364.936 119.904C365.048 119.811 365.197 119.764 365.384 119.764H367.848C368.034 119.764 368.193 119.829 368.324 119.96C368.473 120.072 368.538 120.231 368.52 120.436C368.501 120.772 368.408 121.155 368.24 121.584C368.09 121.995 367.838 122.424 367.484 122.872C367.148 123.301 366.718 123.703 366.196 124.076C365.673 124.431 365.038 124.72 364.292 124.944C363.564 125.168 362.714 125.28 361.744 125.28ZM378.02 125C376.9 125 375.957 124.804 375.192 124.412C374.426 124.02 373.857 123.441 373.484 122.676C373.11 121.892 372.924 120.921 372.924 119.764V113.408H370.712C370.525 113.408 370.366 113.343 370.236 113.212C370.105 113.081 370.04 112.913 370.04 112.708V111.112C370.04 110.925 370.105 110.767 370.236 110.636C370.366 110.505 370.525 110.44 370.712 110.44H372.924V105.792C372.924 105.605 372.98 105.447 373.092 105.316C373.222 105.185 373.39 105.12 373.596 105.12H375.864C376.05 105.12 376.209 105.185 376.34 105.316C376.47 105.447 376.536 105.605 376.536 105.792V110.44H380.036C380.222 110.44 380.381 110.505 380.512 110.636C380.642 110.767 380.708 110.925 380.708 111.112V112.708C380.708 112.913 380.642 113.081 380.512 113.212C380.381 113.343 380.222 113.408 380.036 113.408H376.536V119.484C376.536 120.249 376.666 120.847 376.928 121.276C377.208 121.705 377.684 121.92 378.356 121.92H380.288C380.474 121.92 380.633 121.985 380.764 122.116C380.894 122.247 380.96 122.405 380.96 122.592V124.328C380.96 124.515 380.894 124.673 380.764 124.804C380.633 124.935 380.474 125 380.288 125H378.02ZM384.116 125C383.929 125 383.77 124.935 383.64 124.804C383.509 124.673 383.444 124.515 383.444 124.328V111.112C383.444 110.925 383.509 110.767 383.64 110.636C383.77 110.505 383.929 110.44 384.116 110.44H386.44C386.645 110.44 386.804 110.505 386.916 110.636C387.046 110.767 387.112 110.925 387.112 111.112V124.328C387.112 124.515 387.046 124.673 386.916 124.804C386.804 124.935 386.645 125 386.44 125H384.116ZM384.004 108.032C383.817 108.032 383.658 107.967 383.528 107.836C383.397 107.705 383.332 107.547 383.332 107.36V105.344C383.332 105.157 383.397 104.999 383.528 104.868C383.658 104.737 383.817 104.672 384.004 104.672H386.552C386.757 104.672 386.925 104.737 387.056 104.868C387.186 104.999 387.252 105.157 387.252 105.344V107.36C387.252 107.547 387.186 107.705 387.056 107.836C386.925 107.967 386.757 108.032 386.552 108.032H384.004ZM395.979 125C395.68 125 395.456 124.935 395.307 124.804C395.176 124.655 395.064 124.487 394.971 124.3L389.735 111.308C389.697 111.215 389.679 111.131 389.679 111.056C389.679 110.888 389.735 110.748 389.847 110.636C389.977 110.505 390.127 110.44 390.295 110.44H392.563C392.787 110.44 392.955 110.505 393.067 110.636C393.179 110.748 393.253 110.86 393.291 110.972L397.015 120.8L400.739 110.972C400.776 110.86 400.851 110.748 400.963 110.636C401.075 110.505 401.243 110.44 401.467 110.44H403.763C403.912 110.44 404.043 110.505 404.155 110.636C404.285 110.748 404.351 110.888 404.351 111.056C404.351 111.131 404.341 111.215 404.323 111.308L399.059 124.3C398.984 124.487 398.872 124.655 398.723 124.804C398.573 124.935 398.349 125 398.051 125H395.979ZM412.657 125.28C410.585 125.28 408.942 124.683 407.729 123.488C406.516 122.293 405.862 120.595 405.769 118.392C405.75 118.205 405.741 117.972 405.741 117.692C405.741 117.393 405.75 117.16 405.769 116.992C405.844 115.573 406.161 114.36 406.721 113.352C407.3 112.325 408.093 111.541 409.101 111C410.109 110.44 411.294 110.16 412.657 110.16C414.169 110.16 415.438 110.477 416.465 111.112C417.492 111.728 418.266 112.596 418.789 113.716C419.312 114.817 419.573 116.096 419.573 117.552V118.14C419.573 118.327 419.508 118.485 419.377 118.616C419.246 118.747 419.078 118.812 418.873 118.812H409.577C409.577 118.812 409.577 118.84 409.577 118.896C409.577 118.952 409.577 118.999 409.577 119.036C409.596 119.689 409.717 120.296 409.941 120.856C410.184 121.397 410.529 121.836 410.977 122.172C411.444 122.508 411.994 122.676 412.629 122.676C413.152 122.676 413.59 122.601 413.945 122.452C414.3 122.284 414.589 122.097 414.813 121.892C415.037 121.687 415.196 121.519 415.289 121.388C415.457 121.164 415.588 121.033 415.681 120.996C415.793 120.94 415.952 120.912 416.157 120.912H418.565C418.752 120.912 418.901 120.968 419.013 121.08C419.144 121.192 419.2 121.332 419.181 121.5C419.162 121.799 419.004 122.163 418.705 122.592C418.425 123.021 418.014 123.441 417.473 123.852C416.932 124.263 416.25 124.608 415.429 124.888C414.626 125.149 413.702 125.28 412.657 125.28ZM409.577 116.46H415.765V116.376C415.765 115.648 415.644 115.013 415.401 114.472C415.158 113.912 414.804 113.483 414.337 113.184C413.87 112.867 413.31 112.708 412.657 112.708C412.004 112.708 411.444 112.867 410.977 113.184C410.51 113.483 410.156 113.912 409.913 114.472C409.689 115.013 409.577 115.648 409.577 116.376V116.46Z" fill="white"/>
</g>
<mask id="mask3_2047_103" style="mask-type:alpha" maskUnits="userSpaceOnUse" x="296" y="225" width="247" height="241">
<rect x="296" y="225" width="247" height="241" fill="#D9D9D9"/>
</mask>
<g mask="url(#mask3_2047_103)">
<path d="M541.418 261.989L518.738 281.284C534.434 306.209 541.095 336.927 535.145 368.159C522.674 433.614 459.534 476.579 394.116 464.115C328.699 451.651 285.792 388.482 298.263 323.026C310.046 261.18 367.063 219.413 428.483 225.509C456.231 225.05 541.418 261.989 541.418 261.989Z" fill="url(#paint2_linear_2047_103)"/>
<path d="M355.702 355.423C355.488 355.423 355.307 355.348 355.158 355.199C355.008 355.05 354.934 354.868 354.934 354.655V333.791C354.934 333.578 355.008 333.396 355.158 333.247C355.307 333.098 355.488 333.023 355.702 333.023H358.71C358.944 333.023 359.126 333.098 359.254 333.247C359.403 333.396 359.478 333.578 359.478 333.791V354.655C359.478 354.868 359.403 355.05 359.254 355.199C359.126 355.348 358.944 355.423 358.71 355.423H355.702ZM364.88 355.423C364.667 355.423 364.485 355.348 364.336 355.199C364.187 355.05 364.112 354.868 364.112 354.655V339.551C364.112 339.338 364.187 339.156 364.336 339.007C364.485 338.858 364.667 338.783 364.88 338.783H367.504C367.717 338.783 367.899 338.858 368.048 339.007C368.197 339.156 368.272 339.338 368.272 339.551V340.863C368.827 340.18 369.531 339.615 370.384 339.167C371.259 338.698 372.336 338.463 373.616 338.463C374.917 338.463 376.048 338.762 377.008 339.359C377.968 339.935 378.704 340.756 379.216 341.823C379.749 342.89 380.016 344.17 380.016 345.663V354.655C380.016 354.868 379.941 355.05 379.792 355.199C379.643 355.348 379.461 355.423 379.248 355.423H376.432C376.219 355.423 376.037 355.348 375.888 355.199C375.739 355.05 375.664 354.868 375.664 354.655V345.855C375.664 344.618 375.355 343.647 374.736 342.943C374.139 342.239 373.264 341.887 372.112 341.887C371.003 341.887 370.117 342.239 369.456 342.943C368.795 343.647 368.464 344.618 368.464 345.855V354.655C368.464 354.868 368.389 355.05 368.24 355.199C368.091 355.348 367.909 355.423 367.696 355.423H364.88ZM390.385 355.743C389.105 355.743 388.006 355.594 387.089 355.295C386.193 354.996 385.457 354.623 384.881 354.175C384.305 353.727 383.878 353.279 383.601 352.831C383.323 352.383 383.174 352.01 383.153 351.711C383.131 351.476 383.195 351.295 383.345 351.167C383.515 351.018 383.697 350.943 383.889 350.943H386.417C386.502 350.943 386.577 350.954 386.641 350.975C386.705 350.996 386.79 351.06 386.897 351.167C387.174 351.402 387.462 351.647 387.761 351.903C388.081 352.159 388.454 352.383 388.881 352.575C389.307 352.746 389.841 352.831 390.481 352.831C391.313 352.831 392.006 352.671 392.561 352.351C393.137 352.01 393.425 351.53 393.425 350.911C393.425 350.463 393.297 350.1 393.041 349.823C392.806 349.546 392.358 349.3 391.697 349.087C391.035 348.852 390.097 348.607 388.881 348.351C387.686 348.074 386.694 347.722 385.905 347.295C385.115 346.868 384.529 346.335 384.145 345.695C383.761 345.055 383.569 344.308 383.569 343.455C383.569 342.623 383.814 341.834 384.305 341.087C384.817 340.319 385.563 339.69 386.545 339.199C387.547 338.708 388.785 338.463 390.257 338.463C391.409 338.463 392.411 338.612 393.265 338.911C394.118 339.188 394.822 339.54 395.377 339.967C395.953 340.394 396.39 340.831 396.689 341.279C396.987 341.706 397.147 342.079 397.169 342.399C397.19 342.634 397.126 342.826 396.977 342.975C396.827 343.103 396.657 343.167 396.465 343.167H394.097C393.99 343.167 393.894 343.146 393.809 343.103C393.723 343.06 393.638 343.007 393.553 342.943C393.318 342.73 393.062 342.506 392.785 342.271C392.507 342.015 392.166 341.802 391.761 341.631C391.377 341.46 390.865 341.375 390.225 341.375C389.414 341.375 388.795 341.556 388.369 341.919C387.942 342.26 387.729 342.698 387.729 343.231C387.729 343.594 387.825 343.914 388.017 344.191C388.23 344.447 388.646 344.692 389.265 344.927C389.883 345.162 390.822 345.407 392.081 345.663C393.51 345.919 394.641 346.303 395.473 346.815C396.326 347.306 396.923 347.882 397.265 348.543C397.627 349.183 397.809 349.898 397.809 350.687C397.809 351.647 397.521 352.511 396.945 353.279C396.39 354.047 395.558 354.655 394.449 355.103C393.361 355.53 392.006 355.743 390.385 355.743ZM401.912 361.503C401.699 361.503 401.517 361.428 401.368 361.279C401.219 361.13 401.144 360.948 401.144 360.735V339.551C401.144 339.338 401.219 339.156 401.368 339.007C401.517 338.858 401.699 338.783 401.912 338.783H404.44C404.675 338.783 404.856 338.858 404.984 339.007C405.133 339.156 405.208 339.338 405.208 339.551V340.831C405.72 340.148 406.392 339.583 407.224 339.135C408.056 338.687 409.091 338.463 410.328 338.463C411.459 338.463 412.44 338.644 413.272 339.007C414.104 339.37 414.797 339.892 415.352 340.575C415.907 341.236 416.333 342.026 416.632 342.943C416.931 343.86 417.101 344.874 417.144 345.983C417.165 346.346 417.176 346.719 417.176 347.103C417.176 347.487 417.165 347.871 417.144 348.255C417.123 349.322 416.963 350.314 416.664 351.231C416.365 352.127 415.928 352.916 415.352 353.599C414.797 354.26 414.104 354.783 413.272 355.167C412.44 355.551 411.459 355.743 410.328 355.743C409.176 355.743 408.195 355.54 407.384 355.135C406.573 354.708 405.912 354.154 405.4 353.471V360.735C405.4 360.948 405.325 361.13 405.176 361.279C405.048 361.428 404.867 361.503 404.632 361.503H401.912ZM409.144 352.319C410.061 352.319 410.776 352.127 411.288 351.743C411.8 351.338 412.173 350.815 412.408 350.175C412.643 349.535 412.781 348.831 412.824 348.063C412.845 347.423 412.845 346.783 412.824 346.143C412.781 345.375 412.643 344.671 412.408 344.031C412.173 343.391 411.8 342.879 411.288 342.495C410.776 342.09 410.061 341.887 409.144 341.887C408.269 341.887 407.555 342.09 407 342.495C406.467 342.9 406.072 343.423 405.816 344.063C405.581 344.682 405.443 345.322 405.4 345.983C405.379 346.367 405.368 346.772 405.368 347.199C405.368 347.626 405.379 348.042 405.4 348.447C405.421 349.087 405.571 349.706 405.848 350.303C406.125 350.879 406.531 351.359 407.064 351.743C407.597 352.127 408.291 352.319 409.144 352.319ZM421.536 355.423C421.323 355.423 421.142 355.348 420.992 355.199C420.843 355.05 420.768 354.868 420.768 354.655V339.551C420.768 339.338 420.843 339.156 420.992 339.007C421.142 338.858 421.323 338.783 421.536 338.783H424.192C424.427 338.783 424.608 338.858 424.736 339.007C424.886 339.156 424.96 339.338 424.96 339.551V354.655C424.96 354.868 424.886 355.05 424.736 355.199C424.608 355.348 424.427 355.423 424.192 355.423H421.536ZM421.408 336.031C421.195 336.031 421.014 335.956 420.864 335.807C420.715 335.658 420.64 335.476 420.64 335.263V332.959C420.64 332.746 420.715 332.564 420.864 332.415C421.014 332.266 421.195 332.191 421.408 332.191H424.32C424.555 332.191 424.747 332.266 424.896 332.415C425.046 332.564 425.12 332.746 425.12 332.959V335.263C425.12 335.476 425.046 335.658 424.896 335.807C424.747 335.956 424.555 336.031 424.32 336.031H421.408ZM429.974 355.423C429.76 355.423 429.579 355.348 429.43 355.199C429.28 355.05 429.206 354.868 429.206 354.655V339.583C429.206 339.348 429.28 339.156 429.43 339.007C429.579 338.858 429.76 338.783 429.974 338.783H432.566C432.779 338.783 432.96 338.858 433.11 339.007C433.28 339.156 433.366 339.348 433.366 339.583V340.895C433.856 340.212 434.486 339.69 435.254 339.327C436.043 338.964 436.95 338.783 437.974 338.783H439.286C439.52 338.783 439.702 338.858 439.83 339.007C439.979 339.156 440.054 339.338 440.054 339.551V341.855C440.054 342.068 439.979 342.25 439.83 342.399C439.702 342.548 439.52 342.623 439.286 342.623H436.79C435.766 342.623 434.966 342.911 434.39 343.487C433.835 344.042 433.558 344.831 433.558 345.855V354.655C433.558 354.868 433.483 355.05 433.334 355.199C433.184 355.348 432.992 355.423 432.758 355.423H429.974ZM443.318 355.423C443.104 355.423 442.923 355.348 442.774 355.199C442.624 355.05 442.549 354.868 442.549 354.655V339.551C442.549 339.338 442.624 339.156 442.774 339.007C442.923 338.858 443.104 338.783 443.318 338.783H445.974C446.208 338.783 446.39 338.858 446.518 339.007C446.667 339.156 446.742 339.338 446.742 339.551V354.655C446.742 354.868 446.667 355.05 446.518 355.199C446.39 355.348 446.208 355.423 445.974 355.423H443.318ZM443.19 336.031C442.976 336.031 442.795 335.956 442.646 335.807C442.496 335.658 442.422 335.476 442.422 335.263V332.959C442.422 332.746 442.496 332.564 442.646 332.415C442.795 332.266 442.976 332.191 443.19 332.191H446.102C446.336 332.191 446.528 332.266 446.678 332.415C446.827 332.564 446.902 332.746 446.902 332.959V335.263C446.902 335.476 446.827 335.658 446.678 335.807C446.528 335.956 446.336 336.031 446.102 336.031H443.19ZM451.755 355.423C451.542 355.423 451.36 355.348 451.211 355.199C451.062 355.05 450.987 354.868 450.987 354.655V339.551C450.987 339.338 451.062 339.156 451.211 339.007C451.36 338.858 451.542 338.783 451.755 338.783H454.379C454.592 338.783 454.774 338.858 454.923 339.007C455.072 339.156 455.147 339.338 455.147 339.551V340.863C455.702 340.18 456.406 339.615 457.259 339.167C458.134 338.698 459.211 338.463 460.491 338.463C461.792 338.463 462.923 338.762 463.883 339.359C464.843 339.935 465.579 340.756 466.091 341.823C466.624 342.89 466.891 344.17 466.891 345.663V354.655C466.891 354.868 466.816 355.05 466.667 355.199C466.518 355.348 466.336 355.423 466.123 355.423H463.307C463.094 355.423 462.912 355.348 462.763 355.199C462.614 355.05 462.539 354.868 462.539 354.655V345.855C462.539 344.618 462.23 343.647 461.611 342.943C461.014 342.239 460.139 341.887 458.987 341.887C457.878 341.887 456.992 342.239 456.331 342.943C455.67 343.647 455.339 344.618 455.339 345.855V354.655C455.339 354.868 455.264 355.05 455.115 355.199C454.966 355.348 454.784 355.423 454.571 355.423H451.755ZM478.476 362.463C476.918 362.463 475.638 362.26 474.636 361.855C473.633 361.45 472.844 360.959 472.268 360.383C471.692 359.807 471.276 359.231 471.02 358.655C470.785 358.1 470.657 357.663 470.636 357.343C470.614 357.13 470.678 356.938 470.828 356.767C470.998 356.618 471.19 356.543 471.404 356.543H474.188C474.401 356.543 474.572 356.586 474.7 356.671C474.828 356.778 474.934 356.959 475.02 357.215C475.148 357.492 475.318 357.791 475.532 358.111C475.745 358.431 476.065 358.698 476.492 358.911C476.94 359.146 477.548 359.263 478.316 359.263C479.126 359.263 479.809 359.146 480.364 358.911C480.918 358.676 481.334 358.282 481.612 357.727C481.91 357.172 482.06 356.404 482.06 355.423V353.247C481.548 353.866 480.886 354.367 480.076 354.751C479.286 355.135 478.305 355.327 477.132 355.327C476.001 355.327 475.009 355.146 474.156 354.783C473.324 354.399 472.63 353.876 472.076 353.215C471.521 352.532 471.094 351.732 470.796 350.815C470.518 349.898 470.358 348.884 470.316 347.775C470.294 347.199 470.294 346.623 470.316 346.047C470.358 344.98 470.518 343.988 470.796 343.071C471.094 342.154 471.521 341.354 472.076 340.671C472.63 339.967 473.324 339.423 474.156 339.039C475.009 338.655 476.001 338.463 477.132 338.463C478.348 338.463 479.372 338.698 480.204 339.167C481.036 339.615 481.718 340.18 482.252 340.863V339.583C482.252 339.348 482.326 339.156 482.476 339.007C482.625 338.858 482.806 338.783 483.02 338.783H485.612C485.825 338.783 486.006 338.858 486.156 339.007C486.305 339.156 486.38 339.348 486.38 339.583L486.412 355.007C486.412 356.543 486.124 357.866 485.548 358.975C484.972 360.084 484.097 360.938 482.924 361.535C481.772 362.154 480.289 362.463 478.476 362.463ZM478.316 351.935C479.19 351.935 479.894 351.743 480.428 351.359C480.961 350.975 481.356 350.474 481.612 349.855C481.868 349.236 482.017 348.607 482.06 347.967C482.081 347.69 482.092 347.338 482.092 346.911C482.092 346.484 482.081 346.143 482.06 345.887C482.017 345.226 481.868 344.596 481.612 343.999C481.356 343.38 480.961 342.879 480.428 342.495C479.894 342.09 479.19 341.887 478.316 341.887C477.441 341.887 476.737 342.09 476.204 342.495C475.67 342.879 475.286 343.391 475.052 344.031C474.838 344.671 474.71 345.375 474.668 346.143C474.625 346.655 474.625 347.178 474.668 347.711C474.71 348.458 474.838 349.162 475.052 349.823C475.286 350.463 475.67 350.975 476.204 351.359C476.737 351.743 477.441 351.935 478.316 351.935Z" fill="white"/>
</g>
<mask id="mask4_2047_103" style="mask-type:alpha" maskUnits="userSpaceOnUse" x="126" y="179" width="180" height="204">
<rect x="126" y="179" width="180" height="204" fill="#D9D9D9"/>
</mask>
<g mask="url(#mask4_2047_103)">
<path d="M177.575 180.452L187.365 200.353C208.23 193.572 231.629 194.372 253.094 204.374C298.083 225.335 317.575 278.776 296.626 323.738C275.677 368.7 222.225 388.146 177.236 367.184C134.729 347.379 114.983 298.577 130.604 255.34C135.341 235.218 177.575 180.452 177.575 180.452Z" fill="#D0F491"/>
<path d="M158.223 294.423C158.023 294.423 157.853 294.353 157.713 294.213C157.573 294.073 157.503 293.903 157.503 293.703V274.173C157.503 273.953 157.573 273.773 157.713 273.633C157.853 273.493 158.023 273.423 158.223 273.423H171.423C171.643 273.423 171.823 273.493 171.963 273.633C172.103 273.773 172.173 273.953 172.173 274.173V276.153C172.173 276.353 172.103 276.523 171.963 276.663C171.823 276.803 171.643 276.873 171.423 276.873H161.553V282.183H170.763C170.983 282.183 171.163 282.253 171.303 282.393C171.443 282.513 171.513 282.683 171.513 282.903V284.763C171.513 284.983 171.443 285.163 171.303 285.303C171.163 285.423 170.983 285.483 170.763 285.483H161.553V290.973H171.663C171.883 290.973 172.063 291.043 172.203 291.183C172.343 291.323 172.413 291.503 172.413 291.723V293.703C172.413 293.903 172.343 294.073 172.203 294.213C172.063 294.353 171.883 294.423 171.663 294.423H158.223ZM178 294.423C177.8 294.423 177.63 294.353 177.49 294.213C177.35 294.073 177.28 293.903 177.28 293.703V282.003H174.85C174.65 282.003 174.48 281.933 174.34 281.793C174.2 281.653 174.13 281.473 174.13 281.253V279.543C174.13 279.343 174.2 279.173 174.34 279.033C174.48 278.893 174.65 278.823 174.85 278.823H177.28V277.593C177.28 276.393 177.5 275.403 177.94 274.623C178.38 273.823 179.03 273.223 179.89 272.823C180.75 272.423 181.84 272.223 183.16 272.223H185.2C185.42 272.223 185.59 272.293 185.71 272.433C185.85 272.573 185.92 272.743 185.92 272.943V274.653C185.92 274.873 185.85 275.053 185.71 275.193C185.59 275.333 185.42 275.403 185.2 275.403H183.28C182.48 275.403 181.93 275.603 181.63 276.003C181.33 276.403 181.18 276.983 181.18 277.743V278.823H187.33V277.593C187.33 276.393 187.54 275.403 187.96 274.623C188.4 273.823 189.05 273.223 189.91 272.823C190.79 272.423 191.88 272.223 193.18 272.223H199.33C199.55 272.223 199.72 272.293 199.84 272.433C199.98 272.573 200.05 272.743 200.05 272.943V274.653C200.05 274.873 199.98 275.053 199.84 275.193C199.72 275.333 199.55 275.403 199.33 275.403H193.33C192.53 275.403 191.97 275.603 191.65 276.003C191.35 276.403 191.2 276.983 191.2 277.743V278.823H199.33C199.55 278.823 199.72 278.893 199.84 279.033C199.98 279.173 200.05 279.343 200.05 279.543V293.703C200.05 293.903 199.98 294.073 199.84 294.213C199.72 294.353 199.55 294.423 199.33 294.423H196.9C196.7 294.423 196.53 294.353 196.39 294.213C196.25 294.073 196.18 293.903 196.18 293.703V282.003H191.2V293.703C191.2 293.903 191.13 294.073 190.99 294.213C190.87 294.353 190.7 294.423 190.48 294.423H188.05C187.85 294.423 187.68 294.353 187.54 294.213C187.4 294.073 187.33 293.903 187.33 293.703V282.003H181.18V293.703C181.18 293.903 181.11 294.073 180.97 294.213C180.83 294.353 180.66 294.423 180.46 294.423H178ZM210.797 294.723C209.357 294.723 208.087 294.453 206.987 293.913C205.907 293.373 205.057 292.593 204.437 291.573C203.837 290.533 203.507 289.283 203.447 287.823C203.427 287.523 203.417 287.133 203.417 286.653C203.417 286.153 203.427 285.743 203.447 285.423C203.507 283.963 203.837 282.723 204.437 281.703C205.057 280.663 205.907 279.873 206.987 279.333C208.087 278.793 209.357 278.523 210.797 278.523C212.077 278.523 213.167 278.703 214.067 279.063C214.967 279.403 215.707 279.853 216.287 280.413C216.867 280.953 217.297 281.523 217.577 282.123C217.877 282.703 218.037 283.233 218.057 283.713C218.077 283.933 218.007 284.113 217.847 284.253C217.707 284.373 217.537 284.433 217.337 284.433H214.697C214.497 284.433 214.337 284.383 214.217 284.283C214.117 284.183 214.017 284.033 213.917 283.833C213.617 283.033 213.217 282.473 212.717 282.153C212.237 281.813 211.617 281.643 210.857 281.643C209.857 281.643 209.057 281.963 208.457 282.603C207.877 283.223 207.567 284.213 207.527 285.573C207.487 286.333 207.487 287.033 207.527 287.673C207.567 289.053 207.877 290.053 208.457 290.673C209.057 291.293 209.857 291.603 210.857 291.603C211.637 291.603 212.267 291.443 212.747 291.123C213.227 290.783 213.617 290.213 213.917 289.413C214.017 289.213 214.117 289.063 214.217 288.963C214.337 288.863 214.497 288.813 214.697 288.813H217.337C217.537 288.813 217.707 288.883 217.847 289.023C218.007 289.143 218.077 289.313 218.057 289.533C218.037 289.893 217.937 290.303 217.757 290.763C217.597 291.203 217.327 291.663 216.947 292.143C216.587 292.603 216.127 293.033 215.567 293.433C215.007 293.813 214.327 294.123 213.527 294.363C212.747 294.603 211.837 294.723 210.797 294.723ZM221.906 294.423C221.706 294.423 221.536 294.353 221.396 294.213C221.256 294.073 221.186 293.903 221.186 293.703V279.543C221.186 279.343 221.256 279.173 221.396 279.033C221.536 278.893 221.706 278.823 221.906 278.823H224.396C224.616 278.823 224.786 278.893 224.906 279.033C225.046 279.173 225.116 279.343 225.116 279.543V293.703C225.116 293.903 225.046 294.073 224.906 294.213C224.786 294.353 224.616 294.423 224.396 294.423H221.906ZM221.786 276.243C221.586 276.243 221.416 276.173 221.276 276.033C221.136 275.893 221.066 275.723 221.066 275.523V273.363C221.066 273.163 221.136 272.993 221.276 272.853C221.416 272.713 221.586 272.643 221.786 272.643H224.516C224.736 272.643 224.916 272.713 225.056 272.853C225.196 272.993 225.266 273.163 225.266 273.363V275.523C225.266 275.723 225.196 275.893 225.056 276.033C224.916 276.173 224.736 276.243 224.516 276.243H221.786ZM235.816 294.723C233.596 294.723 231.836 294.083 230.536 292.803C229.236 291.523 228.536 289.703 228.436 287.343C228.416 287.143 228.406 286.893 228.406 286.593C228.406 286.273 228.416 286.023 228.436 285.843C228.516 284.323 228.856 283.023 229.456 281.943C230.076 280.843 230.926 280.003 232.006 279.423C233.086 278.823 234.356 278.523 235.816 278.523C237.436 278.523 238.796 278.863 239.896 279.543C240.996 280.203 241.826 281.133 242.386 282.333C242.946 283.513 243.226 284.883 243.226 286.443V287.073C243.226 287.273 243.156 287.443 243.016 287.583C242.876 287.723 242.696 287.793 242.476 287.793H232.516C232.516 287.793 232.516 287.823 232.516 287.883C232.516 287.943 232.516 287.993 232.516 288.033C232.536 288.733 232.666 289.383 232.906 289.983C233.166 290.563 233.536 291.033 234.016 291.393C234.516 291.753 235.106 291.933 235.786 291.933C236.346 291.933 236.816 291.853 237.196 291.693C237.576 291.513 237.886 291.313 238.126 291.093C238.366 290.873 238.536 290.693 238.636 290.553C238.816 290.313 238.956 290.173 239.056 290.133C239.176 290.073 239.346 290.043 239.566 290.043H242.146C242.346 290.043 242.506 290.103 242.626 290.223C242.766 290.343 242.826 290.493 242.806 290.673C242.786 290.993 242.616 291.383 242.296 291.843C241.996 292.303 241.556 292.753 240.976 293.193C240.396 293.633 239.666 294.003 238.786 294.303C237.926 294.583 236.936 294.723 235.816 294.723ZM232.516 285.273H239.146V285.183C239.146 284.403 239.016 283.723 238.756 283.143C238.496 282.543 238.116 282.083 237.616 281.763C237.116 281.423 236.516 281.253 235.816 281.253C235.116 281.253 234.516 281.423 234.016 281.763C233.516 282.083 233.136 282.543 232.876 283.143C232.636 283.723 232.516 284.403 232.516 285.183V285.273ZM247.131 294.423C246.931 294.423 246.761 294.353 246.621 294.213C246.481 294.073 246.411 293.903 246.411 293.703V279.543C246.411 279.343 246.481 279.173 246.621 279.033C246.761 278.893 246.931 278.823 247.131 278.823H249.591C249.791 278.823 249.961 278.893 250.101 279.033C250.241 279.173 250.311 279.343 250.311 279.543V280.773C250.831 280.133 251.491 279.603 252.291 279.183C253.111 278.743 254.121 278.523 255.321 278.523C256.541 278.523 257.601 278.803 258.501 279.363C259.401 279.903 260.091 280.673 260.571 281.673C261.071 282.673 261.321 283.873 261.321 285.273V293.703C261.321 293.903 261.251 294.073 261.111 294.213C260.971 294.353 260.801 294.423 260.601 294.423H257.961C257.761 294.423 257.591 294.353 257.451 294.213C257.311 294.073 257.241 293.903 257.241 293.703V285.453C257.241 284.293 256.951 283.383 256.371 282.723C255.811 282.063 254.991 281.733 253.911 281.733C252.871 281.733 252.041 282.063 251.421 282.723C250.801 283.383 250.491 284.293 250.491 285.453V293.703C250.491 293.903 250.421 294.073 250.281 294.213C250.141 294.353 249.971 294.423 249.771 294.423H247.131ZM272.006 294.423C270.806 294.423 269.796 294.213 268.976 293.793C268.156 293.373 267.546 292.753 267.146 291.933C266.746 291.093 266.546 290.053 266.546 288.813V282.003H264.176C263.976 282.003 263.806 281.933 263.666 281.793C263.526 281.653 263.456 281.473 263.456 281.253V279.543C263.456 279.343 263.526 279.173 263.666 279.033C263.806 278.893 263.976 278.823 264.176 278.823H266.546V273.843C266.546 273.643 266.606 273.473 266.726 273.333C266.866 273.193 267.046 273.123 267.266 273.123H269.696C269.896 273.123 270.066 273.193 270.206 273.333C270.346 273.473 270.416 273.643 270.416 273.843V278.823H274.166C274.366 278.823 274.536 278.893 274.676 279.033C274.816 279.173 274.886 279.343 274.886 279.543V281.253C274.886 281.473 274.816 281.653 274.676 281.793C274.536 281.933 274.366 282.003 274.166 282.003H270.416V288.513C270.416 289.333 270.556 289.973 270.836 290.433C271.136 290.893 271.646 291.123 272.366 291.123H274.436C274.636 291.123 274.806 291.193 274.946 291.333C275.086 291.473 275.156 291.643 275.156 291.843V293.703C275.156 293.903 275.086 294.073 274.946 294.213C274.806 294.353 274.636 294.423 274.436 294.423H272.006Z" fill="black"/>
</g>
<defs>
<linearGradient id="paint0_linear_2047_103" x1="385.588" y1="537.861" x2="5.62477" y2="596.947" gradientUnits="userSpaceOnUse">
<stop stop-color="#884AFF"/>
<stop offset="1" stop-color="#894CFF"/>
</linearGradient>
<linearGradient id="paint1_linear_2047_103" x1="222.666" y1="130.806" x2="457.685" y2="107.258" gradientUnits="userSpaceOnUse">
<stop stop-color="#884AFF"/>
<stop offset="1" stop-color="#894CFF"/>
</linearGradient>
<linearGradient id="paint2_linear_2047_103" x1="298.309" y1="322.781" x2="535.191" y2="367.913" gradientUnits="userSpaceOnUse">
<stop stop-color="#884AFF"/>
<stop offset="1" stop-color="#894CFF"/>
</linearGradient>
</defs>
</svg>
